<mxfile host="Electron" modified="2023-12-25T18:43:48.139Z" agent="Mozilla/5.0 (Macintosh; Intel Mac OS X 10_15_7) AppleWebKit/537.36 (KHTML, like Gecko) draw.io/22.1.11 Chrome/114.0.5735.289 Electron/25.9.8 Safari/537.36" etag="4YBJ1BnY7AK0-180mYyw" version="22.1.11" type="device">
  <diagram id="Wv4Jsfx7hPIGmiSLFp6D" name="Page-1">
    <mxGraphModel dx="2074" dy="1267" grid="1" gridSize="10" guides="1" tooltips="1" connect="1" arrows="1" fold="1" page="1" pageScale="1" pageWidth="1125" pageHeight="1125" background="none" math="0" shadow="0">
      <root>
        <mxCell id="0" />
        <mxCell id="1" parent="0" />
        <mxCell id="36" style="edgeStyle=none;html=1;exitX=1;exitY=1;exitDx=0;exitDy=0;entryX=0;entryY=0;entryDx=0;entryDy=0;flowAnimation=1;enumerate=0;" parent="1" source="2" target="6" edge="1">
          <mxGeometry relative="1" as="geometry" />
        </mxCell>
        <mxCell id="37" style="edgeStyle=none;html=1;exitX=1;exitY=0.5;exitDx=0;exitDy=0;entryX=0;entryY=0.5;entryDx=0;entryDy=0;flowAnimation=1;enumerate=0;" parent="1" source="2" target="5" edge="1">
          <mxGeometry relative="1" as="geometry" />
        </mxCell>
        <mxCell id="38" style="edgeStyle=none;html=1;exitX=1;exitY=0;exitDx=0;exitDy=0;entryX=0;entryY=1;entryDx=0;entryDy=0;flowAnimation=1;enumerate=0;" parent="1" source="2" target="4" edge="1">
          <mxGeometry relative="1" as="geometry" />
        </mxCell>
        <mxCell id="2" value="&lt;pre style=&quot;line-height: 21px;&quot;&gt;&lt;font style=&quot;font-size: 12px;&quot; face=&quot;Helvetica&quot;&gt;&lt;font style=&quot;font-size: 12px;&quot;&gt;cachorro, gato, rato,&lt;br&gt;&lt;span style=&quot;background-color: initial;&quot;&gt;carro, carro, rato,&lt;br/&gt;&lt;/span&gt;&lt;/font&gt;cachorro, carro, gato&lt;/font&gt;&lt;/pre&gt;" style="whiteSpace=wrap;html=1;aspect=fixed;fillColor=default;" parent="1" vertex="1">
          <mxGeometry x="20" y="287.5" width="170" height="170" as="geometry" />
        </mxCell>
        <mxCell id="33" style="edgeStyle=none;html=1;flowAnimation=1;enumerate=0;" parent="1" source="4" target="27" edge="1">
          <mxGeometry relative="1" as="geometry" />
        </mxCell>
        <mxCell id="4" value="cachorro, gato, rato" style="rounded=1;whiteSpace=wrap;html=1;fillColor=default;" parent="1" vertex="1">
          <mxGeometry x="250" y="182.5" width="140" height="60" as="geometry" />
        </mxCell>
        <mxCell id="35" style="edgeStyle=none;html=1;entryX=0;entryY=0.5;entryDx=0;entryDy=0;flowAnimation=1;enumerate=0;" parent="1" source="5" target="34" edge="1">
          <mxGeometry relative="1" as="geometry" />
        </mxCell>
        <mxCell id="5" value="carro, carro, rato" style="rounded=1;whiteSpace=wrap;html=1;fillColor=default;" parent="1" vertex="1">
          <mxGeometry x="250" y="342.5" width="140" height="60" as="geometry" />
        </mxCell>
        <mxCell id="41" style="edgeStyle=none;html=1;entryX=0;entryY=0.5;entryDx=0;entryDy=0;flowAnimation=1;enumerate=0;" parent="1" source="6" target="40" edge="1">
          <mxGeometry relative="1" as="geometry" />
        </mxCell>
        <mxCell id="6" value="cachorro, carro, gato" style="rounded=1;whiteSpace=wrap;html=1;fillColor=default;" parent="1" vertex="1">
          <mxGeometry x="250" y="507.5" width="140" height="60" as="geometry" />
        </mxCell>
        <mxCell id="20" value="Mapping&lt;br&gt;(mapeamento)" style="text;html=1;strokeColor=none;fillColor=none;align=center;verticalAlign=middle;whiteSpace=wrap;rounded=0;enumerate=0;fontStyle=1" parent="1" vertex="1">
          <mxGeometry x="460" y="40" width="60" height="30" as="geometry" />
        </mxCell>
        <mxCell id="25" value="Splitting&lt;br&gt;(separação)" style="text;html=1;strokeColor=none;fillColor=none;align=center;verticalAlign=middle;whiteSpace=wrap;rounded=0;enumerate=0;fontStyle=1" parent="1" vertex="1">
          <mxGeometry x="290" y="40" width="60" height="30" as="geometry" />
        </mxCell>
        <mxCell id="26" value="Input&lt;br&gt;(entrada)" style="text;html=1;strokeColor=none;fillColor=none;align=center;verticalAlign=middle;whiteSpace=wrap;rounded=0;enumerate=0;fontStyle=1" parent="1" vertex="1">
          <mxGeometry x="75" y="40" width="60" height="30" as="geometry" />
        </mxCell>
        <mxCell id="65" style="edgeStyle=none;html=1;exitX=1;exitY=0.25;exitDx=0;exitDy=0;entryX=0;entryY=0.5;entryDx=0;entryDy=0;flowAnimation=1;enumerate=0;" parent="1" source="27" target="48" edge="1">
          <mxGeometry relative="1" as="geometry" />
        </mxCell>
        <mxCell id="68" value="cachorro" style="edgeLabel;html=1;align=center;verticalAlign=middle;resizable=0;points=[];" parent="65" vertex="1" connectable="0">
          <mxGeometry x="-0.0786" y="3" relative="1" as="geometry">
            <mxPoint as="offset" />
          </mxGeometry>
        </mxCell>
        <mxCell id="66" style="edgeStyle=none;html=1;exitX=1;exitY=1;exitDx=0;exitDy=0;flowAnimation=1;enumerate=0;" parent="1" source="27" edge="1">
          <mxGeometry relative="1" as="geometry">
            <mxPoint x="670" y="540" as="targetPoint" />
          </mxGeometry>
        </mxCell>
        <mxCell id="67" value="rato" style="edgeLabel;html=1;align=center;verticalAlign=middle;resizable=0;points=[];" parent="66" vertex="1" connectable="0">
          <mxGeometry x="-0.7824" relative="1" as="geometry">
            <mxPoint as="offset" />
          </mxGeometry>
        </mxCell>
        <mxCell id="69" style="edgeStyle=none;html=1;exitX=1;exitY=0.5;exitDx=0;exitDy=0;entryX=0;entryY=0.5;entryDx=0;entryDy=0;flowAnimation=1;enumerate=0;" parent="1" source="27" target="50" edge="1">
          <mxGeometry relative="1" as="geometry" />
        </mxCell>
        <mxCell id="70" value="gato" style="edgeLabel;html=1;align=center;verticalAlign=middle;resizable=0;points=[];" parent="69" vertex="1" connectable="0">
          <mxGeometry x="-0.7412" y="2" relative="1" as="geometry">
            <mxPoint x="-1" as="offset" />
          </mxGeometry>
        </mxCell>
        <mxCell id="27" value="cachorro, 1&lt;br&gt;gato, 1&lt;br&gt;rato, 1" style="rounded=0;whiteSpace=wrap;html=1;fillColor=default;" parent="1" vertex="1">
          <mxGeometry x="430" y="160" width="120" height="105" as="geometry" />
        </mxCell>
        <mxCell id="28" value="Shuffling&lt;br&gt;(embaralhamento)" style="text;html=1;strokeColor=none;fillColor=none;align=center;verticalAlign=middle;whiteSpace=wrap;rounded=0;enumerate=0;fontStyle=1" parent="1" vertex="1">
          <mxGeometry x="676" y="40" width="60" height="30" as="geometry" />
        </mxCell>
        <mxCell id="59" style="edgeStyle=none;html=1;exitX=1;exitY=0.25;exitDx=0;exitDy=0;entryX=0;entryY=0.25;entryDx=0;entryDy=0;flowAnimation=1;enumerate=0;" parent="1" source="34" target="49" edge="1">
          <mxGeometry relative="1" as="geometry" />
        </mxCell>
        <mxCell id="62" value="carro" style="edgeLabel;html=1;align=center;verticalAlign=middle;resizable=0;points=[];" parent="59" vertex="1" connectable="0">
          <mxGeometry x="-0.4559" y="-1" relative="1" as="geometry">
            <mxPoint as="offset" />
          </mxGeometry>
        </mxCell>
        <mxCell id="60" style="edgeStyle=none;html=1;exitX=1;exitY=0.5;exitDx=0;exitDy=0;entryX=0;entryY=0.5;entryDx=0;entryDy=0;flowAnimation=1;enumerate=0;" parent="1" source="34" target="49" edge="1">
          <mxGeometry relative="1" as="geometry" />
        </mxCell>
        <mxCell id="63" value="carro" style="edgeLabel;html=1;align=center;verticalAlign=middle;resizable=0;points=[];" parent="60" vertex="1" connectable="0">
          <mxGeometry x="-0.4686" relative="1" as="geometry">
            <mxPoint as="offset" />
          </mxGeometry>
        </mxCell>
        <mxCell id="61" style="edgeStyle=none;html=1;exitX=1;exitY=0.75;exitDx=0;exitDy=0;entryX=0;entryY=0.5;entryDx=0;entryDy=0;flowAnimation=1;enumerate=0;" parent="1" source="34" target="51" edge="1">
          <mxGeometry relative="1" as="geometry" />
        </mxCell>
        <mxCell id="64" value="rato" style="edgeLabel;html=1;align=center;verticalAlign=middle;resizable=0;points=[];" parent="61" vertex="1" connectable="0">
          <mxGeometry x="-0.3941" y="-2" relative="1" as="geometry">
            <mxPoint x="-15" y="-25" as="offset" />
          </mxGeometry>
        </mxCell>
        <mxCell id="34" value="carro, 1&lt;br&gt;carro, 1&lt;br&gt;rato, 1" style="rounded=0;whiteSpace=wrap;html=1;fillColor=default;" parent="1" vertex="1">
          <mxGeometry x="430" y="320" width="120" height="105" as="geometry" />
        </mxCell>
        <mxCell id="52" style="edgeStyle=none;html=1;exitX=1;exitY=0.25;exitDx=0;exitDy=0;entryX=0;entryY=1;entryDx=0;entryDy=0;flowAnimation=1;enumerate=0;" parent="1" source="40" target="48" edge="1">
          <mxGeometry relative="1" as="geometry" />
        </mxCell>
        <mxCell id="58" value="cachorro" style="edgeLabel;html=1;align=center;verticalAlign=middle;resizable=0;points=[];" parent="52" vertex="1" connectable="0">
          <mxGeometry x="0.2188" y="-1" relative="1" as="geometry">
            <mxPoint x="-61" y="114" as="offset" />
          </mxGeometry>
        </mxCell>
        <mxCell id="53" style="edgeStyle=none;html=1;exitX=1;exitY=0.5;exitDx=0;exitDy=0;entryX=0;entryY=1;entryDx=0;entryDy=0;flowAnimation=1;enumerate=0;" parent="1" source="40" target="49" edge="1">
          <mxGeometry relative="1" as="geometry" />
        </mxCell>
        <mxCell id="57" value="carro" style="edgeLabel;html=1;align=center;verticalAlign=middle;resizable=0;points=[];" parent="53" vertex="1" connectable="0">
          <mxGeometry x="-0.0135" y="2" relative="1" as="geometry">
            <mxPoint as="offset" />
          </mxGeometry>
        </mxCell>
        <mxCell id="54" style="edgeStyle=none;html=1;exitX=1;exitY=0.75;exitDx=0;exitDy=0;entryX=0;entryY=1;entryDx=0;entryDy=0;flowAnimation=1;enumerate=0;" parent="1" source="40" target="50" edge="1">
          <mxGeometry relative="1" as="geometry" />
        </mxCell>
        <mxCell id="56" value="gato" style="edgeLabel;html=1;align=center;verticalAlign=middle;resizable=0;points=[];" parent="54" vertex="1" connectable="0">
          <mxGeometry x="0.2637" y="-2" relative="1" as="geometry">
            <mxPoint as="offset" />
          </mxGeometry>
        </mxCell>
        <mxCell id="40" value="cachorro, 1&lt;br&gt;carro, 1&lt;br&gt;gato, 1" style="rounded=0;whiteSpace=wrap;html=1;fillColor=default;" parent="1" vertex="1">
          <mxGeometry x="430" y="485" width="120" height="105" as="geometry" />
        </mxCell>
        <mxCell id="44" style="edgeStyle=none;html=1;flowAnimation=1;enumerate=0;" parent="1" source="43" target="2" edge="1">
          <mxGeometry relative="1" as="geometry" />
        </mxCell>
        <mxCell id="45" value="Faz imput dos dados&lt;br&gt;para o MapReduce" style="edgeLabel;html=1;align=center;verticalAlign=middle;resizable=0;points=[];" parent="44" vertex="1" connectable="0">
          <mxGeometry x="0.1918" relative="1" as="geometry">
            <mxPoint as="offset" />
          </mxGeometry>
        </mxCell>
        <mxCell id="43" value="Usuário ou Sistema" style="shape=umlActor;verticalLabelPosition=bottom;verticalAlign=top;html=1;outlineConnect=0;fillColor=default;" parent="1" vertex="1">
          <mxGeometry x="90" y="685" width="30" height="60" as="geometry" />
        </mxCell>
        <mxCell id="76" style="edgeStyle=none;html=1;entryX=0;entryY=0.5;entryDx=0;entryDy=0;flowAnimation=1;" parent="1" source="48" target="72" edge="1">
          <mxGeometry relative="1" as="geometry" />
        </mxCell>
        <mxCell id="48" value="cachorro, 1&lt;br&gt;cachorro, 1" style="rounded=0;whiteSpace=wrap;html=1;fillColor=default;" parent="1" vertex="1">
          <mxGeometry x="646" y="150" width="120" height="105" as="geometry" />
        </mxCell>
        <mxCell id="77" style="edgeStyle=none;html=1;entryX=0;entryY=0.5;entryDx=0;entryDy=0;flowAnimation=1;" parent="1" source="49" target="73" edge="1">
          <mxGeometry relative="1" as="geometry" />
        </mxCell>
        <mxCell id="49" value="carro, 1&lt;br&gt;carro, 1&lt;br&gt;carro, 1" style="rounded=0;whiteSpace=wrap;html=1;fillColor=default;" parent="1" vertex="1">
          <mxGeometry x="646" y="270" width="120" height="105" as="geometry" />
        </mxCell>
        <mxCell id="78" style="edgeStyle=none;html=1;entryX=0;entryY=0.5;entryDx=0;entryDy=0;flowAnimation=1;" parent="1" source="50" target="74" edge="1">
          <mxGeometry relative="1" as="geometry" />
        </mxCell>
        <mxCell id="50" value="gato, 1&lt;br&gt;gato, 1" style="rounded=0;whiteSpace=wrap;html=1;fillColor=default;" parent="1" vertex="1">
          <mxGeometry x="646" y="390" width="120" height="105" as="geometry" />
        </mxCell>
        <mxCell id="79" style="edgeStyle=none;html=1;entryX=0;entryY=0.5;entryDx=0;entryDy=0;flowAnimation=1;" parent="1" source="51" target="75" edge="1">
          <mxGeometry relative="1" as="geometry" />
        </mxCell>
        <mxCell id="51" value="rato, 1&lt;br&gt;rato, 1" style="rounded=0;whiteSpace=wrap;html=1;fillColor=default;" parent="1" vertex="1">
          <mxGeometry x="646" y="511.5" width="120" height="105" as="geometry" />
        </mxCell>
        <mxCell id="71" value="Reducing&lt;br&gt;(redução)" style="text;html=1;strokeColor=none;fillColor=none;align=center;verticalAlign=middle;whiteSpace=wrap;rounded=0;enumerate=0;fontStyle=1" parent="1" vertex="1">
          <mxGeometry x="855" y="40" width="60" height="30" as="geometry" />
        </mxCell>
        <mxCell id="82" style="edgeStyle=none;html=1;exitX=1;exitY=1;exitDx=0;exitDy=0;entryX=0;entryY=0;entryDx=0;entryDy=0;flowAnimation=1;" parent="1" source="72" target="81" edge="1">
          <mxGeometry relative="1" as="geometry" />
        </mxCell>
        <mxCell id="72" value="cachorro, 2" style="rounded=1;whiteSpace=wrap;html=1;fillColor=default;" parent="1" vertex="1">
          <mxGeometry x="825" y="172.5" width="120" height="60" as="geometry" />
        </mxCell>
        <mxCell id="84" style="edgeStyle=none;html=1;exitX=1;exitY=0.5;exitDx=0;exitDy=0;entryX=0;entryY=0.25;entryDx=0;entryDy=0;flowAnimation=1;" parent="1" source="73" target="81" edge="1">
          <mxGeometry relative="1" as="geometry" />
        </mxCell>
        <mxCell id="73" value="carro, 3" style="rounded=1;whiteSpace=wrap;html=1;fillColor=default;" parent="1" vertex="1">
          <mxGeometry x="825" y="292.5" width="120" height="60" as="geometry" />
        </mxCell>
        <mxCell id="85" style="edgeStyle=none;html=1;exitX=1;exitY=0.5;exitDx=0;exitDy=0;entryX=0;entryY=0.75;entryDx=0;entryDy=0;flowAnimation=1;" parent="1" source="74" target="81" edge="1">
          <mxGeometry relative="1" as="geometry" />
        </mxCell>
        <mxCell id="74" value="gato, 2" style="rounded=1;whiteSpace=wrap;html=1;fillColor=default;" parent="1" vertex="1">
          <mxGeometry x="825" y="412.5" width="120" height="60" as="geometry" />
        </mxCell>
        <mxCell id="86" style="edgeStyle=none;html=1;exitX=1;exitY=0;exitDx=0;exitDy=0;entryX=0;entryY=1;entryDx=0;entryDy=0;flowAnimation=1;" parent="1" source="75" target="81" edge="1">
          <mxGeometry relative="1" as="geometry" />
        </mxCell>
        <mxCell id="75" value="rato, 2" style="rounded=1;whiteSpace=wrap;html=1;fillColor=default;" parent="1" vertex="1">
          <mxGeometry x="825" y="534" width="120" height="60" as="geometry" />
        </mxCell>
        <mxCell id="81" value="carro, 3&lt;br&gt;gato, 2,&lt;br&gt;cachorro, 2&lt;br&gt;rato, 2" style="rounded=0;whiteSpace=wrap;html=1;fillColor=default;" parent="1" vertex="1">
          <mxGeometry x="989" y="304.5" width="120" height="150" as="geometry" />
        </mxCell>
        <mxCell id="87" value="Final Dataset&lt;br&gt;(conjunto de dados final)" style="text;whiteSpace=wrap;html=1;align=center;fontStyle=0" parent="1" vertex="1">
          <mxGeometry x="979" y="150" width="140" height="50" as="geometry" />
        </mxCell>
        <mxCell id="JQgDCCNwMIG9S4dM9NM9-90" value="" style="shape=image;aspect=fixed;image=data:image/png,iVBORw0KGgoAAAANSUhEUgAAAfQAAAH0CAYAAADL1t+KAAAACXBIWXMAAA7EAAAOxAGVKw4bAAAAPHRFWHRDb21tZW50AHhyOmQ6REFFOS1UNkpXMVU6MTUwLGo6NTUyMTA0MzgyMDM2OTg4MjI4LHQ6MjMxMjI1MTi9zL1iAAAE9GlUWHRYTUw6Y29tLmFkb2JlLnhtcAAAAAAAPHg6eG1wbWV0YSB4bWxuczp4PSdhZG9iZTpuczptZXRhLyc+CiAgICAgICAgPHJkZjpSREYgeG1sbnM6cmRmPSdodHRwOi8vd3d3LnczLm9yZy8xOTk5LzAyLzIyLXJkZi1zeW50YXgtbnMjJz4KCiAgICAgICAgPHJkZjpEZXNjcmlwdGlvbiByZGY6YWJvdXQ9JycKICAgICAgICB4bWxuczpkYz0naHR0cDovL3B1cmwub3JnL2RjL2VsZW1lbnRzLzEuMS8nPgogICAgICAgIDxkYzp0aXRsZT4KICAgICAgICA8cmRmOkFsdD4KICAgICAgICA8cmRmOmxpIHhtbDpsYW5nPSd4LWRlZmF1bHQnPkxvZ290aXBvIC0gVjIgLSBsb2dvX2JyYW5jbzwvcmRmOmxpPgogICAgICAgIDwvcmRmOkFsdD4KICAgICAgICA8L2RjOnRpdGxlPgogICAgICAgIDwvcmRmOkRlc2NyaXB0aW9uPgoKICAgICAgICA8cmRmOkRlc2NyaXB0aW9uIHJkZjphYm91dD0nJwogICAgICAgIHhtbG5zOkF0dHJpYj0naHR0cDovL25zLmF0dHJpYnV0aW9uLmNvbS9hZHMvMS4wLyc+CiAgICAgICAgPEF0dHJpYjpBZHM+CiAgICAgICAgPHJkZjpTZXE+CiAgICAgICAgPHJkZjpsaSByZGY6cGFyc2VUeXBlPSdSZXNvdXJjZSc+CiAgICAgICAgPEF0dHJpYjpDcmVhdGVkPjIwMjMtMTItMjU8L0F0dHJpYjpDcmVhdGVkPgogICAgICAgIDxBdHRyaWI6RXh0SWQ+NWRiOGQ3NTUtYTY4Zi00ZWQ3LWI1YjgtOGZjMjc4MTQyNTc2PC9BdHRyaWI6RXh0SWQ+CiAgICAgICAgPEF0dHJpYjpGYklkPjUyNTI2NTkxNDE3OTU4MDwvQXR0cmliOkZiSWQ+CiAgICAgICAgPEF0dHJpYjpUb3VjaFR5cGU+MjwvQXR0cmliOlRvdWNoVHlwZT4KICAgICAgICA8L3JkZjpsaT4KICAgICAgICA8L3JkZjpTZXE+CiAgICAgICAgPC9BdHRyaWI6QWRzPgogICAgICAgIDwvcmRmOkRlc2NyaXB0aW9uPgoKICAgICAgICA8cmRmOkRlc2NyaXB0aW9uIHJkZjphYm91dD0nJwogICAgICAgIHhtbG5zOnBkZj0naHR0cDovL25zLmFkb2JlLmNvbS9wZGYvMS4zLyc+CiAgICAgICAgPHBkZjpBdXRob3I+VW5yYXZlbGluZ0NvZGU8L3BkZjpBdXRob3I+CiAgICAgICAgPC9yZGY6RGVzY3JpcHRpb24+CgogICAgICAgIDxyZGY6RGVzY3JpcHRpb24gcmRmOmFib3V0PScnCiAgICAgICAgeG1sbnM6eG1wPSdodHRwOi8vbnMuYWRvYmUuY29tL3hhcC8xLjAvJz4KICAgICAgICA8eG1wOkNyZWF0b3JUb29sPkNhbnZhPC94bXA6Q3JlYXRvclRvb2w+CiAgICAgICAgPC9yZGY6RGVzY3JpcHRpb24+CiAgICAgICAgCiAgICAgICAgPC9yZGY6UkRGPgogICAgICAgIDwveDp4bXBtZXRhPmeDH90AATeuSURBVHic7J13nJxXee+/5y3TZ4t6s6rlJtuycW+yccGAwcRUFwgEsE1CIJDk5iYhIQQuN8kluSEQ7qX3C6FjsCnulnuRLcuyulbaXW1v02feds7948wWyZKLvF3n648+kkfanfPOzry/8/zOU4RSSmEwGAwGg2FGY031AgwGg8FgMLx6jKAbDAaDwTALMIJuMBgMBsMswAi6wWAwGAyzACPoBoPBYDDMAoygGwwGg8EwCzCCbjAYDAbDLMAIusFgMBgMswAj6AaDwWAwzAKMoBsMBoPBMAswgm4wGAwGwyzACLrBYDAYDLMAI+gGg8FgMMwCjKAbDAaDwTALMIJuMBgMBsMswAi6wWAwGAyzACPoBoPBYDDMAoygGwwGg8EwCzCCbjAYDAbDLMAIusFgMBgMswAj6AaDwWAwzAKMoBsMBoPBMAswgm4wGAwGwyzACLrBYDAYDLMAI+gGg8FgMMwCjKAbDAaDwTALMIJuMBgMBsMswAi6wWAwGAyzACPoBoPBYDDMAoygGwwGg8EwCzCCbjAYDAbDLMAIusFgMBgMswAj6AaDwWAwzAKMoBsMBoPBMAswgm4wGAwGwyzACLrBYDAYDLMAI+gGg8FgMMwCnKlegMFgmFrCAPLd4FchmYXGRSDEVK/KYDC8UoygGwzHCOUh6NoNnbugbQvkukBK/XdKAaou5EL/OZ6BucfB0pNg0fH691hyCi/AYDC8KEIppaZ6EQaDYWIo9MG2B2D7Rsj3aq2WEpSsi3gdpUAphQCENRqeC0v/siyQESw9GU6+BNaeD4nMpF+OwWB4EYygGwyzkLbn4OnfQMc2baXLSD8uI0UUKsJQEoX6o68UBJ4kCiVCgBu3sR0t6pYtsG2B7QgcxxoR+EQWVp0JZ70Z5q+Yqqs0GAxjMYJuMEwihX7o3AGtW6CSh9KAjpxlNHpuraQWzIb5sGgNLFqr7e7svJf+/p074OEf6d+jQIt1GEgCXxJ4kmo5xKuEVEoh0ktiizigUCpCoW8FQtgILKQKkE6JRNImmXZIpBwSaQcnJnBdC8sROC6ceDFc+C7Izp24181gMLw0RtANhglERtD6LGx/EA48D9Vi3d6Wo+fWh34C60fYCDFqeYMWzBWnwymXwZITD/6aYj888hPY9Qj4leGoO8KrRRQHffIDPnY4h0jVkEQoFSCJ6s90ZAQ2lnAQOFjCJZBFsnNtso0x0o0OTszCdS3iGTjnD+A1bwQn9vJfn1pJr72cH03ME5bejAx26nP/+SsgM2f0NUtkoWmRfp45SyGeevnPZzDMZoygGwwTQKEPtm2E7Q9ArhtQowloMlKEgURGOiaWkTqsqAtbYFkCxxFYjv6zZeu/b14Cp10Bp10Je56ER36kBRHAq0ZUiiFDvTXKhQiHFKGqoQhHvrv+b3i3oOqPDct7fTEKFBKQo9E7Aksk9L92qzTNS9A0L04iZePEBKkmmHec3nAcdyosPgHseuptOaePArp269dkoE27FEIMn+Fz0P5i+DEhDsm6H/P/Qmhhb1oMC1dpoV+4BhafOPq8BsOxghF0g2EcqRbhyV/C8/dDrTCagBb4EWGgCLyIWiWiUgrxqqEWLT+BLRKMqpnQdrddIha3SWYcEimbRErb3Y5r4cQsbBssR7sAUaCt9XIxpL+jileMoYiQyquLscDCBqGt9GQWMnMsklmBkjrpzU0IZKQIPL2K0FdUCorSkIQwgSKqW/N6Z2LhYIk4yq4wb3GSpvlx4gkbYevvJyxw4jBvuRbuQu/B7oQazrCXOiFPSqUfq+8slFJEkUIIMXKmP4xlCe1eCDEi+Pr/6yKf0OK+9CQ4bh0sPw3cxMT//A2GqcQIusEwDigFz90NT942GpFHgcT3tMgWBz3KhRCXZqTykQR1cQR1BOtboM+yLeFi4SAJsRMemSaXbFOMRMrGjVsIBOViwGBPjXxfhMAhUrXR7yEslAiYu8SmebHFnCUWS0+0Wf0ahyVrHWSocGKChvkWQU1R6NdKWxpStG8PaXkmpGNHRLWkGOyIqBUdUGrEshc42CKGlaixcFmaRNrWzoJrYTtiJAIHiCJFFGp3Qsr6a1STRJEk8BVRIEcEPQwkvhdh2xaJtD3yPYQAN2Zr58IWxFM2QoBlW9i2djFsxzroyMKJabfghPNh7QWQSE/0O8JgmHyMoBsMr5LeffDwD3WiWxRAFCqqpZDCoEd+0McKmghVGamCkeiWYcu7bnVrH7n+V4p6VK3Qdnf9wXqUbYsEkpBENqRpfgIhoKetAkGGQBXRIqsP3pONirlLbVacanP2NXFOe23sFZ1xj6V7r+TJOzy23u/Tuz8i3ytRoYskAMDCxRIuyqmSSNqkMi7JjEMsqQU38CTVUki1HOJXI3xfElNziFRQv85Ra5/69SsV6esWzhj/gvr16c0MwiJQORIph1jCwo3bpOrPO5yhbzsWlj3sRMC8FXDihboEL27E3TBLMIJuMLwKdj0KD/8XDHXos/BqOSTX5zPQXcMhQ6iqI2fXAqseMQsi5ZNpFsSS2jpOZgTC0uIeRdrqlhGU84rIA0u4yBG7uy7uwsUmgQACVa5H+gKBjROPWL5Oi/hZb4ixcLU9rte96bc+T//WY8t9AaV+B6XCkc2KTqSzEbgILEJRxHGsMUl5Yd2diMZscIYRI1ucIzG62Rn7VcOvrT3ibIQUSaQdkhmHVMYhmXZwXO0cWHb9dW+AVa+B06+CxWvH8QUyGKYAI+iGY5bSIBQH6k1TJDTMg3Tzy//6p34Fj/8MvBJ4tYjCoE9fRxURZAlUsS5W9bNrINEY0bzQIt2kbe9VZzrMWWLhxASLVtu4cW0n10qKAzsiAk+xf0vIULekv02S75PkeyUWMeQYAR1GYKGQLF5rc9prY1z1R0kWrJrYcQ2P/szjzq9X6dwdEZTjI2fsoxuP0Wh6NClvWIC1Q4EQI2vH8nHj4gVJgmMJPIWldM6BQo5J3qtH9WOeV28uXAQ2oSjS0Bwj0xgjlXWwHYEbs7BdAQqWnAQXvAOWnz5BL5bBMMEYQTfMaqJQR88dO6B7D3Rs10Iu7HpS1th3v9CPzT0OGhfC3GU6mWpspvYwT/0KHvspeGUoFwJ62ytU8279fDxkWMiVFTJnicWi1TbrNsQ448oYS0965dFycUCx5V6PZ+/x6dwpGaifZSuls9DBwnIj1m2Ice3Hkqw9xz36F+0VUikofvflKk/e7iEjqA4n0kWJ+jGD7mqj8wH0muMNEekGgZsQxFOCZFZgOTB3iUVmjnVEQVcSigOS/naJklAtKmSkKOcVQU1RqyidwDfiZsiDBN4SMSwcQkpkGl0a5sZJNzi49URDYelSuDPfCCdvADc+SS+iwTAOGEE3zEq6dsOm23XP8qA2mlUto4OOqpFy9O0v0NnTjMmaRuiBJctOgXWXwcoz9fd99Mc6ks71+/S2l5G1dP38WlvOIJm3wuL4sx0uuC7O+iuP8uD6MAx1SR78UY1n7/bpbpFUC5J0k8WZV8e48R/TJDJTM1llqEsy2Ck5sDOk5emQPU+F9LVK/KqOoBMZwaI1No3zLdac5bD8FIfGBRbzl1tk5x6dk9CzLyKoKfZtCSn0SfraJO3Phzo7P6eo5CQydOtRfDRi1w+Lu8ACt0bT3DjZ5hjJtI0T1wl1c5bCeW+FEy9ipFzQYJjOGEE3zBoqedj1GGy5EwYP1AW8XiIl69nVUb31qRD6sVol0jXNSvcwjyVtLGs0S3o4U9uydImYZeuoP/RgqK9Gx94SFnEi5TF8/ptqVKw5y+V1tyQ57bKJi5SrJcXDP67Rvi1k5XqXi9+ZmFYR5f7N8I2PlencaSGtMuuvjPMnX84QS078hqNta0jL5pDW50K690b0t0sKAxKvJBDi0DN/B0ckCFWFxvkuzfMTxJMWbsJGoFvcXnwTLFg14cs2GF4VpvWCYVbw3N26/jvXU29GosDzIgJP4lUlXjWkWgqpVSKcaM5IqZhUB3vulrAJVRk3GWI7QmdqZ10SSWuk/lupUTEXyiHCq58BK5adYnHpTQku/8ME9gS73smM4Mr3T9/xZx07JdWSQiBwY4K15ziTIuYAy091WH7q6O1t+8MBOx7xad0a0bMvItetqBXdkfK7QJUAQanfptjvkchGzFmUINPgsn+zxYFtcNpVcP7bdCKdwTAdMYJumNEc2AYP/T/o3KmFPAoVgR9RLUfk+z2KQxEuWSQShYVUkpD+I39DBSBQFQeEwC9aDHVF4BbJNmlbNgolnS1lhNK14QILy5Gs2xDjLX+R4vizzMcKtJMhI21xW46gYd7EJui9GCdf5HLyRXqH1bVX8uSva2y9P6CvTZLvVRDpRMNQVQBBrRins+iRbKgxb0mSdIPL07cL9j8Dl38AVqyfsksxGI6IsdwNM5LQ1+ViW+7SvcuRiko5pDDokx/0EbVmAlWqW+GjFcxipHZZjHlMjJZCjakBPzhT29bNU4ihUISqhEIisHDiigvfFufGT9fPr3VV2THPA9+T/Px/lSj1u8SyVd7zP9Nc+PZpdCYAPHWHz+a7fFqeDuhrl0S12Jh+AaJuxVeZuyjBnIUJ4imbWEJw1pt173rTR94wnTChhGHGMdQFD34f9j4JKtK9ywuDPv2dVUTQQKhCZD0K1wLu6EQ3JyDdqEhmIJYCJRW2I0hkBF5VEfq69WitpPAqUM4pLEZLsUJVBapjViKwHMVpr43z3s9lsO2Rhw1AX6uiWoxQWLhxwcJV0y+z7OxrYpx9TYyBA5I7v1Hl2bt9Bg4oolocqXxCVUVgke+xyA/kWbAsTeO8GE/83KJnL1z+fmheOtVXYTBojKAbZhRtz8HG7+rubGGgKOZ8BrpqRKVGQumhyKFlXL+1Y+mIuUslDfMtFq6Ks3K9y5LjbeYus5GRIpHRVnCloCgNSkIfuvZG9LdFtGwO6GmJKOcUg10KGcSQyq+vRGfSpbMx4k6G/U/DmnOm6lWZpqh661UEtgvZudN3pzN3mcUN/5DmdR9IamG/06evffRnHqoKVuDQvd+nmPNZvCLFvmccfvKPcOWtsPqsqb4Cg8FY7oYZxN6ntJjnOqFWkwz21Og/ECCwD+pdrpDMWSKYt8zmpAsdLnxbgsVrjy46jELY+VjAb7/ksfPxQI8mJdLlTpakoSnG4lVpEhmbDe/W9cumxEnzo09G3PXtPDKI0bQk4BO/amTu0qk7R38l9LVKbv9ihS33+gx16o3IcCc+W8QRrs/iFWka58ZINgouuUlPvzM/e8NUYiJ0w4xgrJiXiiF9B6qUBy2UipAEI93IUk0Ra892uew9CU69LPaqy7hsB0652KX1aZdil8eBnYKAAgiJkC6FwRAZlVi2NsMD39V3cyPqelRqcUjpdq/kiSXEjBFzgPkrLP7oXzNsfyjgts9XaH0upJZ3kEREqoYVxGjfU6RaSrJgWZJ7v24RBXDmG0bn1xsMk40RdMO0p28/PHUb5LugkAvo2lcmqqQIVQGo9w53I1afaXPeW9Jc9YHxnZPZs1cPJskPeChs4knByvUOPS0RxV6XUj6gfVeJpcdneOB7RtSB+vjTYTdDYLsz0wg8+WKXEy9o5HdfrvLgj2p07tLvN6l8BBZD3RHVcpFlx2fY+G2bWkkny02nfgCGYwezlzRMa6JAi3n3DsgP+nTsLRJU4viqwPAgkmSD5NIbE/zlDxrGXcwB2p+H3n2S3IDOfm6cb3HTZzK88+/SxLM+lnCpFi1ans9TGgp44HvwzG90V7pjldCHWkmilEQqiRufvufnL4Vlwxs/nOSWL2ZZf4VDLCWxRAyFJFIB1aJi/44ChVzAYz+F5+4anfVuMEwmRtAN05onfgk7H4ViIaCjpURUSxCqMsOp5POWK679eJL3/ktmwlqe9uyFSi7CpRGpAuYtt1hxqs0Fb4tzw6cyxLM6US7ybdp3FykNBWwcFvVj9Mbe367I9+pWq8IOWbBy5tsVq9Y7fOSbjVz1wSSZuWE98VIhVUhQ1T/74lDAA9+FZ357bG/oDFODEXTDtGXHQ7D1HvBKEd2tFWQtNdL4QwBLTrC48TMZ3vDHE1cM3LMXevdLCkMekfJJZBVn1PuyWxZc/K44N346Q2aengkeeqM39o3fg2fuODZFfXjwjQCEEMQSMzdCH4sbh3f8bYr3/nOG+asUtogBAql8Ii9G644C+QGf+78NW++b6tUajjWMoBumJbWSnjVe6lP0d3v4hYaR9pwAi0+weMffpnjN1bEXHbX5ajlwkN0ekW6yOPWy0UErlg2XXB/nli9mmb9SNyM5nKgfaxasVwWvVm/OI2bfmfLZb4rxwc9nWbBGtxAWCCJVQ4U2HXvLlHMBj/xQDwcyGCYLI+iGacn2jXq4x2CfT1+HhycHGRbzRWvqYv76uO7bPoHBX/chdvuClRZLT3yhfXzqZS43/0eWeSt0adNYUX/w+/DQD/Wo1WOFwQOK0pC23N24YNnJsy//9oTzHD76zYZ6S1ndcVASEnoWbbuLDLSHPPFLGDgw1Ss1HCvMvk+ZYVrilaHYD35Nd3qr5g9f3iMs8Kuw82EoDYR07S8jlD1S+92wAK79s8kR84PtdodEVr3oGNS15zrc8oUsX/1okf5We0TUjzs+y6ZfutSKcNENkGqcuDVPF0ab7eqfkTv+uYrTgiUn2Hzw81m+9mcFdj6ibRipAkIvRuvuIm6sgXnLbS66Yfa5FIbphxF0w7gTVKFjp55J3t8KPS1awBGjc8mVOnKHVAWEnmKw10MEWST5es90yQXXJbnonfrOOJFiDnrwy7DdLhCkmyxOu+zF55ofVtT3FDlubZatd+vhIMeCqFdy4NckCoVlQTw9O87QD8e84yxu/o8GvvqRAnsed4hUDakCvCq07S3j3JHlubsFyQZoXAjZubBgte4s2Dh/qldvmE0YQTe8apSCju2w+zE4sB2KfbpsSUrda13KeqNUBVKp+pzyIx98CwHVUshAdw1VnzOukKw5y+UtfzF50zC694za7b4qsGCFfVi7/VDWnutw8xeyfG1Y1GsWrTuLLF2ZZuvdejMy20W9NKQIPC3oibRgzZkzP8v9xZh3nMX7Ppflf99YYKB9eAqfTTkf0NlSYcnKNH4VCn36/b3jIXjkv2DN2XDuW2Husqm+AsNswAi64agIPGh5CrY/qIXPr+gynUjnCCGlIgoVMlL6z4HCq0UoqQgDhe9FR47QFXjVEKFiSDwENs1LFNf8aYpUw+REej0th7Hbr3rx6HwsJwyL+keK9LfZqMCmfW8JGSm23q3959ks6tqFGZ5ap/sJzHaWrLX5wOcz/J9bipQGXN3BULoM9XrEkzaJtIMQYFkCyxLYjmD7g4Ldj8F5b4dz3nKMNyMyvGqMoBteEf3tsOVO2PMEVPJaxIdLlIJAEoWSKFBUyxHVUoBXi/AqEa6aQ6R0FrhCovTp6hGeRaGUhURH51gRa8+Jc/rl7qRd59jsdoEg3fjSdvuhnHCuw81fzPL1PyvSsz/ClnE69uvMuNku6l5F4XsSG4llQSI7ey33scxb5rLmjBTP3FtCKIEkQAU2vXstFCHSKeO6FrGETarBJdPokkjYPPojwaZfw/xVsHwdHLcOFq01Am94ZRhBN7wsdjwET/4SBju0gEehHj8a+JIwkNQqEaWcT7kQooI4AheJhUKhlKTGwCHfUdSryQ9F1WO64X9lkW2Gy94zuVlV3Xugkh+12+evfHl2+6GccK7DH385y48/U2b7QwGWjGlRF7NX1Ms58EoQF3MJVJFEVtA4f/YX1LQ9Bw98B4JSnOZ5AYV+i0hVUUT1zoYgAhs/sAiqFtUhQZ+dZ87CBE3z4yRDh/bnoGMbPPZTyM6DkzfAqZfrc3eD4aUwgm44ItUibHsAnrtHD0WRdTs9CCR+TVIuBBQGPcrFiBiNRIRIJVDUGJ4broemDI8zFfVMNgVWgHNIwDu8UaCeNKeRJLMOS9dOXnTeW7fb84Pabo+nFadf/sqi87GsWu/oTOiPFtnxSF3U9+lI/bm7EoQ+XPJuyMwZryuYenSOhD5WORZq8B//GTx9x7BrpYinrPp7fxgx8v+KCKkCPbsttMl12uT6CyxemSaetLFtgeNYDHUKHv+Z/t4r1+uN3/yVU3F1hpmCEXTDC6iV4Nnfw9Z7dRKPlECkqNUkXjWiMOiT7/dwVAMhAUJF+OQALd0CGyEsUJJYJiKeglgC4ilw44p4WjBnSZyGedZBN/vWLdDbIhnqq1vt6Hjdr+pSt8aFk3P9w73b8wP64DfVIFh7zqv7qMxdZnHzF7J89aMFdh4i6tseSJDvhcs/CAtWvtrVTz25bsj3SpQSSBWRSM/e6Lw0CA98F3Y/qjejfiWkr7tKrlsQqcrIv7MsRbpZYTsQ1BSVvBZ8SUSgSlieQ9cuCEWOdNYlmXFIZV2SaRs3btGySXBgG6w5F869ziTRGQ6PEXTDQex4GJ74OfS36chKRgq/FlEuhPR3VxG1ZkIVoJTAJw9oEbdwUCjimYh0oyTVAI0LBKvPTLJwlc3cpRaL1tg0LbIOW26250moDkJtyKPUF8enUN8cOFQLkn2bJSvPmBxhGLbbHRoJVJHmJRZrz3n1DsHcZRa3fKHhhaKuQKg493xNcOXNMz8KqxYVXkUCNpYjWXrS0bsb05m25/RI394W7Uj4pYCuzgq1wTRSFRBC1cszbRJZxRv+JMncpRYDHZLtD/l07o4Y7FCgLCQhUhURyqJasPAKNkMEuKkKTfPjpBtcwsBm+0bB/md0Zvz6q8GZPOPKMAMwgm4AoHs3PPIjXXYW1LSQ1yoRhUGPXJ+HCBoJpIekHxg2EF0UknSzJNMsmbPEYu25SVaf6bDmNQ7ZuS9fgPc+AQP7I7rbK4TKwrJ0NB9UFVGk2PW4z/lvS5DMTtQroOltgd5WbbdLZePEJSecO34dQQ4VdSFdOvaViSKJlEnungWirlS9ZHE4F2JmTk59UZ76FTz5C6gUIAok+X6PztYylkwSqQJzjxM4jkPvPv3v4wnJ2W+Is3C1/kxc8+Ek2x8K+PUXKux8LEAFcZSK6hPcfKJ6QqgsOwxUHLpUjnmLkzQvjBP6Nvd/S9C1Ezb8ITSYWnZDHSPoxzheGR75CWy7T/9ZSqhVQnJ9HkO9NaywgUAFKIYAHW0IBFYsZM4SyfzlFuuvSLDu0hjLTjq6lNyt9+oIvZALULVGJIMsXm1z3Mkxnr5dEAYVWp4NyHVNvKC3P69t/2G7vWmuxdlvGt8WX9p+b+BrHy2w85EQoRw691fwPQkiPeNFfahDURiIUOgs7ezc2ZPhXivrxLftD4xa7P09VXJdDiiXkCorT3d444eT7H/a4Z6vQSBLKAWBd/DO5uSLXZacmOX2L1TY9mCIV1FUCopaSaGiGEpFSEJ8pRsr5bphqC/P3EUJmucn2PmwTX+bPqpZftoUvSCGaYUR9GOYPU/oqLy/VUdVfi2imAvo76qialki6ROO2Op6VGR6jmTeUpvVZyXYcH2CVWe8urdQrQQtm6DcH9HXWSVUAcmsYMMNCZavc9l0ew2LOLmekFwPLD5hHC78RehrPcRuXyw4/qzx9zXnHSTqERYuA901dDib4Z6vCa6YoaJeq0AY6sJEJyZYvHZ21F517YL7vwNdO0Aq8Io+XR0VvKE0kSphORFnXh7jbX+d4rhTHPY8FvBS4zIa51vc9JkMYQB7ngzY92zIge0hLc+ElHKKYr9CKFf3iFdVRGgz0KHIDxZYtDyNUi6/+6Lgqg/BqtdMzutgmL4YQT8G8Sqw8Xuw7f56R7dQUS4G9HVUqRUcpLKQI0luDiBpWCBZstbm7GsSXHBdgnTz+ERdux+H9ucVhSFfR+cqx6I1Npe/L0GxX5Ke41MejCEjxXP3BZx4gYs1Qe/awQ7o2y8pjLXbz5m4Btzzllnc8sUGvvnnRXY+FhL5MQa6hxMC0zNX1JUuaZxNTvuzd+ps82I/qEiR7/c40FJCqCRSFUk3K86/LsFN/yODdRSpHo4LJ13octKFevOY75M8e7fPM7/3ad0aMtSlINId6CIVQTVO284CC5alUDLBXV+2jKgbjKAfa3Tv0ZZhxzYdlVcrIUO9HgNdARYOkRouN7MBRcN8ydKTbC69McH5142vuNVKsO9pKPZEdLVVkNInnlGc86Y4ibTArwiOOyXGzodswkCx5ymf4oA7Ydnu3Xugr103k4GJsdsPZe5Siz/7TgM/+GSZjT+oQRSrR+owIuq3wPwVE7qMcWWoW1EtRigsHBfmLp65We4jFvtG3e0urEX091YZ6nBBukTUWHqixZXvT3H5e8evV0LjfIsNNyTYcEOCnY8F3P2tGtsfCigN6IZMkdIdFPvafarlkGUyw11ftrjyQ7DaiPoxixH0Y4jn7oHHflIvRQsV+SGf3vYKqpZFqRoRYb3ZiyDZKFl5usOGGxNcMM5CPszux6HtOcVQv4cVZgkpctwpDpe9W98Y080Wp1/usushXQPfsz+c0PK1jm1Q6pO4NOGrAs2LBMefPfFpxLGE4Pp/SAO8UNRVmtv/TXD5B2DF+glfyrgQVKknwgliCcH8FTNT0Ptb4b5vQftWnVvilwK6u8rUBrKEsoDlRJx6kct1/y3N8We/+K1UCI7aWTrxfJcTz3d55Kce93y7yr7NISrU0TpYFAcVbVERIbI8/AOLdCMsXHN0z2WY2RhBPwaQkY4ynv29TuTxqhEDXVXyPS6RHGuv2wg7YtnJNhe/M87VtyQnbE3D0XmpL6K/u4YkIjtXcOUfJUg3aTvfdmDdpQ4/soawZZxaMZyw8rXBDujZJykM+UR1u33tOGa3vxSJ9IuIukjz+y8JrrwVVp81aUt6VejGMnqknmXPvKS4bQ/ozW+uS1d85Ac8utvLSC9JqHJkmuGcNyd419+nSWaF3sC8yGVaDjiv8m574dvjnHKJy08+W+aZO32q+RhS+QgE5byidWcRyPLQDy1e+0cwZ+mrez7DzMMI+iwn1w33f0snnikJpUJAT1uFsJQhkMOZ61ogGxcq1m2Ic+3HUixaM7GJTC+IzlWRZSc5L7D1U42CJce7dO+ydPnaExNTvta9B/rbFflBH0WMhrkW50yw3X4oRxR1pVAyzV1fsbhqmot6JQ/5PoX04ygi3LhgztKZE6FHITz0A9hylx44FHoRvZ1V8t0ukXSQVFm0xuLqW5IHW+wvtWcRIMZhY9O0UDcouv97NX76TxXKg8OT3aCcj2jdVcS2smw/3uLc68wM9mMNI+izmHwP3PdN2P80RKEiN+DRta+MiJKEalTMnbhk1RkuV34gwXnXTvwd4EjR+aXvfuEZZKZJcMJ5MXp22YRBlZbNE1O+1rENCj0RVtBMoHKTZrcfygtEPXQZ6A4I/BJLZGbai7qst+21RRKpSjixiZ9bP170t8J934a2LfoagkpAb3eFcm+WUOYQtuTEc1yu/XiKUy99Be8NAbYjXlFfhpfisvckaF5s8b2/KTNwwEWqoB6pBxxoKfPkrzIsOUGYJLljDCPos5R8L9z7DS3mfk3S311jqNNBSgtFheHhKA0L4Ly3JLjuL9OkGifnzntodB7Vo/PDndXH04JTLnF44HvehJWvjbXbQxVNut1+KGNF/YEf1BChS2EwQkbaUp3Ooi4ERIFCoUfw2c7MUPNtD+iBKLlOnaFfGPTo7agQllOEKkciqzj7mgRv/5sUTQutl7TYxyIQuDFIpMd3zeuvjBFLCr7yp0UK3XGdKKdshvp9YrurbLk7RfMSaFo0vs9rmL7MHC/M8LLZ9zTc9s+wbxPUKhEd+8oUOlMEsoAiGrHYj1tn8fa/SXHTZzKTJua18sHReUiNzFzBpTcdOUN4+akWqTk+IPQ88fsCZDh+axqx24d8FBHZKbDbDyWRFlz/yTSX3ZTASYYIYVPKRxzYVWSoS3L3V/QxynSje6+iry2sdz0LaJ7mGe6hD4/+WOeY5Doh8HU/hLZdVfyyS6BKzF8peNNHknzw8xkt5vCyxXyiOflCl/d8NoOT9OvtlyOEchnoqfH8PQHtz0/1Cg2TyfT+tBleMS1P62ERA21Qq0Z0tVaoDaWoyeGWrRbClpx+ucsH/yPDhhsmdyzp9o2w7+nR6FypgKUn2lzw1iMLaDIrWH5yDIEuX9v9lE/x0Gmsr4KO7XW73W9GqmDK7PZDSWQEN30mwzUfSZLIBljCHRH1wekq6lJH6QKBZQsaxtFmHm9yXfDbL8DjP6+PfC0HdLWVyLUndS295bH2HJf3/kuGN300NdXLPTwC1l8V451/l66fpQuk8gl96GytsOcJfZ2GY4Pp+2kzvGLyPfDMbyDfAeViSE+bFnOvnvwGgkRWcemNCT723QZWnOpMap/tXJfu2V7JHRydX3aYs/OxpJssTr/C1dOphsvXusdnTYMd0NMybLfX6nb79DmJcmLwlo+leNffp3HT/gtE/Z6vwvP31UfbTgP8mm5xOtxWZqKaAL1adj8Gt30Odj0KoacoDni07ilS6o3jyUESWcm518a5+T8y+rx8GnfJcVw4/7oYF74jji2GP0uCSjHksduqdO6e0uUZJhEj6LOEXLc+M2/bDPmhgLZdRcoDsbqYCwQ2mWZ444eTvO9zGezhG+0kWoc7H4XW5xS5VxCdw2j5WmQVsUWMWlFPXxsPhu32wjSy2w9FWLDhxgQ3/MMLRb2/Q3LXV2Dz76bH3PH+dkW+Xw8ZcVymXQ36sMV+91d1ElwU6PyS9r0l/HKMQJWZu0zw+luT3PwfWRaurld7TBOL/Uhkmi3e8KEkyTneiPWOjJPrrbF9oyLfM9UrNEwG0+vTZjgqohA23a7t10op5MDeElEtTqCKDN+J5ixVvP5DSa792NRYh7kuPW7SK4b0dtQIVfVlRefDDJevCXT52u7HfarFV7+uYbtdTDO7/VAs+/Ci3rGnSK0s2fhdeOa3Uy/qqh7JCsByBI3zps8tJtcFv/3iqMXuV0K628v07Zeo0EFZNVa/xub6T6X5g79M4cywqa9LT3B45ydSegdYt94DX7LpNzWe+hXj8nkxTG+mqSFmeCU89APdNMavRvQeqCJrKcK6mAtg4RqLt/9tinOumbrIc+dj0PqspL+rhqVShFQ47hTnJaPzYTJNghPOjdGzyxq38rWD7fapz25/KSybkZyHH36qTFCJUcz5tO0osnhVmo3f1R/nM99Qv6dPAUEVAk+iUAgBTnx6hLbtW3VuSc9e3Yu9WvDp6qwQ5PVglURWsf6KOG/9q9RoVD7DsF1Yd2mM5ad5tD8XI1IeKnIY6vPY/JsEQggueCckG6Z6pYaJYvpsnw1Hxbb79SjH0JN0t1WoDqYOiswXrtGZ7OdcEx+JniabXJeu7fXKEYN9AVJ5zFksXlEnunhacPIGB0mARZyhevnaq+EFdvuc6We3H4rlaFG/4VNp3JSO1Gsli7ZdBUpD4ZRH6kPdCr8mUUjiScHyU6ZeHJ/4Bdzx71rMo0DS11Vj364StbzOYm9ajLbYv5CdsWI+TPMii6tvSWDVYzWlFF5VN8fZ8nt48jY9nMkwOzGCPoPp2g2bfw/lQUV/d43igBg5MwdYsLIu5m/SYj5VDT521aPzga4aNkmUFbLmbIczrnplnuaKUy1SzeNXvnao3d40Te32Qxkr6rF0gFIRoWfTOkbUN0+RqI9uGgXCBmcK90elIZ3F/siPtMUeVEN62sv0t2mLPVI1jltn8ba/Ts1Ii/1wWDasOsOhYUkVixiKCBU69HVUGej2eOpXOgiYLkmUhvHFCPoMRYbaZu/dDQM9HoMHbCLlAdpob1ooePNHk1Mu5oeNzpdYXPG+V94nPpnR09dGytc2HX352lDnC7PbTzhv5pxAWQ5cckOCd/+PDPNWaBUdK+oPfHdqEuUiXxH6EpAISw+emQrat+peDNsegNDTs8s720oUuhNEysOOh5x+RYybv5DhkndNbunmRDNnicUb/jiFxEdgIwlQkUtHS4mhbo8nfq43s4bZhxH0GcqTv4KdD0MxH9DTXiaUFUAhsIlnFJe/N8GGG/WNaipbb+56DPYfEp2vPsPh5IteeSScbrZYP7Z8bd/Rl6917z64mUymWXDWG6a33X4otgOXXB/ng5/PMmepDrkOEvXvaFGfLCp5HQm7ai4KRTwppqSxzJa7dfJbzx6QoSTXW2X380VKAy6+KtCwAK78QIKPfaeB5esmt3RzMoinBBe8LcalN8URdqRFXfko6dKxv0R3i88Tv9Q5JIbZhRH0GUjXLtjzOHgl3TiGMKnLVBDYsYjz3hLnLX8+9Y0wjhSdX/5HRzfFzXZg3YaDy9f2H2X52oEdY5vJhGTnWaw4bfrb7YfjxAscbvliwwtEvTgUcu834N6vQ7Uw8etQqv6LSGe5T/JxtFeBO78M930Div0Q1EK6D1ToagEih0hVWb7O5h1/m+L6T6anpHRzssg0W9zwqQwXv2tY1C0t6oFNx74yux+J2Puk7r1vmD0YQZ+B7HgYOncq+ns8wlKWUOne7JalOOPKGH/4z5mpXiJw5Oj8lKOIzodJNR1cvrbrKMrXhjqhZ++w3V5F2CHL19nEp34PdNQcTtTbdhWoFEOe/Z0+R55oUa8WoJKXKKV/ObHJU8ru3fDLf4Ln7qpb7KWA9n0lCp1xIlUDO+DUy1xtsV8/uyz2I5HMCm74VIYL3hpHYAMCSYRXjejcX2bzndC1c6pXaRhPjKDPMFo26V/lQkBvuzfSBU4gWHS8zZs/lsKZBoFm1y7djcsrjU90PkymSbD23BgChzCQunztFdruXYfY7ekmi/VXziy7/XAMi3rzIaJeygeTIur5HkVhINJd4uyQRasn5/ay5W749b/BgW26JK3QX2PfrgLVoRiBKpBqklxyfYIPf3V2WuwvRqpBcO3HU6w+W2GLGMPHcsVcwN6ndGtYvzrVqzSMF0bQZxh7noDBNklfZxULF/0BtUg26pauK0+fHjes3Y9Dx3bJQM/4RecwOn1NjS1fe4WC3r1n1G5XKmLOYusVZ9xPV068wOHWYVFXEHkuLdsKDPV6Ey7qSjHy3hNC4MYn9vYiI0aOFAp9enZ5d1uZjj2CsOoQqiqL1lq89a/SvP/fMqQa6o7BLLTYX4xFq23e97ksqTkBFu7oAJdejydui3juHt2cyjDzMYI+g2jZBG1boTDkU83rshsQYEnWXeLy+g/Vo98pvmF17tJZxn41ZLB3THR+FJnth2PFaRbJseVr9wcvuwynOHCw3Y4dctw6m9gscmHHRuoKCbKe4TzBol4ahHKhnuEuIJacuDdifzv8/LN6dkHkg18K6GwtUehOEsoy2AEnX+zw/n/LcOX7Z9EP9yhZfLzNOz6Rqo+1FUQqIPAiOnZX2Phd+MVnoadlqldpeLUYQZ9B7HkcBtsiejqqKKW31ALBkuPtaTUNas/j0Pa8pLu9ik18NDq/eHzOAl5QvvaUT7H/5X1t9x4YODDaTGa22O2HctIFDrd+qYF5KyRS+SBjEy7qxUFFraLnoLsJweozJyYrbvuD8OvPQeuzenZ5vr9Gy84CpX4XX+ZJZBWXXJ/go99s4IRzp/dglcnCcWH9FTHWX2XjiCSgEMqllA/I9/u0PQc/+RRs/L4ecWyYmRhBnyH07ddRSTEXQK0RSYDAIp5WXPD2utU+DejcpXu2+5WQat4lUj7zltnjFp1DvXzt8qMrX+veA4OdEuHPmXV2+6GceL7Dx77TwAnnOUgVHFbUa+PZ37tuuQ/rZzTOzUtkCA9+H+75mi65inxJb0eVzj0WYU1b7POWw5s+mjymLfYj0bTQ4vW3JolERX92CAh8SVdrmXy/TzWveOo2+PEnYd/TU71aw9FgBH2GsO8ZaNuqo/NADodWgkVrbF77nukTYe55HNq3Sfq6qigUthuxboM7btE5HH762sspXysOQOcORTk/e+32Q1l6os0tX8yy9lzrBaK++Xd66lihb3yeq5RT1CoRILEsSGXHT0n72+EX/wRP/BJqJfArAZ1tRfIHkoSyBHbA2nMc3vsvWd70kenjVk03Vpzu8LqbkzgiPfJYUHHYv6NAZ2uJWjmit0Xx6/+tp9IFtSlcrOEVYwR9BhAF0LsPaoUQak1Iwnp0Ljn7mhiZ5unxYzwoOs+5KBUwf4XN628dv+h8mFSjYPGag8vXXira1L3b5azLbn8p5i+3ueU/sxx/iKjnej12PQy/+yL0t7365ykPQRToSeiJtGDV+vGx3Pc8Ab/5d2jdDESK0qBH6+7R2eXxjOKC6+J8+GtZTnutsdhfjFSD4Lxr40RWEQtHf36Uh8Ci0GOxd2uewV6PWkHyyI/hjs9jRq/OIKaHEhhelH2bddQ7NOgRqtEDrkXH27z2PdMnvByOzvvr0bnlhpx8ocviteN/lppp1tPXRsrXng1e0nbv3gMDHZKgHEepiOZZbLcfyvzlNrceRtSHemu0b1Xc87VxEHXFQanur3YYUBTAYz+Fu78Cfa11i72ryv6dFfyyS6DKzFkquObDSW75zyzNi+q3M2OxvyhLTrC54VNpFh6vcOKqnvmuCFUV6dt0tdRo312iVgrZ8wT89NN6U2WY/hhBnwHkuyHXI8n3ByO76VhSN5HJzJkeP8KuMdF5ZUx0/rqbxz86h3r52gYHRajL17pffPraiN2e8xFYYAcsn+V2+6EcKupKuhxoKdPXUeXAqxT10INKXuF5OinOdgXZuUe/kct312eX/2x0sEpHW5FcW1Kf01seq9bb3PDpNNd+3Fjsr4RkVvC6m5P8+fcbueT6OJn5EcP16ZIAqSLKOcG+7QXyAx5DHYo7Pq9nR0zVxEbDy2N6qIHhRRnsUJQHAxyyDNedZ+ZYnD2F880PZfdhovOTJig6H2bFqRbJZo+Dpq8dIRFrrN0uCbXdfsX0ef0mixFRP8fSlRLSobutQldrmQPPK+75+tGJulfV561xofu4x5KQOMqGhXuegNs+p2cVBDVtsR/YX6TUm6AmB4lnJGdfE+dD/yc7pWOBZzoLVlq8918yfOhLGdZtcEk2yHpHOYiUR+Q7tO8q0t1ewStL7vsWbLlzihdteFGMoE9zaiXoa5MM9HpESrd0UkjmHWdx3DSYNQ2689rhovOrJyg6HyaZFRx3ckyfAwaKPS9SvnZYu/11x4bdfijzl9vc+qUsa8/TToUgRn9Xja79ZR2pH4Wo2y5IpeozBUAcxZ1lxGL/qq7qkIGkv7NG2+4SlSE9u3zOUsHVNye45T+zLFqj3/9TOXxoNrBuQ4y//GEjf/AXKeatgOGgQSoflMVAZ8j+7UXKuYi7vwr3fWucqyMM44YR9GlO335tF3uVqD70wiKWUtPq7HfrPdC1YzSzfTKic9Dla6df7iKwiSLoagnJ977w35WHoH2ropI/du32Q5m/3OZPvtLAOW+OI2z/qES9rxWev093a7v936Bzl+7hLpWPbVuE/stfTzmnB6s89lMoD2qLvftAmb42iQxtlFVj1Xqb6z+Z5q3/PY07fd7+swLLhqtvTXLrf2Y56QIHJ6GwcFBIpAqpFS327yxQLYVsvkNnwBtRn35Mj+Jlw2Hxq7DjIejZJ3FUMx6DCBxSDYp1l0yPO1rLJmh/Hiql4cx2nwUTeHY+FtuB065w+PH/HMKWcWw35NGfSH71OQunnuwsgFMvh0VrJQ//0kfiHrN2+6E0L7J4/79miKfgoR95CKlFXZPm3q8LNrwXFq0Z/ZpaCbZthOfvhVy3Qildby5DRa0SAjaWBZW8xf/9gGLJCXDe2wTLTjnyOg5sg43f03kYKlLUij5dHRW8fJpIlXCTijOujPO2v06NROWGiWHtOQ4f/nojd3yhwoP/VaOSt1FERMpD1VxadxVZvjbLM79xQMAF74BEdqpXbRjGCPo0xo2DV1VUCyFyuDOcELgJWHH69Lix7XkCBloj+jqrKOx6dJ5gyQRH56DHZW65UzB/mctAm0Ox32frAz5z5icYGxw+eRsIR+LlkijlkW60WHfp9NgQTTWJjODGf9SH3YeKulRpbv9XwRW3wKoz9ZS/x3+qGOyCyFcIAWEgkUoSBpLAi5AoJBGhF+FXJPufFbRvg2Unw8U3ChYdf/DzP3UbbLpdt42VoWSg26Ovo4KK4kSqSMM8wQVvS/DOT6RxzI9sUmiYK7jhH9OsOsPhx58tM3jArkfqAVEtTsvzeZatzrD5Dr0pNqI+fTCCPg1p2aStzO690N8eUcwHyHotjlKS7DTJbG/ZpHu2F4YCgkIjUg2xaJKi8633whO/gKEugevECFWFuGNRKYUkUiFK6npohI7Sy/mAUFRAKIJKgrv+L1x0A8xfMeFLnfYks0cWdUukefB7gkd/DEOdimoJVCjx/IhaNaCU9wm8gEo5QkYSKUEJRamk6O+xSGdiODGL/Zttcj1w0TsFJ18KlbyOync+DKEPYS2iv6/KYLuFVA6SGstO1nkYG248hs9GppDzr4vTvNjm+58o0v68PlmPlIclY3TsKwGw+Y44ThzOeyvEJv5jb3gJjKBPE7wKbLlLC3mhTycIqQiqRUklB5HyEQiEJUk1xIhCbTlPJXuegP56dO4rHzsWceqlExudRyE89hN45rfgV0AGYNkW2Wab7Jw4fi3kwBZBqCKGC5Klk2feohRN82MEniSZdtj7FPS3MhJ9HuscVtS7ayipCMI0sZggihS1SkB+oMZgbwWCBkIV6FInGUA9PgdBtaTo2hMRqQGaF8aZsyBNFDrc/Q2bjh2CXDe0bgEkeJWArvYytaEMkSpgxySnXBjjnZ9IseI0c4uaSk483+Ej32jgKx8usneT7jEglY8VjYr6U7fFyc6F9VebBMWpxnxaphivrOc5b71Xd2SKAv144EnCUOLVIiKlJ4vpcFPRs1cPp7joBpi/cmrWPRydl/MBstqIUjmWnexw3X9Lv/QXHyVRqKO6zb/TQl6thOT7auQGfJIZm57WEkQJAtmDGtMuzIoculqLZJtjpBtilEsBdp9AhnF+9b8EV/8pnHTRhC17xjAi6goe+rGHiFwGuyO8WoHFa9JUigFd+4vgJ/FUhFRdrH6Ny/nXZlhxaiMNcxx8TzLUHfLc/RUe+cUAftEi3+sy1DPI3EUpFkQZnrvPhkggQ0lhwKdjXxlkgkjltcX+1iTv+vs0tp4ObBrFTDELVtrc8qUs3/hYkT2bImRgHyzqAh74Thwh4PSrjq7CwTA+GEGfQtq3wsP/pZOBZKQTgjxPUi2GDPbWKBcDXIaLefWdTVjgxixaNmlL/pw/gDNeP/nR+nB03ttZJVQB8Yzi7DfGSDdN3N1306+1iyF9RW7Ap6OliIgyhKpG4EEkQyQ5dKQ42rFMD7KxKeYsKjkbISyGeovMWxyycFmKjd+xSDXA8tMmbOkzhmRWcOOn9XvuwR95COlSyvvs3ZIjCgRSSSIGcJMR7/+XeWx4R9Nhb+DnXdPAdR8P+PpfdbP5zjy2iDPQXaNWiVi8Iks8bjHQW9Pns8pGUmPJCRav/1CSS8da7EbMpwULV9r8+fcb+d4nSjzyEw+kNSLqnfvKOK7g8Z/FaFhgHK+pxAj6FCAjePQnuvNStaBHQNaqEYUBn4HuGnbUQKAEQgkCSiNfp5DIwKKvo0osZhOGLhu/I2jfChddP3nR+qHRuVQ5Fq2e2Da02x7Qs6+DiqKvq0ZPWwWUhSSPUhFKRUj076ddFueMK1IjMbqo/3fbF4qU+n0EDhYOg10htXIRVIYnf2mTboa5yybsEmYMyazg8j/M0LJJ0Lm3hooEYaCQykPiI+yAj39zMWdc/uKZUHOXuPz5N5byr+87wJZ7PCwB1aJN684cqXSsnsVeRNiSk851eet/T3Hi+eM3xMcwviQygps+k0FJePSnEqW0/a4Ch46WMo5r8cTPHbLzYN5xU73aYxMj6JNMoQ/u/7burCYUeNWIXJ/HQHcNK8wQKUFIDgCBhcBGABKd5a6QhDWX/TsKzF+SZO7iBC1P2jpaf8vkROt7noD+tjHReVpx1hsnrg2tV4a9T0J1UNHXVWWgTeibCYEWcyIkIVIFvPFDDdz0d4twYi8M7e76bp5CP1hKoIQgUlAtJNjzfAHHbmT/mZYR9DqtWwSNc9IUByXFAUUoyyh0tcXrP5B9STEfxo1b3Prvi/nYBXsJKvo1V0GcUh6UypHM6I6HN346Q6pRGIt9mpNqELzjb9N07y3Q8rSo+2AhQc2ldWcRy2qg6Vc2F98I6eapXu2xhxH0SWT/s/DQ96GnRUflhVxAb3uFqJIlkh4heiyqbr+oSDYo0k2KZFZQHLDJdVMXrwBLOQx0Sgq5AktXpokil43fPfpovTwEux6F3v0w1AGFfoh8yM6H7FxoXgInXggDB2D/5kOi8zU2l//hxEXnuq0sDPZ79LRV62Ie1sVcC7mIBXzocwt57Q1zjvh9FGE9ardQKASSSNWIKoL9O0sseqiBZafAwtUTdikzgqFO6N0LQSWgOOQRKaXdIUKU5XPtn8w77NcVBnwSGYdY/OCN3ZxFLm/64yZ+/q95pLARKtSdwx3ByRemePdnk6NtYo2YT3uaF1vc+qUsX/nTIi2bJAqQKsSrKjr3lYndnaVxoeDsazGlhpOMSV+YJFqfhY3fgb59EPqS3s4arTtKeGUbTw7Vu8DZCCzScyRrzrZ500dT/Nm3G/jMPU1cfUsKRyQBgRCQaJAoFRFUHFq2Fehtr+BVIlqehJ/9f/bePE6uq7zz/p5z7629epXU2vfVtixLtuQV7zYYsxgwIYDBLMaBJIQkMBnCvLzJOxlCyEzyhiQTSBh2SEIMZglgjI2xbLxK1r5Lrd73tfaqu5wzf5yqXqSWLUvdrcX906dtqau67q3bdc/vPL/neX7P50xvb+C/8nl1HoEf/zV865Pw9Hfg4FboPAzZAShkzObj+Euw42fwH39mXnPFloCe9gK+zhFOTG10DsZ4JN3t096YBS1GyFzhE2iX6nmKP/vh4pclcwCtfbQu59dHDMCNzWUm5bHniTxdR6fsbVww6DoKXccDOlvzCBUZUUG0DrjsdVHq5p0si7/0RB/vXvcYv3/TU+QzJ3/wrn5ztfm9EaAxJCAtgQ4kw68wJW8G5x8allk8+A9JllwusYSpXhRYZFMeXa05tv/EbPxnML2YidCnAc27THX2QKtxVOvtKFAcSKJ1ngAzPU2jidcq5q2yufm+MDf81viI94o7bR76yyGk72CHAi65IUL38RJdjSWE5zDQqUgNpVk4Jlpv3wfXnaLXOtULz37PSNluAdAQ+IrA1wRaQ6BH1E9hCaQA27Z4+jtgRT0zl10P0bBsaqPzviboa9EM95eQQQKfFGg1Epmv2mzziX9ZwKwFrxwKqHKxnGmtqhTNCbOZ0iEGe0u07Imw9jr5mjbK6DoCqa6AYsrB19kyASsUAZffVD3hz/z4X5rRgaT9aJ4XHu3llnvnj3t8ybooc5ZI+lsCtDC/P6/kcGxngUx/+CTDmRmc/5i73OK+zyX4+w+myQ6EUNpFKJvBnhLRmM2exyLULzTq3gymBzOEPsUYaDNuWIOtkEl5dDRmCQoxPG2miAgEVkix+FKb2z4YOYnIK4gmBSs2hTi+zSYIfHKDgt/9Ug3/+fdZdj7mUspK/ILN8YOjufXGbRZdx+C6d5l2kgo6DpoNRudh0zfqlgJKpYDMYIlc2sMrKQLXwRYxAl1AhlwsR5KodogNmarnosoiLcG85SGiyamLzjuPQM/xgL6uIr6mTMimAO6m347xoS/MJRw9veMbIpflv+tx6q7WPp6n2fnLPNf9VuI1TeipXkVmsNIqaTY+htQD5q+a2DL3yPYMorycNO3LcMu9Jz9n2eUR+lpK5vegNUII3HzA0e0eqy7CYrjXwhS4lVfavO9zcb78exmEb6HwsYIQXS15Ik9ZzFvtsPmtM9L7dGGG0KcQbsG4mbXvg8ywIXO/EMbXGSq117FazdVviXDvp+PEa0+dQIzXCDbcHqJpG/g+tB9xyQ1HefB/J/nV1wo8/rUivc2mzWigU5EeMrl1FTj86ismt37Lh6C/DZ78ujFVCbyAbManvytPMeWUc2GqLGe7eGRNYV5RIkrg5SATzbFwRQLf1agA0p0Rnvl3uPodEJ6CsdTFHGSGAqygGo+BcnSu2XJ3lI9+cd6ERhYq0EhromupyjR+8kqrUUgVprvJo/2AWYCCMqcFHgx1mY6EqTLOkBYMdBgL1Knq4xXCDNQY7jGjTk98Lyow0VSpoEkNu6aAjfImSpvBK3MWnbwyF7I+2SGNLEuvA53ehMdfsDqEJg9jlBLfEzTucIGLh9C1glwKYieIGblhiNecm3OaKggJG+4Icc8nYzz8BTPKONAuypV0Nud58YdVzF4iWLnlXJ/pawMzhD6F2P4TOPiUWfDaR8g8T6Xyp24B3PGRGHd99JU9E52w4Mo3Ojz810NYQQi3EHDsxYCVWyzueCDKZTeH+N5f5Dj0jEcxK/FOiNaPPGONmNYMd0Eh59PbniPbbxGgCVR6RFo1kSyM9L4jQEsC7eLlJK2NaWY1xE2EVfR56achEnWw8a7JJ6O+FkVmwMUfw8EazfZfZNn/TJbLbhg/dPv5X3RTVe9wyeb6V30spQMCHx753x41s50R3teUfQLUy/74WUEIU58wlcdAlF/fmLmdBEsY0gmUQpbqUPQymprQgCJWdbILYCEbIIU9UsyZS0/8JhK1VpnIR6P+ILDoaQrwSmZ2wYWMnuNm8mDLHjO45pJbKnePpFTw+MrHNMlZsHAtrL8D5q++OCoAwzHBTfdFOL7TZ/djxnQGBPmsT1djgQNPxZi9BKobzvWZXvyYIfQpwtEXTO+0Xwrobs0TFKL4Oou5xWH2Msk7/muMa+45/VUsmhQs2xCieYeF73ns/nWJa94Ro24hzFtp8YmvV/HY1wo8/tUifS1jovXhNMvXJ1h4qU3nYUF20KXtWBY/F8VVwyNtX5oAO6RYd12E+gU2kbgg1RfQvM+l84iHFBYCCzcXpqfZjHKVoTyLViZ59nsh4rWmEn4y4RY12ZSH0qOLn8CQ39892MbnHllOwxJzDR/71w7+7g938ne/vOEMj2ZqCNL9PrGog1ajuwgzVcwMJBGVk5hkaAWqfEwhyhH0FMi2Spkui4rPfeWtaAmpPtNJUVSZsY+M/JkoveF7eqTFErRRNiZAJCahUpAozKtawiY7pOg8DHNXTo3KM9XoOATbfgSdh4y6EfgQD2mUCiioIaJJkLaNpRRDHZDqFhzbLli1RbP5reKiyDFXz5bc+5k47YdSDLRV8unGPnjfYw5L1jtseP25PsuLHzOEPgUo5eHIs5Du1vR2FikNJ/D0IJUFchyZv4q+23iN4LKbQ7TukLh+kc5jHkPdUFfunRYS7nwgyvoTo/W8w6FtKaLVMQrDDi3HMni5MJ4aMmYseESrNe/6TC03vL36pChMa2jaU+DfPtfPvidLaKFRykcIC9uN0nI4jaCKg0+FmLMMaued3fXLDZv8/lAn9BwF3x8tYDNfEiEk6X7N33y4hc/+x3J+8MU2vv+Px9HY2M6ZyQQajQo0+ayLG0gCfzREd0uKfCbADkEoYiTyyeRagcAraQa7faQA6ZhjTPJBCHxI9QaEqBujxFQelrgqxazFkliVIJ+2CPTYinWNZZ/8YTUbH4lAmGbAYOLDW44YIfPKG9NoilnBj7+gsUOCaBXUL4I5S2DWEtN+WT1nMt781GDnz01aLTdkdAevFOC5ioLvEWnxefMfOdTOk+x9DHqbswjHJhyx8UoWe38ladsPN73/4pCk56+yuPdP43zpYyZVp7SLLkk6WvLs+3UVC9YKZs0MQ5pSzBD6FGDvr0yEPjzoMtxl4anBkcdmLxZnROZgZPfLb7X5yd/mkdiUcorGHYoVV40nsJFo/avl3HpLERE47N1aJFmrKBV8lPJQ5Z72ugWaz/5gEXOXTVy5IgQs3xDlM/++iO/89x5+9k9pEBqpwaeA9B3ajmcRT1axcot92oRezJqK6uHucu9z8+hgmsAzMndmSOOoOor0j5yM0CYalDg07/H4g2sPkRosYIkwQgvEGSe6zXzvzIDg6HPiBC6VY/zhKxuLSWbbcsJDjDvGZEMjtMQlRUUtqhzHjOZV2I48ZUGXW1TET8gNj9QrmFEDp9xQlQqqfAZjPvra1GLkhgIiMZtC2qSEmneAtMGyzBPrFpgIfvYSqJ5rZrRb5zDtHnjw1Hdgzy/BK2k8LyCf8RjuK5AaKhLSNbS0ZLn02iTt+yHV59Pb6FBUBWTIo6YuSu2cKMq3+fkXJTffL1h/+4Xtgy4tuOzmEDffF+bp70Kgi5hBPT4HniqyfFOUmnkzBXJTiRlCn2SkeqBlF5QyPl1NOQJl7lCBoGqO4O7fPzMyr6B2nmThOk3HQZvAL7J/a4lr7olSdUIUIyTc+ZEo628J8c+/l6PraEDt7DBagFQJfIbKrV8uf/y1xack8xNf872fnUNvi8u2nxURQiK0QIsAr2DT1ZTl2IvVLN0gSIxJYfsu9DaZYqze49Dfaoi7lCvnjQMIAlDlYFBQjvo0BJ5C6Uouv/yokEhtlwlEkB/ykIRHIr8zJ/QypIu2Ty7sEpjNjR1mwkh1MiGlyU1OWaG0BiE0lmNy11oDWhNJ2DghyVB3YDYw4/YtgmL+5Px4OGqkBLMJ0ETipyD08s+Ok/nLP1colSjkAhIJCyUFgRQIaTwXhBR0pKH7mCENaZnrUzXHFPHVzoP5a0xkn3h5K4JJw7afmLkCfkmTHi7R35GnkJIEBATap0A/m25wuO5tNhqN70lyg2Y07E/+3mWw22eof5jZ8+LUz43yxNcsIklYfe30nP9UIVEruO1DEfY+mWao3UHhQRCmr6vIrkfDLL5csmDtuT7LixczhD7JaNoJ7Qc0Az0lcJMoUggkTlRzw2+FuaXSs32GfFCR3bsOWvh+gdZ9Hv2tJxN6BfNWWmx5Y5IXHi5RKim6WjJoZVqQlPa45b0JVlxx+olLaQne/f/MYfujx1GBMcKpVC0Xcz47HytSvzCKHTYtewNtZva1UibiVn7Z8EYZctRao4Oy/Ko0QmtKaITlk8/45FLBuII4ykVGiFEL1xGK0OZ9nXlkKxBSM3e5xSU3hgi88XSqNdgO1C+yqJolx+XYJxNaQzQhWHKZPbLJmfRjUCbF2ZJocvz1euGHPsefS6DpK39HjPwZ6Coxb9n41spYlQ3S/II1kKybeHzuYLdbLgwYS+kKr2jTcUAiEShcnGSBmtm22Sgom5BtEQpLlCfKP27IPp8xqo60zO9FSrAjUDMXFqyBukVQNw/mLOPMPxITYNcvYMd/aryCZrCvSMfxDCgHX6dHLIjv/mgt7/nsbGznxAPHeOxbKVL9HpYXoa/dJZf2WLSiiq3ftIhVwcJLJ+9czwUWrrG599Nx/s/HPdDmeniupnl3gZbdcRqWz0TpU4UZQp9ElPLQth9yQz69HS5aF8uPaJaun5zRouGY4Ko3OfziS3kEIfLpgPaDmuVXTbxiVSLiXCZgoCsALUb6uBU+t753YsPlnVv72P/8IG/8wBLqGsYv4PNXhLnmLXGee7iIFhZCS7TwUX6InpYS238aQUqB8g2Jy0p1tdaGwJWRlYuBRuPh+wG+pxju88n1h7CIoBFoZFmerVRZiXLAWI7WhfH+luXvalGOCM4QAoEdgivvDnPvpy/A6qxJwrzV4MkBhLLQIyXx5quzschl143X3G1HsGBlmPYjJUAzd+nEXgpth4vmNzeq0CMEOBEF5PFKGqEdShmH3oxVLrQzKRRf56hfpIgmbCQWQkkSSRtfmN+bbxmSJw2ZflODYZWjeSGharbJx89aYmT7OUshfAa343A3HH1eU0xretrzDHRIVKBQZF61BbHGHZkncPxgCkEVh5+xqV8E0apXf27nC6QFq692WLapSNOOMIEuIlSIwb4SO34eZvkmm7mrzvVZXpyYIfRJRPNOaNuv6e8uYRHGJ4/Aonqu5g0fi05aW07tXCO7dx40JjN7nihxxesjE0bppQJkhwIGegqoMplrTK95TYNg5caTiWugq8ifv3sbbknTcijLf/v6lSc956q7EjzzcBaJjcamMqbBK2kGOkrUzQmjPIUQkCtqkAHC9vHdgIFOn8ygwtG15XOSUC6o0jrAI40T1TiOKaRyi+DmBBXvOnOscsV0WRIW5Y3F2bkZC2JJWHHla/u2SNRKVm0OceR5DElRjtGF5PCLWe5838n9R1fdWUfr4VYALr/x5GZr39U07ioAobKqIxBYxKolV98TxgkJepsDupsCvILGc33cgsYtaJRvyH2wzR4leQQBBRKzPCIxSTRpQ2ATDUssR6JcgS/NzkFagnwK+prLeXnbkE602hB9wzKYt8q0VdUtfHmvgUPPQNtBGOgr0dOeR6uAABelXWrmaf7o/yxmzeaX3ykYC2KJFhqhFQElKIZpOpzBeqSa+esk6153mr+s8xT1CyVv/P0o//hB06ZbidKbdhfoPpacIfQpwmt75Zpk9LXCUGfAUF8JrctRjQhYvjHElXdNnsYUrxFcdlOIroMSzy3QuMOlv21iQu9vhb72AFtXU2LQRMll16/Vm8MTGrDsfnoAr2QWzhd+0U+pEJTzpKNYc1XCbA60Klt5WigC8AXDA0WcuEdmwCczpND5WpQOxhA3pnKcNFYowA4JQlFBKCJwwhCvkSzf6FA7T1DTYNF2IOCxf5J4ujJKVpzw39GvSqb9TCAQ1MwVXHL9a1sPjFcLNtzucOz5oLx9kuV6CckLP0/xO/9TEYqM3zi964+X4YQF85dHWb3xZHvYQ9vSZAc1tqiQuelWmLfC4r7/kRg3IbB1n89Ah6L9UEDHYZ/uxoB8WuEWgzLJg1sCKWyy/TbZchrGvGaAslLMWmgTTdjowMKSNvGYxPNM4Z+wTNSfT8FgO7TtNQV20jJkXrfAqBTVDVA3H+avNZuA3DC07tEUh13aj2XQSqNwJ8WCWGmPYk7QcSRL274qlqyH2AVsQiOEcZHb+EbJ7kdC+DqPwCEz7PPCj3wWrLOnbdzzawkzhD5JyA5B12FNdsjFUgk8MggsaudpbvvAKxvHvBqEY4JNdzn84st5pCjL7gc0y688mcwKaUVm0CMY6cAaNfVYcAobz66mIhIHgUC5ip7WAovXjDdwqZ8XIpoENzPWF90UOOUGBYUha+RIWqcQMsCJCMIxUW79EsSqBfNXh6lfYLFwrcWCtTbzV1onVfo2LvP5xT/lmLiyfCyRn02iVCBsn8WXhi/IXujJRDguWHttCCc+TJC1y3UJEoFNMe2y9aE+7jghSo9X2bzvT09tyP74d/uMVF75EjaRhOKKOyMnjftdfJnN4stg45i+5cyApv2QT8dhQ/JdxwJSvYpSPsAtglc06pAOHPAd+lsqx6rQfIHkbI94jUUobBG4NsmEZVJD0kTzpyrAs2wIJ2DZRpi1SLHriSKSCAGpSbQg1khsshmfXY+VuOyW8AVN6ADVcyS3vj/KzkdMlK61j+vC4ReL9LUmZgh9CjBD6JOE7qPQ06QY6CkRlKNzTcCiS0JcdtPk99fUL5TMW6XpOWoT+D67fzWx7B744Lljnd8qEbqifsHE55Ue8JHCxiw6AZnBCSq+JSxc49C4vewsN9JfDFp6hKt8nLCJvGPVgrr5IeYstVi+wTYEvs4ikjg9Ap61SLLlHsm2H4XLrTCvhFdP7AJJ7TzNNW+bukEzFwqad8HT35bUzYnRlXMBD6EtJBZKOHzvr7vY/IZaamafnpJx4Pk0Tz+UwhLRsjmRiaYXrLW45X2nt9lN1gvWXe+w7vrxn9nm3T4dRwzB97YoWvf5+B74boCb1xTzmsADiUOmzybbZ9IyEkEnLna8QKLWIlnjoHyLkGURiY4pwJMmmlc5U0Efrg7oPGbaPifbgljhg+fQtLfAUE+Y+RdBNfjCdRaX3yHY91gUX+exdIhcyuPo84qlG+RJ9rgzODvMEPokITcM2WGFX3JQ5Qlq0Wo9qVL7WMSrBZe+LkTvUYnnFWja7TLYdTKhOzFNMRegdKWLujI6VBOOTRxRFLIKgT2SrS7mJrbyjCYtdLkITZfL2AQ24Rjc+UCElVfZLFxnU9Nwds211bMlt30gyq5fplA5G80Jpd+VPPrIP06FiR8TSCwnYP3NkSnZfF1IaN4NT30LBtsEiSoHLbJIbaEJEMJGaofhbp8vfOAon/n2apJ1L3+9Wg7m+F8fOo4UobLqYyExXgW3fzB21mN3l26wWbph/DLW16oYaA9o2e/TvNtnqEsx1G0k+1JO47vgFjQCBzfnMJSTDLfLEY3HJ8usxZpw1EJKCcqmod4mM6hpPeQhbB+hFASTb0GstcZ3Fce2u1x604Wf+qlpkNzxoSh7HjMKm9I+bkmz49ECW+6JzxD6JGOG0CcJ3Y2aoU6Xiv2lQFA9W3Dt26cm4gvHBetvtXniax5ShMgNB3Qc0izdMJ60nNB4s4pRGXxiG08A5ZdzkkKgtSYITpS5DaIJyajcbiAQhKOw5S1h5q+euH3pTLBwncXtH47w038omKp6TtxkjErvp6L0iq/2+Fy7+f+S9TZv/sRrW2vf/2t47iHjpeAXfQb6Clg6hk8eKRy0Vkhhowlz9MUSn7xtH+/9bwvY/Po6YsnxS0l/Z4mtD/Xx/b/txss7WMJBChuJQ6wGbnx3hGvfPjXm7bMXS2Yvlqy9bnSz4XvQutenaY/PQEdA+0Gf3mZVJncftzi+AG+g1R75rEgEnSKgsTnHNW+L8qbfT7D7V0XajgQU83KSLYgVvqc5/LyHVwzhXASC0YI1FquvlRx9zjYV74FNf7tPx2FTqzCDycMMoU8CfBeGu1XZc9wsAgqf2YtDhCY3fT4Oc1dIEnOKZHodgkCbavc7I8THdKLNXmIc5oqZE3/61D3UQowWLQnUaRi1jH8ty+GkvOjZIlYluPv3Ygx2Kp7/fsVxrOIxOtYStmwtNgFGc6qVx430O3el4M1/GKN+4QVs03WW2PULeP4h4xngZj1aj2fxsjF8nSEcFyRqBP0dFkIbAx8BDLa7fPFjrdjhZpatj1A31zFdDp0uzftNHYYU4TKZh5GESNZLbvtgnLd9Kn72BkCvArYDyzfZLN80/oPZ06ToOOTTfni0AK+QUXhuQCmrcUvguRpbxwk8QfueMKGYIlllEw57eAVI95cmzYJYoxDaZrDTR03loJ5pRNUsybVvC9H43Ogd6xYDdj3qsubaEMlZ5/T0LirMEPokwC2YcZSlkipLz4JwHNbfOrXybbJecsUdEZ75rsT3SjTv9hjqGk/oVbMFdfMssgPqJA4v5Sc23T6RjKWceOEt5CZyPRHYjsYOT/5iHasW3PPJGL3NGZp2K5Q3Kr9X2qqEfhlCF9boRqX894YV5jU33hk6Y/e+CxmBBy/9FHb81JB5MePR3pzFzYbxdZbq2ZKb7wtx1ZvCfPPTKZr2eniFGL6QCCQKG1XyObY9ADwq6odNzEj0OFgihBCSOUtsbr8/zhs+ev4oIQ3LJA3LQmy6a/R7uSFNT3PAsZc8uhsDBtoD2g8WsB0LByikoJjXuEXzgZlsC2KB6W2XF8n+0nJg1RYHJ5nCTxtvA9/TNO1xyQzMEPpkYobQJwGFDOSGNZZXi8cAAgsnDPNXTp7kPBGiSTNS9Tff9RCEGO716WmEhZeMPsdyoH6RoG3f2HMxEW0+MzGhRxNWeWNiNijRxMTvo5CphBBjFy5Nsl5Qv2BqVqOGZRZ/8PUqvv/5HM//0MUrmGp6hUJioXH41E2NKO2aNjo0AgurHCFaIoTERtqaJZdI3vrJOJtef+ZWvBcyVABPfwd2/xK8EhRSJVobswSlCIEuMHux4O6Px7jlfRG01nziG7U8+pUcT343Ty7t4BVtJEHZKGXs2F3TYy6FjWULquodll8e5vUPxrnkhpBRgKYxOn+1iNcKltfaLN84ujz6nubv7y/QuCeLE5VIodCBybtL4UyKBbHZbJoNaSGr+Yf3B6y40qJhhemTX3RZeWDPBYjauZKNd4R58WELT2eROsxAh09Po2b+mvP3s3ChYYbQJwGZARjuDQi0IUiB6adeuG7qL+/c5ZLE7CKZPgcVaHb+0mXtDaGRKD1RI7n+nSH2PDImksXI6r0tpQlfs6reLleuC0BRVT/x++hsLAGjhTsCgRUOWL5pahN/1bMlH/hCkoVrC/z6WwUGu6GYlciKHKwlCAs5xgY2FLKxpINlWUQTgk13RnnLHyaYvch6TZK5WzBkvvdxQ1aFlEvToSxaOWhdZO4Kydv/JMbVbzV5YSEEyTrJO/4kwfX3Rnj0KzmObXPJDAUU8xZaaYoFZaxqtUQIqJplc+nrwlz/zhjrbwqNpHLOZzI/JbSgql5SGIyR0Tmz3dUShEJqZ1IsiEMxqJ6jyQ27WJaFLsHxl6Bl92gaKznL+NY3rDD557OdbDhdiFULNtzp8MLDZh1S2ifwNXufdLnstvCkmW691jFD6JOAwDOVqaOelkZyP9vq7tPBiOz+rxa+59K402Woa5TQhYQFqy1CNWm8IYsA33hha0HLoYlbwOaviJajLrMxmbPo5EKA4T6XzEAwzihEYJOs12x509TfnZYDr38wyvW/FeaJb+bZ9ViJ/g6fYt7GcwW+ZwrnhIDqWRZV9WF0IUTYcbj0Tpt3fDoySiwXIL+cDdK98OQ3zERAFWiGe4t0t+XRykFpl6WX27ztUzGuOCENUble81Y43P/5arTWtB30OfaSi1fUHHre49CzHsWUjXQCbn53YuQ6V372giRzjPf4yi0WL/4gwNcFGEmuyUmwIDYtcnXzHN7wYJKhLo99W32yaZ94FQSuuX5CCnLDxizK+rW5B5yIqZO5EKL4RessIjVZ8kP2iOzevNcnOxC+KGbCnw+YIfRJgO9BMT86+BJe3j5yMhFNCq64w+E3/+ohtMNgp0fP8fGye7JecsO7Ijz+z5pAu+XqXcmh53MUcwGR+PgVYMONtYRiZtjKtW9uOMkVDKBxd46xNpyVUvp4tcXKzdPX+pWokbz5D+K86eMx2g/5HHimyGCXT7pfgdCEItCwzGbv45r9+0rYls+8tVXkU4L4BW7ccSYY7IAnv256zZVvyLynGZS20PisvtrhQ3+TYN7KiZWLSudDhaQXX+Kw+BIHrTU33af5X+/M07LTRpMnPyxM2xcXLpFXkBuCgTZRtsK1AIXlaALP/H2kdfIMLIgFAikF2rfZ9VPB5reHeOunJF9+v41rD1A/3yYUsZHapqraxvPKtrbSGOFk+qFlj4ngLRuSs81wmjnLz68oPlEnWLYhxMGtEl/nkTpCT7NHZpAZQp8kzBD6JCDwNKVihdDNTR+JTR+pLVgric8qku13UL5m56Mua68fjdLjNYLr3xFm63eG8TMOCh+BRSkv2PN0ii1vGD9IomZ2iM/98AoOvZTi1ndOfKdtf3S4vLBJwEIIiMTBsWO89FPYdPfkV7qfChWyWLjWZsGauBkAM2agd+BD77Eix56J4qkMR1/yGO6KkKi9sEnm1aJ5F/zmX6GnEZSn6O0sMNghTCuRpbjk+hD3/Y+4IXM4pXIxlpzHErxtaRqWOrTtlPgB9BxX6EAgL+BVppQ3Y1L3/xq6jgpiswuUcooFayxCUcnhZ0HpEmdnQSyQtiASkWipiNdBT5OPpzRByaav2SprAZI2ClQ1eCRqHJRnU11l6hSCUnncbCWKbyl71tsQrzEe9fNXm0h+/ppzE8Un6ySrt4Q4vNX8W+sAv6RpO+Cz+LIL+ENyHmHmKk4CKqMboXw7S0H1nOm7tIk6yaU3htn2sIXvnyy7A8xZZnH3x6M89PksUtuoctHST/6pm8131ppJVWOw5soa1lw5cQg71OPy9MPDCBFCChvbhvq5IWpr49ghi6e/A8NdcP1vT58f9YmS7lhCtyy44s4Qv/mujyRMdlDR2yTGqRgXO1r2wFPfNgt9UArobMmTH0gQ6CGkrdjyljAPfDGJfQb70Mo1tx1Bos4UdSkFmSGF70HoAlxlKkR+4EkzYc13zeconghz+U2Shasj7Nvqg0whAjlmcNCrtyDWKLySoO1YjnyhyIFnHZJ1goa1BfIZ8IoBpbzGLeQR2iHdY5PpMQJ/LwGEstTPt7Edm5BlE0/aeL7AFyaKL6QFgx1meJRlg7CgfiHMLefhG1aYITVTDSFhyeUSj2EEJiUW+JrW/T7Xz1DRpGDmKk4CEvWMLIQVGjEtLdODaEKw/haHFx8OQDsMdHoMd4+X3aMJya33x+g47PHcD1xjEKJtDj5X4MmH+rjlXacYqD4B/u0L7RTTAlvYCGyWrg9x10djfOdPc2jfYt7yOHsft0n1wC0fNovHdGCiyLHy9/mrbBKzc2T6HALfY+ejLmuuG7/puVix+1F4/geQHQCv4NPTmSc3EMNVA4Rjgs1vCvOB/3lmZD4W0oKFayWaAEuEyfQHZAfNsJMLBaW8KRTc/+tRIkdptBcwPFxi1hLNHQ/EePq7YClJ9awwmV5QOj/Bq70ysQsBlqNBCVQgGWxzOPSMx//78xre/IkYPccVrQd8Gl/yTJ/8cYVfCijmXIo5DYED46J4M4Wuao5HonZMFO8Ik4svW9m2p6DriHmv0oZYtZkfP381NCyfuii+dq6gdq7NcLdEa4/Ah5Z9Pl6Ri8JE51xjhtAnAaHI2A+/BmXR3+bjFs1jUw0hYflGCzuewc05aF+z/acuK7eEiIxxpIxXC+75ZJzu4z7HdkokIaQI+NIft1JV73Dl7S/PblppHvrbdn717aGyL3eYeLVgxaYQL/28RGk4gU+BlkNpFq1K0Lzb4cd/Jbj1AVh6xRRfhAkwluCT9UbFePEHNr7n0rTbJdN/8RP67kfh2e9BIQ1uzqO1sWIYkyZeI7j9QxHe/idnMBj8FAjHQNtZ8EP4Hgx2KuqmqIVxMnFKIvcDUhmX/s4iQbaa9FCKjmMlVmwJ0bLPR3lq1N7hVVoQCySRuOCK20MMdQkaXxTISJFr3h7DLjePNCyXNCwPsflN5hu+awjw6DaPoy96tB0M8F0o5X0zha4AEpt0r02m10TxPZQIJYtUz7IJhR0sLOJJG+WNDqXJp8pR/I7R8bJ1C2HuSpi3EhZeBtHk2V/n6gajXqa7BT4eWkE+pdDTF/9c1Jgh9ElAtFoQr5YjeTMhLEp5RX4YQnOn5xxi1YLVW8Ic+LXE9z2O7TCy+7wT5g43LLP53X+p5uv/BQ48o8GN4ruaz737GG/4cD13fbCBRWvGL/CBrzm0Pc1Df9PB3icLWCKCRQQpBIsvCbP5TVE6Dyv2bc3gpSwC16HpYIYFS2NAhF/8o+CG98Blt07PtZgIsSrBprtCvPADD6FD9LV5DHRw0c5lVr6Jynf+HEoZKOU82lsqhjEZauZIbnrv5JI5wKzFgmiVRWFQEng+gx0KNp+/hD4RkYsxRN7XUcTPJgi0hWKYkBBs/1mJWQt9mnbZKA2BHtv+eXoWxBIJEmpmR9h0WxVHt2s6DmZxQg4LV53aXtIOwYpNNis22bzhd8zzOo8GHN/h0XrAp2mXz3CPwi0EuIXRKL6YcShl5MixfbLUL9RE4jZC2yRi5Si+NH68bNcR2OuYivpotYneKxX1c089XO+UiMQEVfUVgydtlJyBgGKGKXXVfK1ghtAnAeEIzF1hcfS5yrgxMwAi1Qc100ToyXrJdfeGOPjrAK0sBjp9hrsZR+iViHXWAouPf6Wah/5K8PyPc6QGQ8jA5pdfTfPIV/uZt8ymYVmYaEKS6vdpO1QkM6ixCGOLOFJa1NTbrLsuxvs/V0XVLJu11woWrHX4ysfT9Lf7yMCh/XiOUjFAqzi//rpgqBM238M41WA6sXCdJFpbJD9kevZf+pnLis0hIpPLaeccWsFT3zF2roEH+eESxw9nESqM0gUallnc86kY171j8tsLE7WCRI1FYVDguZrWAwFb7jn/lplTETl+wFDGpb+jiDdC5Bni1TB3pcVtH4iw8c4wT3yriK/yjLdffBUWxCJENGJz5Z1xFl4K3Y0Wy9cmyaR9nvyGed7ld5zee5m/ymL+qlF93C1ojm33aT3gmyj+QIDv6XIefjSKH2wftULWlHCSRarrTBRvS4tE0savRPHlYruhDjj6vEkxCsukUxZdaoh+3mqIVr38uTpRQbJ2NPjRWuGVNJ3HAqrmnKf9dhcQzr877QKEdASzFskxe3JjC9myy2fJ+um5xELAsg0WVjyDyoXwSx47HvFYttE5iUCllETi8N7/r5ob3x3he59L0bK/SLEgyKct+poEfU1+udBHIoliC0007pCoCrFobYQ7Ppxkwy0RpJQjLUxrr7X59MPVfOljGZr3eOA59Hf4FHJpFq1Osu1Hkkw/vO4+zondYzQpWHp5iINbTfHg8d0ew12hM4o0zlfkU/CbfzPFXIGryQy6tB7LQmATUGLeKsk9fxzjmrdNjVdArNqoIQKJ1pAbPr8MyU9N5IqhTOmEiHyUyG+9P8INvzWaP7vpPWE6j/g893AJgldvQYw2RjzH92W543equfSWgG0/K9DX7hGOWjz5DbNunC6pj0UoKrjkdQ6XvM4ZF8U37vBo2z8axZcKlWI7E8WX0g5946L4DPULIRI3U/aqkha+Z6J4r0zy7cNmdHTF+CZabSL4huUTR/FSmjSCEHJ0L6SNojSDs8cMoU8CpIQ110oUpn1Fo9FKc+jZgCvfbE9bv3OsWrB6c5gDTxrCOrrNZajLOSlKr7QZSSlZtDbMH32jns6jHvufybPj0QKDnYbM3aLCsiWhiKB6lsOaayJsvC3Gsg0hpJQjX2Mxe7HFJ75exUN/meO5h12Ua5MdVhw/kGLxiiQHnrLJpw2pNyyfnutSQdUsyVVvDHFoq4LAorfFI9N/ZtLh+Yh0n+kxH2sY096UL3c1eCy7wuZdn42bmeJT5I4XTQoaltm07ZIEgaa7MUAF597s5JWIvL+ziJc5gchXWNz6gfFEXkGyXvK+zyeIJiVP/VvxtC2IpXDKFsSGJI9u8/juZ3M0LLUYOJ7AVylaj2RYvLqKJ79h4bmw8Q1nf/0miuIPP+9zfKdH64HAzJEvmUCklAe3pJE4DLbLkfRBBy7hmiI1s20saROyHaIxiecLPHFCFP+cSQ8IORrFL1gHi9ebIrzRYc4a39P0tQYY29sZnA1mCH2SUD1HULPAY7Dd7NYDH5r3eQx1hqeN0Edk9ycDdGDR0+KdJLvD+GKxSoS9cI1k/iqH296fRCmF1prOowG1DRbxGjmyARj7dSr3r+o5kvu/kKBmboHHvlKglJO4WUnTwTTzl8Zp3h0i1Su47SOwdMOUX5Yx7xvWXGdhxTKofAiv5LHnCY+VW5xxI2YvRAx2lg1jdoDyFcO9JbqbjQ2uEh6rNhvDmPmrptbq1rJFeca5QClNdsiMKD1X+dFSAfY+BvufNK2UJxH5RNL6inJE/q6Xr2iNJgTv+e9xFqyx+MWX8wz1QilnI7UAoY11spBlv3sjtUtspAgjECRmwdprIrzlD+JkhjTPPDSE2ydxC5LWI2kWr65i6zcssv1w9TsmN1UViprOmPW3jLY2NO3yaTvgc+wln86jZo68VxofxReGbIrDlYr68uz4RZpowkF7NlXVFrocxbtCIK3RKH7nz8EOw3C3wNPD5VfQaG3sh2dw9rD+/M///M/P9UlcDBhoFex/SpHps4zto7YIfM2KjREWrJuecxACnDBs/fcM2neAgHDUZvU11kjV7OhzR8m48lUhasuysG2b2jkOkbiNZVkjX69E5hVYtuCSGxxmLbJofMmlmNVoZZMeKmJbgLZpekkQiRuJbrqgfDi2XTHYbqG0R+AJLr0xRKx6+s5hstGyG371FWg/AIGn6GnP09cOShexHMUVt4d4718kWLD65Q1jJgNCwlCHZvdj5bG7QnHdOyKvmFudCux5DB7/slEssgOgPQ2eYjhVpL05R6ozglcKCCgSrVYsvtTiLX8U432fT5y20YmUsOwKm2veHkZakO4Pyk6wwtyQysImjEASjjhE4w5VtTaL14W590+T3PPJODVzJQ3LLBZdarNvawk3Jwh8STZdJJ506GuSqMBszE+8jycTtXMlS9bbbHx9qDyvPsLKKx3qF0ji1QLPUzhRhbR9/MDDC4oIJIW0RaZfkh2U9Hf5ZHI5tPAp5hUosIW57/wS+EWBV9Jkhj2UL0eu4axFIS65wT7nSs6FjhlCP0uoAHb8DJ75d0F2AFJ9CoVXziFqqudYXHaLNW1WsEpB0y7NQItFMIawkvUnP/dEj+2xpH4iwY/9/tivV8KidTbLNjoc3+mS6Q8Q2iaTKkGgcUI2rXsEpdzUL1YVWBYM92iOPCvwlYfvwobbItPWKz/ZaN0DW78Ffc2jhjG53ji+ziFtxeY3hfnol6qmZa5ABd2Nipd+mQFlYYU0V9wepm7B9LnyHX0BHvuSkdezg6BegcgXlYn8/a+CyE9EOCpYe53DbR+IMm+VTVWdpH6BTTxpEYqZ1NZlN0a46o0x7v2vSe76WJwFq51x99+cpSeTeiZVJBIzfeZ6Gkh93HuKmXNae53D1W8Nc+cDUVZf7bDoEptErTSqi9BYoQAtPDyvBBr8okVuSJIblKR6Jd2dOZQsoVCUCqB9TWrQJQjMe5cWePkQqS6bhpWT0x73WsWM5H4WyPSbHt/Dz5rdpyUFSuYRgQQUSkEu4yLENN2BGNl985tCHHkKgsCit9XkiU+U3cdi7KIy1ozlVM97tVhztc0ffbuKL/9uhqZdHvgOfZ0exXyGhauS7PipJN0LN75/6rsCnIjgqrsdfvQ3Q1gqjJv3adyuWHGVvOCig92/hBe+b6b9eQWf3q48uf4YrhokHBNc9cYwH/yb5LQRQAWzFguiSYvCkMR3fYa6AqZjqTn6Arz0E+hrAa+IKbYqBQwOlhjqG1/sFhsjrb/uFaT100Xl/th4R5grbg+dZEFcec6JG+Kx99VlNzk8+I9J/vn3M2T7JH7RoflQmkUrEmz/T1PIeM07IXyOOjOWbzRjZW96j/n3cLfi2Ev+iPlNb7PCK5Yr6osazzXy/ECbxWC5nh40vgZdtqDWGvySpnknPBHAbR85f/znLzTMROhniK4j8Pi/QOO2cmtQxqenvYBbCEbKPYQOUcr73Pjb0WlbVIUwjku/+lYKtBkckayzWXfD6akEJy44ryYafznEqyVXvzXMULei+7iH8iy8kmB4oECiyiHVI+k9btyqJlITJhOBB4efD0h3GxVDBZLLb3HO2SJ5Jtj9S3jue5AbBjfv0XosS2Ewiq+zxKvhjo9EeN9fJqbNT38sVAA7HvHJDUqE7ROrspm9yKaUNwVRk30vHH0BHvsy7PklpHpAeaB9RWq4RFtjhmxfFK/kj0bkl4xG5Esm2UN8LEmfqHSN/ffL3VdzllosvtRm75Ml3DygbdLDRSIRi4F2e1rk99NFJCGYv9pi3fUO198b4c4Hoqy8yqZhmUXVLIlSGiessZzRKF5rBWViB1Ba47kBtmORH5Z0HRbMWnJuOmEudMwQ+hmgdZ8pQOo+Cr6nGOwp0XY0g18IoXSlfUUibZ9114W46u7wtC6sgQ/HtgWkumyU9vFdwSWvC53z6WJ2SLDxzjDxasmh50vGjSuwGezLE41YlHIWHYcE0STUL566iXV2CIZ7oPF5G1+5uEXNhlsjF0RUoAJ4/vvwwg+gmC4bxjRnKWXC+DpH9RzBLe+P8I5Pn5vdSes+zbP/oXFLHv3NFnbcJVltse9xm8PPmsKo1r3gFQS1886OlMYReXeFyAMyaY/erixDrTE810NRJBTTLFk/dUQ+FqeKwl+JyMeiQur7tpYo5nykDpMeLhhSbzu/SP1E1M23WHmlw6Y3hLn1/ghb3hJm8WU2sxebWh6FRilN4NqAaWtUnsNwfx6tNKgQx7aZeqCG5VzwBavTiRlCf5Vo3Qdbvwl9TVDKB/S0FhjoNFXhCpeKD5QT0Wx8fZgH/yE5LfavY2E7RoY98owcyRNffuv5kScWwsh2C9faHHrOpZD1EdpheKgwMlO9da/Ask2xnJyCm9myBYlaeOJbJYSQaKVYsDbMso3n9/Q1reDp78D2n4JXgPxQicYDGfyig9Il5iy1uPdPY7z+wdi0n1vnEc0TX4XtP9YMtkLtwoCWvQrplEjWCVAOXkHhFU0U3bYfDj0Dbl4we8mrI6aJiVyRSbv0dmUZbImRz/r4Ok8opmlYLrn9w1Ee/PvklBL5qXCmCtecpRbLNzm0H/IZ6g4QOnTBkPpYRMdG8e+McPuHoigFjTtclG+VPeMCBBb5nEfgKyJRh9Y9gkLGvEdnamwTLjrMEPqrQOteeOpbhswLGZ+2xhzF4Qi+zmHqWgVCauoXCm54V4T3/kWC8Dlo17FsQXKW4PFvphGE0Foxd1mYFVeJaSvOeyXMW2mx8iqHjsM+g10+UjtkMyUCVxGOOLTvF3gF4z41FQuWV4K9TxbJD9po4eM4kjXX2eet7J5PmeK3vY9DUNJkhlxajmbRgekxn7dS8rZPxbjuHdO7ewx8zXP/AU99W9PdqHELCgIfEfWI1BZMqseC9sMF3KKimPdNv3YAbgbaDwv6mqB+8SvPpz99Is8RiinmLpfcdF+E+/8qwfqbz3PWOwVmLZSsudbh2HaX4Z4Ll9THQkhYvcVh1kKL1v0ubhF0YBlS1xb5jEepEBBPOPQ1C/pbjVfETLHcK2OG0E8TnYdNdNTbCPm0R1tjFi8XwtNZwEjsoShcemOI930uzo3vjpz19Kqzge/B0W0BqS7TnlXKS9Zd75xz2X0s6hdILr0pROcRn4EOz/S55nyKWY9IzGagVdJzvHwzT3Lbk7Sgr0XTssvCVyWKWcGG28PUNEzucSYDmX544qtwcCv4rmaop0jrsRxCGTJfernNe/8iwabXh6a0x/xElPKard+CXY8oSjlFqeiRGirQ2ZphsKvI8vUxcsOC4a6AzoMOqUGXzCD0d6UpFnyUhpAjGe6RtO+DuoViwut/NkS+4fYQ4dh5sos9QyTrJOuuC3H0IiP1xZfaXH1PmGIG2g55aN9GEwACv2AzPJAnGrPJDVkMdZm5CzOk/vKYIfTTQD5tqtnbdkOuTOZ+Poyv81T8m2vmCm6+L8IDX0xSN//cl0ufKLtX8sTng+w+FrEqwea7w+SGoe2Qi/ZtPFeQHi4QjZubuXWPcZuaTLK1QwInKnj2PzxAEgQBKzdFWHjJ+bX4D3UaMj++DZRv3N+6m0HrAI3Pqs0OH/likuUb7Wkl88DT/ObfYPejCrcYkB4u0tWSZqDTpapecsNvh7j6rTE23hFm4+sjrL9TU79Y0deZJpPy8YsW2SHF8EAB25KgbLoOQ8NyMTKb+7SIPHPxEvlYJOoka68LnRypR8eQ+mrOaRBxJojEBZfdHCIalxx4pohQNhpliD0IMTSQx7YlpYxFKSeYu8pM9JvBxJgh9NPACz8wUmcu49N27EQy1yxaZ/Pbfxbnjg+fP+OCTpTdOQ9l9wosR7D+5hCJGsnhF0v4JSBwGB7IE4lYBL5F215TLDdn2eQdVyvNS48UKGYsEAGWbbHuBnvaax5OhZY9xjCmbf9YwxiN0iUsR7GhYhizZuoNY07Erl/Azp9pijlFb1eO9sY0blHzxt9z+IOvzGHDLXFmLbBJ1ltU1VvMXRbi0hti3HpfNUHgc/D5NJoA7Tukh4v4viZsOeRSknSf2UDvfnSUyPEV6Zcj8vdenEQ+FsmXIfXBdpvcoIliL7SpZVLC0stt4jWSo9tLBJ6pRFL4iHKFv1JQShkJYu7KC0uNmE7MEPor4NBvYPuPITsQ0HYsh5cLjZC5wIwyfPAfk6y5Zur8sc8UvgdHXjDtWeer7F6Bmelus+JKh/1PlchnfYRyGB4soJXGcRza9gu0MpWvk9E1IKSgp1HRsd/GVyX8kmTDraGRCPFcolKv0dtUNoxpzpPrGzWMuerusmHM3OkvAe48otn2Y81Au09Pe5b+dp9AFbjnUzHe/ZkG7NCpbwLbEay/MY4m4MAzebRQCG1RzGp85fPGTzi4Ocmh34AqgvYMkfecSOTR1w6Rj8UIqW8bT+rhiEW6z2aw7cLMN0sLVlxps2pLiI7DPql+BUqOKZZzUUqTHzT355xlU9cFcyFjhtBfBvkUbPsxdB3S9HQUKAxGyjlzE5mv2GTzob9NsnDt9EdIpwPbMRXFx8rtWb6r2XRHhNr55/rMTo3Ziy0ufV2I5n0+qT4flE0+o8hnXeKJEB2HxlS+nmUk7YQFOhBs+4lCIPBcn/U3Rad9aMyJ2PMYPPkNI7cHRZ/uzjzZvhiuGiIUhS1vDvPA/5886/d/ptjxMzj4lKKvp0B/m4+n0ixeDx//p4VIeXo3wbprYuzemmawMwBhOkMKWUj1Btx4X5imHZquJpe+niyDLdGTify+CPd/4bVD5GORrJOsvf5EUi8SCUsKaZuhLnN/XGikDqYI8PLbQqR6FG0HfeO4iUJqm0LOQwhBbtBh7krOi433+YYZQn8Z7HncGHgM9rj0t+pxBXCL1lk8+A9jyPw8hGULknXwxDdLxqNJK+atCrPiyvN7AayeI7ni9hDpfkX7EQ+UxC1qMqkS8aSZANXXArMWQbz27I5lOfDcj7J4BSO7O2GLddef7H0/XdjzGDz775AbAi/v0XwsS2Ewgq+zxKrhzgcivO/z58YwBqC/xcjt3U0u7cfSBLpEQIkP/tUcFq89West5HxK+YBQZPx9IqSgfoHNUw8Nl2eHG+MjyzYDVPb/Jk/fsUpEnseJKhqWS25+DRP5WFRI/WiZ1NE2qaEilhS4WZuhLnHBkno0aWx0h7oUHYd90JVI3SGfdZFYhGMWc1deeOmFqcZMy/4pkO6Fll1QTPl0NecItAsYMq+eC3f9boQF5zGZVxCtksxbEyCEhe8pdj9eIt13rs/qlVHTILn/rxPc9dEoViQAoJSVHD+QJjPg0rQTfvq3Js98NkjWSS69IYzEwfc0x15yGeqahDfwKlHpMX/yG2X3t6xHW1MWNxPG01mSs+G2D5w7w5gKWvaaKXy9HTmEdlDaxY4EbLj5ZOYY6CrywOYned/6X3Fsd+qkxy+7IUF1AygdIGTAkstt7vhwgnRnmHwafJ3FjnrMXy154+9G+cwPq3nbf4mRrJ9ZtgDmrbD42JerWLxeoLUPgU1nS46e1hzNu0wx5VDnuT7LM0OiVnL/XyW48T0RNEZBM8OUJJ0tOV56JKB597k+y/MPMxH6KXDoN7D3cU1XS5FSKkKAmSxkRzQ3vzfCXR+LnXc58//L3rm8NhVEYfw3k0lyk2rBZylYg9ZCVLqwqAtdKF1UNwoKRXDjTt24VHDhv6FbceF/UC2CICK4kFSRSDFqato0UNOmTfO6j9wZF7eKYigaCjGQbzvDYWYzc77z+E4rhEKwsmj4mlL4JsgTj56NdoUqWkgJkqci9O+S5NIedtWAVqyVGkTDAuMr5mYE1rb2J7apiMCpw7tpDQjsus/YhMXu/Vt6lU1hTPCZz0yB70JjzeHzL4IxexKSybtxzt/ofHlv+jlkUy7LC0HEysdj9EyE8at/6vU+eTjP66mloMhJwsmJvb+tSykoZBvk3musmCKR3EFpXlFdlkTjEtt2OHc91mPkm+BHTv3TG5fyN40winrVxWhN0450dfg9HBWMHFes5H0KmSD0Doamp/FdgxWLMjBMV09K3Gr0XN0WcOpBZXGt1KRYsH+G2gESRxWXbm+wpC54X6J9ghMXw2hcBBFq5Sb52e6ZPRxSMH7N4uaDfgZHAi8dX7HwJWAitVXNy0fw6jE4tX+3LyQcHAshY3XAYHxN6qnXlq12sF6EZ/fh7TT4rqFScpj7GAjG+MZlYFhy+U6c05OdL71vrEMxr1ktOhutRUF70dDh1jJe2XQFQRiBIpOqtNwzlLTQxsWxPfKZGnbV4Lo+TVty4db2HiP/CwweCpj6gWMSlAc6TLFgs5Srdj9T3ym5cq+PfUc0UoQJBLwUlbLHhxc2i7OdPuH/he8AAAD//+y9d5hdV33u/1lrl9Oma0a9W5Ily7Jsyd2424BtmiuEYlooCeUSchMI5N787pNCEm4gEC7gyyWQBN8fBmwgYDC2cUeWLVu9S6PpvZ05dde17h/rjOpISLZkaeR59YzOo6Nzzqx99t7r/db3O3mnjIOuHaaSd7DPxyaFuYgsaqfBmz+eOmPamo4XDdMlM85VCMyM9s1PTIyw+8FYeoXNn/yghoWrLLBDhLYZ6Arp2JOnNKpY9zNDjKN9J/7ZmTrBOasTCGyiUNO8PiA3ePKP4XDkB02IfesTEJQ0wz0eHTs1cWShiJi3wuLev68y6m9ngA2mFPgFxeiwT6y9isekmDZ//IKD4e4IKRykcOhrDcZ9zcxzEigitLIY7vcZGfBp2ZajdUeOwog6hUdzdmHGORZ/9kAtl741gRJnF6lPmW3xoa9UYycq09mIUKGkv9tj11r1iu75sxWThD4OevbAQGvMSL/ZuECAiJm/0uaSt068BshMneD8a10kNlGoaH45ZKjjdK/qxDF1nsWf/6iWK25PYCViBIJiVrBnyyjlfMSu5+HX3zDn70RQUxk5K7FRsUXvvpBs76k5hjEMtMJvvgl71oKOFUO9Hr2t2rREiojFl9h87BvVLL/6zGmHLI9CfkRh6Xoj/KE1Gk2mZvxakmJOI7GR2JTzmjg60irJ1FlorYi1T+hpevYogpIZstm2JTzFR3R2IV0jeN/fZbj8HWcfqU9fYHHLH6UqBZSgUXilmHW/LDPQfpoXdwZhktAPg4pgqF1TGg2QqrpSkCGpaZLc+IEJ5ppXcCDsHpqwe25ihd0PRrJK8OGvVPP2z6awkzFKx0RlUSmW8+ncqnnk62as7fHCaEtLIplDIAk9zdanQvQpchDbt8Cj34K2TRAHiq6WEv1tEbH2kI7ioje5fPyb1adFMOZYELbGK0YoHVSGX5p534n0+NtI5GkEEoG1Pzp0OJJpCfs/LSLUBRQhKMtUb0/ihFBVL49C6kUzb/y7nJaiz1eLVI3gmncnmblUYQnX7MvKJT8c0rxO45dO9wrPDEwS+mHobYb+NsXwQECsy/ufn7bA4oIbJp53Pob66ZJpi+L9G+uWCRh2H4PlwFs+leaD/7OK2mkaRUQc2LTtyTPYVWawU/PIN+DlX5ohIMeDTJ1kwYUuUthEkWLX8xFDnSd/7a0bjWBMX3NFMKatRHEghdIBlqtYfUuCP76vhsY5Z+itqff/tf8JaY1vcaiYCqEbeWQVH0noliMYL58ghRjXAJjE78chpM4YqZdN9fsGeOL/QHYCknr9dMmbP5bE0JZA6YgwUGx83J8Mu1dwhu4apw+jfZAb0ARFx0gPIklWKy57x8Qlc4CqOsHyqw+E3fe+HDI4gUNVQsKVdyX4xHdqWHChjdIBQtn0dpTo3VegmDXFcs/+gOOy3qvqBedf4yKQxBH07AtOusGz+THjmfftg7AU0dVWoDiQwFcjJKrgDe9M8pGvVZ+xoyJTVSCECbMfjMAbP5RhO5XtpcL30j6S+IPy0cMg4szvCj1jsZ/Ubz+S1Fs2wMP/bAZOTSRYDpx7uUPjvAiJgyZGRRZt2yYJfQyThH4YRnpguDdCYGOK4STpWjlhxy+OIZERXPwWB1D7w+69+ya+B7TkUptPfKeG8652QBrt56G+kI5defxizPqH4eGvwnDXsT/HSQoue4dDLApYwsXLK/ZtOHkx9y2PG33ywtCYYEye4mCCUOdJ1whu+lCSD3656owWynASZniK4FCm9Yrjh0GSGVkJy5sWRMc9crvxSqZd8HCYUP4ZkmuYoDgaqfe3F+ndC7/5hunmmUiomy65/PYElqjsx1oTBYrtz526FNlEwiShH4Zsr6IwEqA4UJVb2ySZtmDiuwv1MwTpxjICE87c/LhPMXu6V/Xq0TRH8ul/reGKOxPYSZNWKIwKmreNUhgJaXkZfvU16Pw9LS6pasG8FcZLDysiPPlX6aVrBc/db6rZC8NQzgV0th0mGPPBJHd/4QwdxH4QhITaqSZEboLo5s9g1/gV7DWNdqUSPqZ+uj2u9na2f+y9Y59omTC9HTF9weT29GpxVE+9rcBwl+axb08sUneTgtW3OkSisF8WdizieLzptbMZk3fMQYhDyA9rvFKM1jECiXRjFl18mnQ2TzKqp0guvGlMFU3RvD6ckLm08ZCqFvzh16q5579lcDMRWsfEvkPLjhy5YZ/evZrHvgW7fnf0z0jXCpZcavqmVazp3B4xXPl+RrphoM1cI8cNDc/eDy/9AsIyeLmA5u15SiM2sfZomiv5g/8vzV1/ceaTORgRnlW3OihRMF66ECAEnXu8cV8/Y0HChEWJmXPu+AWl3c0eY9tQIiWYMlsgHRBC0LvbZttTRnhnEq8cR5K6TV+nR8eeAoPtE4/UM/WC2UtNO6RGoWOL3uZJQodJpbhD4BVgy28Ve9aXK3U6gkQarr83yZxlE5/UnYRAWIIXfmrCnHEUs/SKFDMWn+6VnRwIYabfnbPKYcvTPuViZWLbUBm0RuDQsbUyse2cIye22a7AzQie+2EASNINMQ1Tkzzxr7Dlt7DjGdj4a9j0mMk/qghqp5pw8uHIDcBT/2Z6zGNfUxgJaNtTQEc2ioAZiyRv/9M0V92VPGPa0o4HYQCtWyKGOyWKAE1MPutx20emIQ4bzBJFiqcf7EGjuO0PZ7H04iMlvX75v/vo3q2xpcM5K6v4zL/X07pBUxiBmroUPbslrRvNuMyGWSZKMIkTh5sSLLvKYbhL0bEzRGDjlSL8coTtuPTuETTOM9fzmQ7bEbRv1XRtM/eSEBYIzVV3J0jVTJAb6RRhktAPQuDB5t8qereniXQJgUW6Ft78sSS1U8+OnURIWPvzAmGpMozEsTj3Cuu0Te46FWiaZ7H8aofWTSHZAZNXL+QCAi8mlXYOndiWMB6gEJXz/ygMdXsUh2yEHTJlNhQGbbxRjV9S+CWNl9cMdkH7Rs2O5yCOoGn+AWLPD8HT3zcGQBxqRvo8uvdCHBtltQUrbT74T1WsvDExocgczPWTH1Ts+h3EGMW4Yi7gohuraZx5aDXfrHMy1EyxWXppDW/76LwjDJ9yIeZbn21HxikSKZfGxjoc22b5tQmy3TblbITj2OSHBC0bTWdA7TSoPlJldhLHgf2k3q3o2m3EmbxyRFCaWKRuOYLisGDTo7qigCmRtuayt7vUTjs79ulXiklCPwheHl78WUjfPoUiQCJJVsMN9ybJ1J0dF4q0BAPtmq6tNrEKiHzBiuvPjBngJxO1UyUrbkgw0BbT32bCjOVSRLkQkUzbDHdKBtuNp56uOdAbvnsNOClFf0eZVA3UNmkSVZLefT75nI/vRWgJYRAThyaq07UdunbClDlQGhU8+V1ofgl0rBnq8+hr1cS6jBYxiy52+MOvVjNvRSU8MIHIHMxI3tomybpfF/DzRtEOoQjCgMtvbTjktULAuatqWXFlw7hRjCcfGGDdw0WkcKmuSzB/eYYr7pQ0zIaXHynSsdWiUCiRSklAku0T7HkeeveY0ZmTxH7icFOC5de4FEc0nbuMjPJEJPXevYqNvy2gIgvTOqlZ/ZYETWdqu+drhElCPwjlgmb9ryIGWtlv+aVqx+ReJ9jOexQ4CYHcH3YHvxyx9MqzJ+x+MNI1glVvdgkDaNkUomNJGAhyIx6plEVxxKJ3ryGILY/DwD4AjVdULFiluflDSfyi4NHvD3HxrWlW3GAx7wLJrKWCmcsimhZodr8YIG1JMCwJQ0FfM7RsEERlRXdriaEuhdIB0lZceJPLh/6pmunnTNwCSyEEySpBbZNk/SMhGk2qWmGnPWYsTNM06/h67nJDIV/5yD5s26FxZoJst8Vwb0jddAsEPPLtMlpB5EsG+3xKxZCka+amD/cIWtbDaD9MmQXJqlN80GcZnIRgxQ0uybRg++88hHImHKn3Nmu2Ph0SehJQaDTnX+Mye9nEvbdOBiYJ/SB4BdjwSMxAG/tzM5l6eMunzuBeoleAsbB7ULIQ8uwMu4/BsgXLrnCpbpC0bg4JigKlLEaHylSlJPMusrj8LkEpq2nbFjPYU2a436OuMUl/Cwz1RNzzhQxv+VSGRaudg34STJll8eMv5ciNlJm+2OYN77I452JB22ZTh1EcTBHpIpajWfXmBH/0rRqqp0x8w1BKEJZg55qA3FDI7KUOb/rDDE/cP8KsJUnqmo7d4lkcjfj7e3cz0i1444fquPSWWnatUQSFNKMDESuucWmca9GxMyBWEcQWkW8xNFAkDDWppEXoC4baBbvWQrYXpi2YnI19IpAS5l3gkK4RbHtu4pG6X4ItT0YURywzK13C6lsTk4Q+SeiHYsMjMX37DhB6MmOK4izndK/s5EFagp69mp4dZ3fYfQzSgoUX2cw932brMz7lQoTQDiPDHg2zNatusYniiGceGGW0J0nZzxNHioaZcM9fpjnvqvEtnVIu5pf3DaBDh+69PnGsmXeBzTM/LNG/J0mgsyQzgivuSvKBL1efNYSjYtj4sGCgxSYKY+YtrWLehQJpC378DwMUcj5T5yZIVx9adVjKRzz/8BD/88P76N6jOHdVHQuWV9PysovyXUqFgLd/porL73A57w0Oq25JUMpphrpjQt+kTYKiTX9PHhVrEq5F5AsGWgXN6yD0oGnBkcWOkxgflg3zVjikqyukrg+QunOGk3rXDs2GR0PKo1QEwGDlje6BVNbrFK/voz8Mls0RxK1iYw2eLZsxmFD06ltdXnwoRGiHoa6QoU6Ytex0r+zUYvk1Dl/4eS3f/GiO9m0hKJfnH/Io5mOCsiLbaxGrIWJCpi4S3Pv39dQ0Hsvi1ygdEgsPiUvLppANv/HpbY6JKJGqFtzwgST3fHFitKUdL9b/SrDlCSAWJBIuTfPgnFUuURSS7Yv54d8Ocf/fdjF/eYLG2S6WLRjpC2nZ7BEFEomLbTm4ScHldzk8k7MZ3qdpnJGifZNL716YvshMEPvI16rp2B7z//+PAi0bI7xCCRHbDPdoRkeyNE5LUd+UZKhTsPYngm1Pwuq3wYobGbfvfRKHwknAjR8ym9sDf1NExg6jwyFidx6o5vFvC27+I5h93uld5+HQGqSgIiusUUpQLvzet531mPTQD4KKYfuzMR1bRSWHbmG5mtVvTlI77ezaHSwb1jxUJPQskDFuwmLZVRb2xBbE+72oqpNceHOC9q2Kwc6QTJ3NPZ/PYCct9qwvEIQB1783zR99fRrpmmMX2JRyMQ/fN4gUFjX1CS69tYbYS1IcsinmfC6+Lcm9Xzq7yLz5JXjhQSgMmMLBQl8VbbuzJDOSfetjWl42FrHEYnRA0dMc0r0nZLgbiB0skcQSLpZIUxgSpDM2TXMlTz1QoDBi2gydhGU6ECqBkdomyVV3J5l3vs3ogGZ0MCIKYnRkURyVDA8WsKQgkbApFwSd26B1U6XVbfYksf8+WHYl/H6Qp14uhwSlGMt2adkgSNfB1Pmne6UHMNQOO9fEFAal6a0HLrjB5ZzVr28fdZLQD4JlC7p2a3Y9J4jxjWKVhEWrXWafd3ZVT6oI9r6sGGqziFVIFJiwe1XD73/vREciKRjpcin0CdI1LgOtkoEWhZsWvO0zKe7+3JRxq7IPRzEX8fC3h3AcmykzqiBMkuuVCCFIp20uuDHF9IOIaaKjvwXW/BD6mzXZAZ+BTk2oCyTSgsWXOFxxZ5K+FlOnIC0J2kJoB0ukKiTukEi4JFIONfU28y9IMGORy7r/DBjcl0TFmnIpJCwkqG4SzFhy6O+ftsDiqrsSNM6y6GuJ8D1FGJgcez6rGc2WcSyJZUsKg4LWjaYDoXYqZ2066WRhjNRTh5F66MWk0y4d2wSZOpi64HSv1GDn7zSbfuvjFc2UPiHgwptdFl70+ib01/fRj4NpCwSaCDADHVWs6d2rgLOr2KJ6iuTKu1x2PaMQ2qW/PSLba0KdZzs6d5p55Eppcv1lkpkUWkTc8AGHa951pEetlWlUH8/T04TEYZr+9iKu7ZKpTtLfXmZ0KKDqccGya13SR+qpTDiEHrz8C+jeAYXRgI59JYSWOAnNJW9JctsnMiil+LP/28hAZ8SGR8vsXBMw0heTHzTN9ulqyYKLHGYsdLjw5iSzFjsIIVh2Rcw/3p3Dy9mUiyFdzQVeeLCauumwcPWRa7nizgSX357gqf/wePz7ZfpaYiJP4ectOnaHuFUl5i6oQsc2bZsEvXthzvlwyTs4K7s5ThacBNxUCb//6G+KyNgmOxSgdZ7Zi6t46nsSASy/4fSuEyA3eGCSokBiu5q613kPOkwS+hFomidwqktEORtQxLGmdUtEMeuQqTvdqzt5EBIWXmQh03nikoOOFRseCVlwkUPi7IoSH4HuXdDXGtPTUSYOBGGYI1MvePDLAedf59Iw/UAhhdbw/b/bzvv/4jzEOGNCNUbcIgptulvyJFMBYT6N0j6t28pke1xmLX0tj+7U4IWHYOfvoFyI6NpXxMJFCZ/zr0vw7v9RbSrfhUBrzbS5kjd92OGNHzpUs1VULCIpTRRj7N/zljvc+6Uq7vtEGaEdciMBPXs9Xv5FktppMGX2kesREq5/f5Kr3png518p8cJPfUYHI8JyjF+w2b25QPUUi+mzUqBsmtcJOrbCkivgsjug5gws9DoTYEjdhJR+9DdFRGxTGBE0bxll3tIanvyeaStcfv3pXWdhGNRB43WFMMWvr3dMmjSHobZJ0DDTQgprv4fetSsiP3i6V3bykakVLL44URmpqtm9LmDkLNF2PxZy/VDKRoiwGkVAMavpb43p7cjxtY+3EfqmRz/0Fd/83BYe/F/NR535PTbLW6OJA0E5Jwh13khrFmO2PTP+4JKJhE2Pmj59vxjT01Yk9lMoHTJ3uc1dn8+QSIv9BC2lREqJZVlH/RkjdDAkL21Ycb3L1e+2QQh05NLTXqZ5XcyOZ0x04Ghwk4K7v5Dhr35Tzxs/mqRhJgg7QCAoDkt2bx6lfW+BoBjj5zTbnoIH/js88V0mR24eBU7CTP+75y8zCCtC6ZigLGnblSM3FPPkv8K2J0/f+vpbzBCtcsmsDQR2QpCpmyyWmMyhHwatoGVjTM8uU2whhUMUxuT7UnTvhuKIsQSr6k/3Sl893JQAYfTJY6Xwy4oLb0zSOPd0r+zUYtPjih1rSvh+hCZCEVVkTGP62suMDvksXp3hSx/cwtMPdZNMW7zzM0fGak3bWj9SuEjhIJAgxqaQGe/edgSXvs2dsG2PbZth7U8g263J9pXJ96eJdIGGWXD3FzMsvfLAgY2R+sFkffjPwd65OCiH4aYEc8+z2PKUR2EI4iimXA7xsgnqZwma5h17nYmUYPnVLhfc4FLKaYa7Y6LQtLqFJdPqFsca16m0urUJWjZAfhCqGjgr0iInE5YtmH+BTapasmONj45BRRaFnEcq7dKzS5KpPz059bZNsPWpuCIAFlZGXMN170tS0/j69lEnCf0wWK7AL8Cm3+hK9aRACI3QFqVhi+6dsGeNGdbRuR2K2YlL8EKYENszD+TRkQ3EpDI2Sy47e6vdS6Ow/lcxu14qgdZoNMbLVmbUp9Ds3Vjg8ft7adtRBCCZsbj70wuP/KzDCF1iIYSs0DlIEkRxzE0fTE7I7zM/aIrgurdDbsinpwUiXcRNa657X9LkW4+iRT8emYvxihAOQqpa0jTXZv1vyqjQJgxjVKQpj7hMOwdqGn//mqunSFbfkuDCm1yGuxXZvogoCkFZ+AWHoYECQggcx6Kch8FWwc7nzL0sgPqZk6HbMVi2YOFFDlNmSfasCwjKoCJ52kn9pZ9D80sRxWGHGA+JRd00zc0fTpJIv7699ElCPwxCQBzDcw/mKzrBqjK8Q5CpcQg9TeSDXxAMdzPhCV7HsG+9ZqjdItYHVbtPkPWfKJwkbH9G0bnRDOABQFRIvbIXCAF+WRsSQuCmJHd9ev4Rn3VsQjcypYkMXPPuxITbaLSCZ38AO5+D4mhlUpzSIGIuvi3B+/+hord6Eg9LCGiYIXGTgu3PxqAt/HKIJWyEMK1sifTxfVZNo+TydySYe75NbkCRH44J/AiURWlUMlwhdtu2UBFkewXtW2DXGhOKr5sBybO8luR4ICXMW2Eza6nDlic8Au8AqafTLt2vMan37IaXf6Xo3O1RLilT4Y7FzHPF/oK+1zMmCX0c+EXY/rSmMGSGT2gt8EuCgZ4ifjEi9BW6spNFwTgE//wBgi+d4QTvpgShb3KkSsXEKmb2kiTDXbDzWc3u5zVDXZpsr7m5UzX8Xk/rTMRgO7RsgPW/BDsVses5XWlNPPhYxrxIuZ/MEeY7uvNTc474zGMTunlMpDVzl7rMWDKxQoEv/xLW/wq8XERHc4HYd9FELL7U5iNfrzplBorlCJrmWXTuCBhoAx0LSqWQqOCSaRDMWGyuw+PFtAUWV92dZOZim86dEUGl1U3HkuKoYnSkTBxD0pGoSFAaFQy0wo6nobcZ7ATUTZvsZZ++0GL2skNJPT9G6rvla9bStvlx2PFsTH+HRxyZWhfLjbnoZpNueb1jssp9HKSqBVNm2fTuEsR4jCmCiViSH4HiiAZClCxRVWOTrnHI1Li4SUnog2UJ5Igg22PyPU7CKM1NXwxzVxhFtrppp/soDYSEJZdLZCYHRRvLCenc5dO/x8b3NFqD45jCJWkL6qYKFl8BF9zEGet1qgh69pjimZ69MNgK5TxEIYQFqJ1jDDInKbAsjVcyBCw1xlATAqENmWutkZxgYZsAy9IQ26g45InvmsKyGYtg7gUwa6kZA3qmYtca2PAweDnFQJdHVMygdIGZ5wre+VdpqqecWuOkbprknf89wz+9J8doj025ENDVUuDlX9TQNG/8Vrbfh1W3uFz0Jpcn/8PjF18rM9wdo7UiKEkG2wW9bSNMmelSX58kXWMT+YI9a43XXtUAiy4z1/yp1GmIQ037FqNNP9oP5bzGdk0ffeNc05efrDp9BvXKGx0++r9quO8TOUpZCEqS1l055lOpfufUVr/37oGWl6GUjSGoRTGMxKZ6Cpx//SSZwyShjwsVm1D0WAXzGLRQoCGqKBOJWFLIQimrGdxP8A7pGptMjUsiKYkDCCxBSQhG+2Dfy+C4GOWlBYbcTxfBa61p2wRPfA8aZlr07ZHkRyNGhkq4mRT5EU0cazwB0pJIISkMSwbaJVt/K7jgZiOx6aZOL7EHZejaYUaY9jVDbsDI9UYBhL45lwIQWuNaEJQtGuYXWHRJkjgQbHq8TLlggwgxxC5QQiC1RosYIeITWI2gZopk6ZUu258NEFKiA022C0Z7zfm3Dzr/81fC3JVnTni3vxU2/Ary/ZrcoE9hoIpID1E7XXDLH6dYtPq1qe6bucTmni9m+N+fLCJxyGdDOneVeeHBFNWN/N4iufEgJNzw/iSlYYeffTVLFFhoImKKCGyyPZJsj0+iukBtQ5KmaQnKkcTLCbK9xmufcS6suMH0tZ8s9OzWbH4cundpSjlNHGlUBHGkEdLksm3XPE6dL7j0DmMUng5iX3mjw8eOReoCll93an737rXQsUMxMuQT6QNGdtNci5U3ThI6TBL6uKiq55BebIHATsC8FRbdu2O8IuhYolForfZLDxqC14cQfP00h6o6m4Ttks5IglDgCygMCwbbYc8LBxH8QnOjvhYEH0eaTY/ASw8r8n2adJVEOzmmLhBYCZ/dG0uM9ig8P8axLZJpG9uxqalLEUU2QdnmmX+XjHRLrnyXJl3z2m0uhSGTzuhvNTm13EDF+/Yg8g9K62qN0BqhNAVPIZyQ/tGQdElw7TvraV0Pga+wrBApqLTAaBAaqS20kAhtZnEfDwQCITXpKpcpU6u55y80u9YG7Fnn0TAlSTIl8UIjUFMYMud/74smglPTZERPZi6F+RdyWoroyjl48SGTNipkAzpaigjt4abh8nckuPqdr53knWXDhW90ufmjEY9/J4LYYaCrTMt6h42/trnqXeaeeSUoF8CyJXEgcZKCWUsthrsUpbxP5Am8nEWQF/S2j9A0K0FdXYJkbJMtC/KDgrYNJsd+7lWw9GpI15zgAiqFhKWcZs0DsGetppzXxJFCa00cx2ilKzULVCI+Ekta5IcF3bslc84XXHkPNM597Yn9WKT++H0W2R64+O3HX+9wPNj7oiH0oBSRHwkQWiKQOJmY894wmTsfwyShHweEsKlp1PzZA3VsfSrgqR94NL8cVojdMtXRFYmRwwl+pAdGewBCZLLE9AUuEod00sZNSPygQvCVDX7P2lNP8Co2G8mGXyn8oiKIQoKy5so7kixYJUkkbFbdLKmd4oBQ5AYVe17yef4hn+YtoyQzgsYZVdQ3ptj0G8gNSK55n6Zx7snfWOLI5L/7mqFzh9Fw9grG845882hJQOkKF2uiSBPEEZqQQi6irzXCimsqFe0uDfM8LEcReJLQg1SVjZcTlRYYAGOsCSQHmtCOBxLLkriOTc9OOO8aweq3CDb8rIrhzjIyWaJptovQDvV1NsQSzxf4liA3YI5x21MHNMhnLzMEP3uZ8S5PJVQML/7UGJheIaJ9bxGpXbQMWH61yx1//tqHENI1gls+nqL55Ryt6wWBr+luLbLltzVMXWgiRK+Ey7QyKoFCWNQ0xfyX79cQBfCb+8psfMynMBLhFUzL21CnYKgzIFFdYMrUFHVTEsShoJQTDHWYaMbcFXDhm6Fp/vH8ckBA2ybNmh9Bz26FUoowiAmCiGLep5jzCUNTxGcK9yTJjEO6yiVdlSAObfastYwx/U7J4ks1Qp4hpL60hhcetFCxEfBxTwKpl3Ow9QkY7lD0d5exSBFTRmIzZZbm4tsSr/6XnCWYJPRxkB8yYdz9vp7WhJ5moDXm4ttcLr7NZetTAY/c59G6KaJc0MTBAWIfg/l3gBIhSoEsW3TtEAg0Gp9knU9do4PAob7WBiUJAkFwsAe39qAQbYXgZy97dTnYDb+GDb/WBCVFLufRtS+L5/tc9a5Grr2nFjd55OZw4Y0Z3vZpxYP/NMgvv16iq7nEQHeJWfNraF2fom664Mp3mhzfq0FQNsTW22zC6CPd5rkogMAz4XNZafLWCmw0paJGy5AgCBnuCckPWlgkKmdDorVNRB47Yb5LJymJdYBMSAb2BhRGI9Sh2ZX9leqvBFppGubFpOph+69CPFVCo1Bli9695vz34JGoDahtcHBdl7pam0gJIk8gpCA/aDxlJ2G+08b5FeNu6akpPtryOGx/CvxCTG97ER0m0XjMX2Hz7r+uOqne1omgYabkni9m+Oq9OXTBppCL6N5bZN3PqmicyytS4YtDXSnyixFCkEgL6qcL3vu3Ge78fJoXfu7z3AMePXsVXtEjDiRezqI7H9PXOUJtY4KpU5N4yiIoCbYPQfM6aJxncu3nXQvu0YIZAto2a575AQzsUwRRTDHvM9BdYDRbYtqsDFf/QYIllyaobbIQQpAbjNnzUsDahwJ2bRilvinNtFnV9O1zePSb4Bcly6/XyDOA1Nt25ph3bg3rfmpy6q+W1LUyKoUtG6CQC/GyNrEuGzPbjjj3siRzzpvsMxzDZJX7ONizVrBnLYx0WcTaQyBJ1sC170lQ1WBcpanzLa68K8GqW1xKWSNkoQEdHXClhADblaQyNqARlgYZoQjQShF5FsURo2g10BOSyxdRxJSLmqR5C3EAYRmKI4LBDujcCjueNT+9zcZbTaSOn0h3Pa9Z+2NNYThmsLdER3OWKIDbP5vh7f/l2ENJbEew4poMioCtv8tD7DA67GM7kpEum0y9YMaS8TXPj4b80IFjev4B4yXuWgMdW2CwA/y8CaWrQEOssZSmHMZEKiCXK9PTUWKwJclQd8Rov8YvCkOewsdOxiSrFKkaaJwjWX2byw3vT3H9e5P4Jc1vv5WgkPcJA4Xm4Dy5aWPTxCginFTM7Z+afsTax+ahS+FUhGUEKEkp69C6JaCv1Wf51Q6JjCYMKudfRERxgFYQe4JSVlIYkvR1eXiBRxjFxIEmlZDEgSbywMsLhrtMjcDu500rWd8+043hpl99/r19C7zwExjpVoz0eOT6U0S6yJQ5gjs/l2HxJafX7q+bJqlukGx+PEZoie+HEBlDbcaiEzMi48C0PXVvc1EE1E2DN3/8APs6CSOocs27kyy7yiEKNaWcIgoVYWgmvHl5i4HegHLJR2iBY0miAEb7BV07YfvTRo2wuvHIcHz3Lnj2fujbq/HKEX2dBXpbQryyx22fyPDp7zRx4Y0ZZpxjJIjrp9tMX+iy/A0prntvmjiO2PJkwFBfAaU0iaTLcIekab44LRMhpy+0mL3UYfMTnrlPI5vhgSLJtM1Qh4XWphj0lQorrf2xmSFQGo3o3FsgjqhEz2xmLhG8879VUdM0sTpITiUmPfTDoGPo3g1+XqP1AbfNdsYPe05faPGRr1fT36p47LtlNjziMzoIYVmChtDX2G7M1FkpkimLcjmmVIjwShEqjtE6Igp9dGxTzkq8UfZ7cMnagLqmQz34w0P0e9ea1pp0HUxbcCBEO54HH/ompJ8fUAz2evS1hsQqYs4KzR2fPbIt62i487NNbHqySPNLJSydorM5T+hrNj9exYzFx/aaBtuhf5/xwnv2QGEE4tCsLfQOhM81lfB5qPHCGGFF5LMB/W0RdlyDQqMRaG2hGUVYCjdpKtedBEyZbbP0CodFqx3mnm/TMPPQk1dVL5l5YZa2DdZhZH4oxEF/Hx1i/+s02ngQNjTNTXDNu5Nc825DGO3bYzY9HrDnxZD2rRFRCH4pJvR80BajfZJcvwn4t5JjyhxBMmWTcByqqm2CEIKiMMZdu2mPtBNG5WzWMph7vnk8EYIb6YZ1P4eBVk1uKKC/S6N0nmS15rr3pbj4Nveo4jGvFWxXsPpWl23PBqz/pSYOJX2dZXY87dA4x+KS24/hER8Gr2Sut0o/gzGyjoKFF9ksvKiaQlbzzP1l1jzoM9wd45ciVGBTGJaUhiN6kgXqm1I0TUvgx5KgKNj0KOx81nS2LH2Dybf7RVj3M03vLk0xH9K+d4Sw5BCoLHf811ru+fNjC8wnUpJ3/+VUnEQ/D305x0B3Ca+kCP1anv43h5s+BjMWn4ZCuZscPvaNiqc+GiFih469BeZQxbqfuyDgsttP3FPf/BhsfATCsmK4z0f7VShyJneeirnw5iSzl0165wdjktAPQ9sW6NimyQ4GqIOeT1YJquqPbglOnS95z19nePtn0zxyX5nnH/QojmjKBfDykt6CJhY5GmckmbMgg3QkpWJMqRgQ+iHF0QghIfRjAu84Cd45jODbDGEfjeA3Pwa7nofccEh3aw6tI2ICbv+T6eN65uViRBxqquoONa+lJbj7zxv5u3s6EVhInWKor0zHFofmdUlmLDG9wiqG3r2V6vN9MNIFpVwl6uCbRylNtb1QYKEpFzVYxtAY7g0Z6bbMIBD0/vB5WAmfOy44SUEyI5ixyOHcyx0WXewye5lFpvbYG1vDTMlbP53mXz5QRlRy5gdwWG/6MdhMcEBI5sDLJHOWSt72mUN3sLnnWcw9LwWYIp6da0I2PxGw96WQvhZFFMQE5YjA8xBYDHXISjlehEjkaZzpYNsOmbRDMn3ouR/qMARiu2bwyIxFMG+laZM7asREG++nfSOUciFdrUW0tkDErLwpwVs/nTry6zhNqG2S3P5fM3TvytG316Zc9OlpLfLSf9YwdSEsvuz4PkdrU0Ni7iqQxxFOqqoT3PqJNLd+Is3250Ke+5HH5sdDgnKMXw6RZYuhDuhvz1E7VVLfkKSm3qHkC1peNl77iz81lfGjAxCVQzr3jhKWLAI1wrwVkjs/e/zzXQ8Y1CHFUZe2XaO4dh0tGxymzn/l3vCrwcqbHD72zRq+86kc+eEYEbkHSP1npsLzeEldRSYt+NJ/mhbhwT6fkV5NrHOMVQkuvMji7X96hrSGnEGYJPTD0LMb+ltihvs9lB4rMY2YuzxxXOL/VfWCuz6f5i2fTLH2pz6P/WuZwfYYr1hGaIuRbsFg9zBTZiSZNiNJY1MSLVK4S4wusVMVURoNad8eGc/VOw6CHyuyOgrBW47Ju047RzN7WcijL+QRWhLrEDsZs/K66iOOY6jH49M3PkcpH/HlX17BopWHil2f/4YqaqdBri8iFiEiStPRXCDbb7PupzadO0z1eVCseN++yYeNtY8BWFqTzyusREjgRwx2hPgjtcRamaC3lmhiQgo4CYGTNCHRqgbJkksd5pxnvPBZ5564lS4kLLnU5ur3WDxzv2KssuGgV1TIWiKOOjpX7C+cO+DLS2qnaW76cJKp84+9rqVXOvu10P2SZueakB1rQrY/G5Dt1YRBSOiFhL5Gejb9LWOrLJOsC039hXaoqzUFdmXf5N9zA9C314R+7QQ0zDJRk3kXGI9xDC88BFufBK8U0dVahDiBJmDpFQ4f/uqR18TpxqxzLe7+Qoavf7CAxCafDendV+L5H6WpaYJpR6rzHoE4gkLWVJNrHZKqPjH2O+8NDue9wSE3pHns/5TZ8Bufoc4Yv1SCyCY3ICgMxFipIvVNSRqbEggl8VOCuStg7gUx3/lMkaDkEOosiuhVGdSxtiiXHDr2Fdj2VC3zV1rMPPeEDumkYeWNDp+9v5Z//Wyezh0RMrJfEamv+RGsf9ikGrNDAUNtglj7gLm/mubD2z6TPu6ozOsJk4R+EHIDphDLK0ZYqpqYHAKb2ibFte89sasnWSW47n1Jrn1vkqf+w+O33y8z3KUoF8oQW4z0CIa781Q3WsyYlULHNsKqkHNDilWfhrqZIV17I3avDWnbEhFHr4zgbRsiXzBrmaZzbwB+BsUgipgVVyVJVR1JPE/+pJuRvgAQPPIfHXzyMEK3bMHqN2V44t9LJtesAuJY0rmnhOvW0L0ZojGnt9I+JrUmV1ZIJ8QvR/S3hsTFGhRjBH4gfO4kTe9tIiWon24z7wKbJZc5LL3coX7GycmZVTVI7vqLNCM9BTY/oQ7y1M38c7Qh7OII3Nn0MrEO0EQACBws4WKJJEJYFT/eIlkNV9yR5Jo/OLHrJZEWrLzJZeVNLpBhuFuxa23I7hdCmtdHDHdXPHhPo0JJecTCyx4496m6gPqpCaSw9xfYhZ7AkoJcv7muNz5iwvFTzzHRjZb1EBQV/R0lomIapYvMPk/y3r+tOiM3SyHgvKsd3vonSR7+5witJAM9HunNDi//wuHq95i89bFQzmqCsgIshAUNs15ZyLZmiuDOz6W583NpXno44PkHPXY+HxF4MWE5Ij5IsKZhmsvymUmclGTtTz0Gm9OEehCt45NgUIdIYTM64rNjTYHVb61h5rmnL6Sy8CKbP/p2Dd/8WI6unUeSugAuPQapb37URBJjD0aHA7r2FtBaYlIkEjejuPz2JMuvmaDTjk4xJgn9IPTugZ7mmMFej0iP3RSaKXMsll7xyi4gIeD6e5Ncf2+SLU8GPPLtMvs2RPilMjqyKAwJdg3mqZ1qVUJ1LtmyYPOjkKl3OOcSh/d/KcWUObD7xZDdLx5K8IFncrA6to5K8DYOU89zKOVjnvyPErEdokNTCDZn2fhhq31b8wjMMe9+OT/ua+YsTaLJ7w9X69ildUvE7CURYSjRscaLI2IVMjoQMtIXI6Nq9CH57xzS0bgJge0KklWCmUscFl/iMHe5zeJLHNK/J3z+alDTKLn376v4wRcLbPptgFBWZXWVcLqwkTpGCxfzzdpQIW8j9+ogsBBIqurh6ncmeddfvfpQYMNMyRV3JLjiDtOS07kzZvcLAbvWRrRsjCiOxoR+tP/cl0Yk5axGoumgSE2TIlPjkEg4pDK26RIoCkojgpFuQBjZ4tyQT3GomkiPUDsN3vjRMzsvmawSXP++JNufzbHvZdNL3t1aJP1ULTMWCS667djvL46aVA+Ye/NkhKfHOl/62xRP31/mhZ/6FLIxfsnMEx/tl/zuJ2VatipW3eqQasriDyqi8OQY1IoIqRLksyE7no1YcqlD1ZRXf1yvFLPOtfjj+8Yn9Rcrnvp4pP7c/cboLOU1I30+fe1FUFZFr10gLMXFtyS483OTofajYZLQD0LXTsj3afyCjcI31e3VisvfcXLclRXXu6y43mXbMyFP/FuZHWtC/KIPgQnV5QcC3KoSM2alqapzGO0TbH5MsOt3Jhd+ydsd3vJJBz5pcpu7XwzZ/ULE7hfGCF6PS/ASaN87wr7NCW7/syq2PFNix5qQ3Khk2vzxFUyGuyOkMLtdX+v40qczz0ns92idtGLqnIjFq1Nk+yP27S5RHD6ofUxLNAJFATthipgcV5Cqliy40GbRxQ7zzrdZuMrGeo2vyqa5ko9/s5oH/rrI8w/5BCVQyq6QukIIB0sLhLD2Gy8CCwsHKWxsx2L6Aps3f7SK6957akQuZi+1mL00xQ3vN//e/YIx7natNQV2oa8I/ZjQ80Bb5Pol+QFD8JEeJVMrydQ4VNW5JFNGq76QC+htEUR6BDetTWThXWega34YGmZK3vd3VXzpjlGCgk25ENK1r8Dah6qpnQELVx39vUpxSIviydRkmTpPcvcXMtz5uQzP/tDnxV94tG6KKec9bEdgkUaVXFbf7LD52SydLQXmLBu/gvFEDWpFSBBYbHzC4+p3n15Ch+Mj9cvuMm2ZzetMiL1rpzG2sgO+GY2qRSUiJhCW5uJbE3zgy2deKuhMwiShVzDaB717NdlBv5IX1YCkplFw/rUnV7Zr+TUOy69x6G2O+c9/LrHxscBsxmWBn7do3xUhEgWaZqSYMtXIkzavE3RtN4U1511n1MSWXOqw5FIHPnUUgg81gR/jFwPSNRI/59L8vIUjBI2zYkqjkKkZ3xsr5jSycnmU88ZYODzPl6mzQIO0NTMWJFh8YS3FIYvkzBh/pAat80SisL/y3HZM/vvcKxyWXOaw+GKHxjlnRstJqlrwgX+s4qq7kjz45QJtW0ICTxCULQQWWkRI4orMgEZYkEhZZGptLro5xTv+pIq6aa/d7bTkMvMdvqVy7jc+FrBrbcj2Z0L62xShHxGHEaHyEJihI+WcYqgzQFtlUmkLv6yItAShOP8696REFl4rzDnP5v1/X8V3PukhtEN2KKBzZ5n1v0hRN83UDYwHFUI5VxmuVBkffLIhLdPieu17EvQ2xzz0j2X2rI1JpWzaNmvCWKFjjS3STJs/fojghAxqrUEo0EmK2Yg4OM1tCRUci9Rf+k8Xv2S0Jdo2mimVaE12KKC3tYjSY+kvgayQ+Uf+pfqMTAWdSZgk9AoGO2C4RzE6HOwvhhMyZv7KBDMWnZoQ5PRzLD76L9UMdiieut9jzY898kMRoRcjPIu+VsVg7wgNU1NMaUygI8meF8zAiMZ5cMEb4dwrD3gZRxB8xYvb8buQ3r2KdEJQHNYEQUxhJEQRkkiPT6iRpw8q+NLjEnoybW66OFIMdYfU10Gikq9vmJ/HL2nTPnalYzzw5TYNs84MAj8aFl9q8/kf19GyOeL5n5TZvsYjN6TQWhCFNpalcZKCGYttVt6YYNmVCWYuspFSHtfM75ONoQ7j2XRscikNuMyYB/WNmpG+kMJIQGE0xC/HRtZWV/L/kaSUG5NAUtRNs3nbZ16lItBrDMuGFTc4XPWukN89oCB2Gejy2POiS+M8iyvuOSA92rfPSIfm+iFVq2lcoOjfJ0mmBakqm/6WUzcpbPo5Frf9cRU/LYS0binTMD1BrCKywx6xLpOpGd/jPF6DWmuFFqYHBB1jOZLffi9AfDdxZDpBmxRD3QxTS6HVYf+tzfO1U42how/r6NPK1ChUTzFGy+ENfzo+cp780Ugdqtj2pIuKTaFiGChG+n2G2sc885hJMj9xTBJ6BX3NMNCm0L6Z4iOwSNXo12QkX+McyV2fT/Omj6b4zX1l1v7UIz8c4xViVNky0qftI0yZkWT6zBQ6knRsNWMeNzwMS64cG5Jy6Oce7MX9+huKn311hOp6GysR45ViFCHSGp+AVEyF0E05imn1ORSWIwCFEDZhoAlDTXk0JE7E3P3FKla9yUFO0Cts/gqL+Suq0DqD1hqvqBjsUEydL/frrI8R+GtJ5KFnJvi1bzU1H4Vh00EQlIFKFwEaptTbJNIWjXMsets8cn0CVQlfmpdUUgeWJplyUNGZbWiNh+oGyTv+1EjD9u6R+J6is7nAyw/XVOoxYO8LMNqn8cugAlhytcZJGs9PodnzomaoVZOpg1W3Cc6/4eSv0y9rcoMRpcEqhvsHsdwQLwiJdfSqDeoxESRpaYSI8Ms2Pc0RU2oSBNFhHyoMSQ+2H11KWEpD+uNdzhpjSB0rJWY5hxJ65VlmLqgh25ujmD1A6lpXUVXnkBsJGOgsEZcyhDpXWapEWIrVk2R+Qpig2+3JhYqhv1VTygWM8ZZAUNskWH3Lazclo7pBcNdfpLnr82me+HePx79XZqij0hKjLbI9gqGeERpnJmiYkgRt073TiIxsfQKWXQPn3zD+sAitFbpcz2BpFK0VoVIoHRJ46sgXA7YjgXhsP0GO01ZjqoVB6wivGLFj3QiuqMduK3P9vROXzOHQgRdCCFJVgjmHFYsd/ppThb5m6NgGrRvNaM3QMwQeB2bjFZUugijShER45YDh7hBvuIYYVYk4GRJzU+CmjExoblBBbJEfDmnbZPQKDjcKz3Q0zrF4/z9U8ZX35AjLNqV8hO+XWHBRhhd/phnYC0GoiZTClQrf06RqNU7tKG5K4hcV3qiinBU8+T3Y9jRc814zd/1kQUWacjEm0kU0mtDX6Mo5efUGNQhLMGORzazFCaSwKA0JhFJjAZkjoKnoP4zzfKxBeeLIiH3FGEAzvm585f+1Ptq8eovZ59TQtitHuRAgQ4eOvXkyNQ6FEQ1aoMjt/zDLVVz0xgQfnSTzE8IE3nJPHoY7IdujKOTC/eF2LSPmLHdJVZ+GXJQwYx6vf1+Sp/+vx7M/9OjaHeMXTcvbcLdgsCtPTaPNjFkp0DaDbYIXfmI0uReuglW3HaoWl6kDpQNi7aN0WPHWwCuOr5KWzMhKGE9g2QLHPfIu9UqGJMag0YQ6T8IF5NEVuCYSxoh67HFMPfBUEnhh2Oi4t24yZF7KGRL3S2AJ9g+ikVozmo8RTkhxNGCgxUJg7+/hV4xiOZpkUuAkBLVNFitvdlhxnUuySvAPd4/i5Sz8csQLP/dYfHmS2ctO2WGdMiy40Obtn03zk78LIbbp3uvRudvmnEsd2rfH5AYCRgY9SvmQtlbJVXel+fBXE7z0y5Bdaz3KhYBMbYJ0ZNO51eKXX4Wr3wNLrzo55zhdD1R6Ow5+BE6CQS2RFiQSSVxRTd00i/SykEe/IvGVf8jrjYpBDIkSDdMt1OEhd2Xu93StNPf/YcWDgQcqEqSrLWOIHPz/EorDkHIFySobxjmslCuYs7CK1l15Ql+hI0FhWO8fZjW2l1RPgSvvTHLH587M9skzGZOEjtFEH+zUePkD1e2pas35157eKT5CwnXvTXLde03L26+/ZVreQt+DwLS87R4qkanTNE1LUV3vMloWbH7MzN2euwJWvsnkB+ecD8opIAJZqd42fwa7xi+4qWm0K5rJUD/dHjcEl+0fe++BFj+BGXYx45wzt/Xp1eBUELmKDXG3bTbh9NyAGUbjl4xqlsQYEjaaUslsgKViwFBXSFysJkZVuggiED5uWuC4ZmNeeJHFsitdVt7sUj/9gFFWymmu+YMkj98nCYOQ7t0+A60Tk9ATacGVdyf43Y8DIyecVTz23RIX3+awdU2BqJgmIkCjiZTHzjWS1i0WpbxieKDw/9h77/g8r/L+/33OPZ6paVm2ZMt7xNuOs8iAOBMCCZQASYFAgLRQoKWFlv46fnRRRuFbvgVKGZ0UWgJJIdAMCCGTDCdxYsex4yUv7fns57nn+f5xHsmyJTseciRZzzsvJbGscevW/ZzPua5zXZ8L3Cogj50ImLOgGhVY/PLbBr6rWH3lGNHqKVLdoK2jx/pCZ76h1q9lvwheGuwFUN2g8FSArwpjfGUFJUnvgaF0/Uj09Q12nOgH1r0qJ7opQ4c6R79PEBIgowUStZJUtz72OdqhURFNGFz+rhi3fCY6rh0I04WKoAP9bZDqDpBYBOiq4FiSCR9KMZKhlredv/Z44s4SW37u4hYcQs8gPygppFwi1QVmzopTXWeRcgS5fsG+Z2HOSlh2qaCqXpLuQsu00LLetqc05vdrWhhBoQfOtCwfu2CqY1+JI7PCj7ilWTYnHPJSQafOD72kRbzvELgFnUZ3i9rPXikdhRuhIu/pgS6DXR757hoCFehlUBkoshiWIhLTG6mZ803WX2uz7CKbRRvM4/ZZx6sFF94Y4RffSSFDm2LB55n/8Zi70mLm/NfyTowPbdsl9bPi9BzK0LTY4h1/EuWJH7o4efBUHzPmCC57exUrLq2mYY6NlJAdCHjpccUTP8zRfdAjzMXYtz1F7cwI85ZU8/j3DeI1ikXnn9mzbFpQN1tbwALjuqEW6Mg6n/NJDTjU5w2cIlg1aZJjmLeEAfiePm8/FqUg8BXhGHsMUf5731OjiuWGPz/U46SPjyIoStLFcu3NCMtlgYkZCWlekCDfY9O2A1pWneBLVRiTyaNYE0i2P6SUc8svH01Nozhr1e1nworLLFZcZtG5N+Cn/1DQntIlH68oKKUN2jM+nZEcM5vi1DdGCFzB3mcEB7fqit6MUKCc8nIi2fFkjjBQo87y1r2hjp9++zAAG66qG/Na9m0tIITUb+V/FCGzFtnMmDv1iqzOJkPFbIe364xQbkCnMN0CI4rZFKZSZHMh0vTIpT06W12MoGpEL/8golxpb0cF8WrJ4vNNNrwxwuo3WMSrT158Zs6TbLg+wtb7DTzXZdezDr0Hp56gd7fqGhLlSeYsSFA3W/LY90L6O6Cq0eOyd9bw9k/WEU2MfiaXXxzjxo/pscA//WoaKWxSveCWBlmwrJbn/9c8YRvcyRBJCBasM9nxiChn0MdvQ62AwBekuiDXLWjdlePtn0rwjzvrx/wcJ6/o2h9gjLG0+S70HgpJ9YajzsGF0PbE7bt9vCKjAnQhddbn4DZ/zKI5hd5MBJ5CCL0jCHxFMQNhqPvNfceg40CBSMTgyR8YXPPbMOPkZ0ZVoCLoOHnI9CnSg/r8XCCRdsDSiyb34U3TEoMPf62K7IDigW8WePIuh9yAj1vykCWTrgM+PZ2F4SlQoS+J2hEkfrnYRnuU97c77Hkhx/ILjm6fuej6mXz4i0vJpT3edPvcUd+/mAt4/hdZBLHhalyBQbwW1l5dsWUELTSHt+u2soF2KGXLxWxeeaZ7eKSYzQkCQuXSfdDFGdB2uFrEDTxy2DGd+YgmBXOWm6y4XNvEzll2+pvOmpmSTe+NsvV+F6FsChmP3U8p5q0WJMfWg0nJS7+Ezl2K9KDL4T0ZiqUodbMNfN/lxt+r4o131J7w849MMYO7v5QGAcWcQesrKZC1zF1pcuFbRTltfupYEcGKKwzu/QcXhl8r47mhFoTKJUTSMMdgzabjF/JGEoL5q4+/7C9Yd8o/3klTyiu69wdIAwxD0N8ecM9XiuzdHJbT7wFuwWL/rgxC1vDi/ZLX3aKnCVY4OSqCXoBiVhE4FgoXgSQSgyUXTI1bU1UveOefJnjjh+P84p+LbHnAofdggFMICEuSgTbobRukoTlKfb0FdgHhggxNQgwkJg/8a/coQRcCbrxj3nG/7+M/7sMvSSyzPMAk1AvVjGbJxjdNbO3BRFHMaAE/sE2fiRfT5Si8CEKVh9IoPVUukw9R0j2mmE0dVcxmR/RZeE2jZP11Nssu1v38rzZJ7lRoXmbQstbn0DYDz/F4+p4C665NTBlB3/+Cvuf5tEfb3hwijNDbkUXaFtVNHtfefvKh9cgpZgESJ2/Tti/HrqdqWLheMHvJ6V9nw1xJy1qPg9tslPIZvw11lJEDgqpnSuavnZxrV/SYzUTzMoO6JoNvfDhDxy49dihUPk5e0b4/h/VgFc3nCVa8fgIveooxOX/zryGlHBTSCoMYAToVbcdg0fqpFWVWlYdFvP2P4jw81PLWFuKWCnoYTIegvzNL1QwLhUEhV0SVDFRg89iPMlz93jSrLz25rXCm3+OHf9dFLGGx4pIo+T6btpctzEjIhuuiRxVfncsMF7O9BIe26WK2oWr00D+SRjdQFEt6blwh59Lf7o8oZhMoPBDOUWn0RRsMll1is/Jy66we/dTMklz1/gjf/RT4gUe232Pvs3oqW2wKuGy27YCu1pCu9iIyjOCqLKHjsX9Xjk/+cfMZjQVWmOQzLjsez3PBm6vOSNCTMyTnv9Hm4DYPhEAoLehnuqE2hAFIJAZ2MmTNpuhx2sYmJ3PPM/joN6v52h1pevZZ5Yp3SWbQpXNfnhd/nqRhPlPuGGiimPaCHniQTwcjajK1TelUFSUh4arbo1x5W5Qn7nR4+p4S+573cQtFhIogTZfLbk7SsTdCT0eazv0BhbzFlz94gL+4ewkLV53Y/jOf9vni7XtI98C8ZXGuvKWeXb826NqTJxY3WfG6KdbIfIoMFbN17ILeA1BIHzkLN6QuUBLoYrZMwSfEJdPvMdAukVjDZ+GUh9JEy8Vs9XNMVl5us/4am4Xrj1/MNt6YFiy50MKqShFkLZyiz/P3Oax4fWTSV7w7Beg9BMWMi5dO4qlenbpVAWY0ZO0bRj/LpzIWWAgfGcYZ7HHZ8ZjHoo3Waad/Y0nB626O8Ox9JQ5vj6JUUJ7SZ/LYj9KnsaHu1IODyoOBEJKWFSZv+shJDByfZMxZbnDrZ5J8+3ezFDMmCh8Zmgz0urzya4dFGyPUN0/MnPephvGXf/mXfznRFzGRZPsUz/7MI9Wt24GEMKhugGt/a3Kfob8aQsL8NSaXvTPK/NUmqe6Q3KBHIRPiuT7v+ds4i9dHWbzBBhHStd/lof/uQYUhjfMjxKuO3usVsj5P3dvPlz60j/YdgngsxpW31NO02KJ7l0VERLCiFvkBi4YWbR95LKUs7Py14uWH4aWH4NmfKLY/rDi4TdGxSy/Qybohp6rJUSXvlXRKd9sv4Mk74cX7dZq3Zx8UBsEvgfJ0FF4qhji+QzpVZM/2HJkum1R3QDGD7v81XKxoSKxKR8ZrNtm86aMx3v1XSa75YIyVV1jUz5FjOG2dXayIQAWCvU8beIGHWwxZvD5K8/LxHV4y3nTtgRceCGjdlsNxXJTyUAQEeKx5g81V7x49oeS+fz/EU/d2E3j6NXLRdUc/qFIKOlqL7N/qasFVuh878CTnv8kmNoZp08kSienjvC0P6E6a4WZtoXjuF/2s21RNXeOJjazyaZ8vvG837a8oDBFBChuDCDPmSN72ySQL1ky9GE0IXRM0e5HJsz/1y536ISo0cB0fQYSWlVOrrmOimHq//XEmNwC5dDgcoSvlE606t27L2qts1l5ls/9Fn59/p8iLDzr88G9y3Pb5BM3LIyy9uJ7LdsfZfG+G+/+llzu/1MHcZVFmztVub4PdHvu3lfBdHWUawiQMDPo6PG68OIFfhF3PuuT6A5I1Nr/8juDq34J5q/X3725VvHAftL+idGGYqwh9BaG22ejcIzBMePlRgWHBko2CC38DqmdOjLAPtOt2skMvwWA7lPI6AvfdI8VsAKEfUvJHFLMNVhOoI7PdPXJYEbCi5WK2ZRYrL7dYd02EOcsnTwdFNClYc5XFT/8hhQwsSvmAp3/ismCDPalTnaEPbiHEyduEFI4IwTiOBVYECBWl64BHIXVm1e6mDRe8OUJXq8//ftVBDvmwK4tcf8j/d/0rvONTjWy6pZGG5qPrUApZn+ceHOR7n21n4DBlMTeRWETicPFNUS666bVztTwbnHepxaYPuDzy75JAOUBIKa/Ys7nAvmcT1M+lYjTzKpxbynUaBD7DHgh65i7MmDt5FtvxZOF6k4/8YxXtu2Lc+/U8P/1KkXf8WZSaKFQ3CBrnmSy/KMlz92fZv61IV2sJtxgiMIAIpjARmEhhobwoWx8MuLuugJOT9LcmcMJB2nZnQVTxq38WrHoDpHsVrc9DblChghA/CAmDkFCFhGVhlOUWdqNgYBqSrQ8JWl+UrL5KsPEGXZl7NhkqZju4TbeUDVWjO4Vyl33Zmc0QikxWF7MVMi49h3yknyQsF7Mp0ghDYcf0bPeqesmq11usu9pm8TgXs403M+dLNlwXYesDBp7nceBFl+59k1vQu/cr/TvAhPIYX93XHI7PWGClQCgC5eO5kl2bPeauOrO8b6xKcu0dcTpbfZ67VyBDG1Vu4wpdyQ8+18N/fa6DhWsjNC+JICX0tfvsfb44YkNtlyNzG8sWbLguyq1/kZw0Wa3TJVknuP63Y2x/JE3vfn2eLpRNut/l2Z9GmL/OZO7Kib7Kyc20F3QYPXVolIHSOcac5Sa/9dVqBjoDnrvHYcEGQdNSi/omycbrTeadF+HlxwJefLBEZ2sRt6QIfVk+8zMwpCRRI1h9RYSL3xpn72Yfl0EEJqkBF7k7S0NLFbVNcHiHwk0rHCfAc3zS/QWyaQfX9XFLPlJFwSphR0yiMYvquhiJKpvQNXn6LoOBNskV79G+AOPFUDHboZf0W7pndDGbGFHMFkoPp+jRtd8lLIwsZjMIRQ4rInQUnhDMXWGx7hqbFZdZNC+dOhvDmpmSK2+LsvUB3cKWS3tsfzikZbUc8/hkMhD4ikLOL0s5+t9Kx+lnOhb4qClmhISBINMXAGd+kFszU3LH31dTN8vgof/IoTwbKSSB0q8xQwmyvT4rP2CR6VEEjoHpJUAUEZgYIoLAoHqmxRXvinHLn0+B6sWTpHG+wTv+JMk3P+yC8lHKw3UVba+UaNuRpGnZiYfDTHem/a0JfMhn/KPcj8xp0HUlhKC+yWDT+2NkB0K69gSYUUFdk0HjvJDam0NWXxFl64O1bLmvxECXg+eAaRlU1dq0rIxz4ZsjLFgtWLjWQkrBD/46j1AmA/0u7a0ZZi1N4vmKA9tdDu/JkR3QBUsLNiguuamKeattqutNPEcx0OWz/dESm3/scHhvitktVcxoTLDjcQunKLnyfTBj7umLen7wyJSy3oO6pcwpjihmUwpRdmbLFrU/+kCHw0CHjooUECoJZJGWIhIV2DFBw1yTlVdYrLs6wsIN5mn3Kk8G5gy3sJl4rseLDxW56DcSk1bQY9VDYzyH5bzc+qfGbYrZ0FsYhKS6x7ZpPVWEEMSqJLf+RZL5q01+9vUcAx0CpygIlY0QBrbp8dK9SXwX5q8LeElaoPRUPztqMmeJzTv+JMnaTdEJGdt7thBSO3Suva7Etl/YBMpBhhbpQY9nfuIxf61F07KJvsrJy7QXdBhd+BMeZ0rRucbQIlA9w6CqXlLMhbzwC4euVh/ThqaFBk2LFVe9P8pLD1scejmgcVaM6hlRwkCw+S7Y/WvBgvVw4Vt0dfsP/jqPVCb7XnD51scztKwSbH1YFyoZ0SIf/GIDr39n7ZjjGy9+cxVv+32Pf/50Dy89WKK/q0jzglr2Pxejul5y6S2QqDu5hUuF0LYT9m/Rxi75wbK1akHPbdZWltofvVhQ+MqlmPfo2DfkzDbkjx4QGh5WRGDakKiRLN5osu4am+UXW5N+vvupUDNLctXtEf7jkyEqtEl1e7Q+B02TtoVNkUv5wwNzRr7/zKeYjX6/741f6k4IbVRz+S1RLnl7hEe/V+TxHxboOehTzAdE7CiiFCNugl/0CVWB2oYIjQsMLr05zlW3xZHGazu697Wirkny5o/H2frLFCKQhPh4juLgthLd+yuCfiIqgq5GvnQFQhx/d38uMnIxiFcZXPr2GIEHT/+4xAPfKtH6oo9UEUBX+7YO5qltcKlriFJdF6GnVReO7XkKFl0YY+0m2Ppwjup6yWW3ROjeF+CrNBguf/Cvs1l/1YmVYUazxSf/pYkv397GSw8pDu1J4ZUCtj5YReMiwbrrjv+5I4vZUp3aY8DJjyhmKxu7hL6i5PsEvktP21AxWzC6mC0y5MxmsfwSi5WX2yzeeO6+ZEwLll1skWxMk+2x8NyQp+8pseKKKHMmWQub5+jf96yFkkMvoaPXEX6k4zEWeCRCQnycNzVDrz3LFlz9gThX3R6je3/Azicd9jwTcnCbwgKKPtz+dzWs22RTP8c4SsTPNTEfYvYiyeW3RHnyvwW+KiKURT7r88oTPksvNElUKt7H5NxdnU6SSHLk/F6BlFA7RXvQz4SRC4SwFZffEuPyW2Js+5XLA/9U5MBLnj5j9kwyvZJMn0u0qkjTnDjJOpt8D6S7BG//dJQ5ywU9BxStmw0GuwJmzjM5/43xVxXzIayI5MNfaeL3X7cPvxCl63AWQthybzUzF0DzMn2txSwcLveEd+4p+6OXi9mEGuGPjiKbD8HwyAw49B4+Usym0+jlYraoLmZLjihmW3KBRaL23Fw0x6K2UbLpvTH+9+8FnufQe8DhwItR4rXQf1jhFLSBjt7saFvOeWuO9AifbYHp2AU7H4f2ndDdKsr+7IpoAjAgl9Kv3fEcC6znyAvmrBj/moiR90sIwexFgtmLTAqDHi/+2MRXHolsgUtuihOvGf3x5ypVMyRX3BrhiTvTiEBPEnQcxfMPlLjk5mRF0I/DtBd0yx6ZclcEgaL34PiclU1VRi4U666OsO7qCB17An76lQIvPujiuyG+IyhlDPZnHSJVeepnxDj/5giJekW8NmDuSj1nPj8QYMUD3vLRsf20M/0u0aSJHTl6Ya2fbfGW36nlf76cRoYJeruK7H3BouWROJ27dBQ+0AauU/ZHd45E4QbaH91VAcWCQ88BjyCfJCA4qpjNjAgiNkSrBC3nmay7JsKKy6dWMdt4E00KLrjR4p7/m0IGNq7rM9jt8Nh3bQ6/rJASPF8P2JCGPsOOVQlmLxWsvpLhKuTxFJtsP+zdDPuehf7DOvMSero8LZMSzF7qsfEtCXr2hzz5Pxl8lR/nscB6nUjWnr3nYuSGWimFaUpcOQiBDSEMdIQk66bXcj17kcH510d58X6JrwoYyiY36NO1T7Fg/bm7mTkTptcTMhaCEee5OiXrFs/xMvfToHmpwUe+UUVXa8gvvlPkhQccsgM+viNwMpKubMCdf5vi0nfabL6nRDEXUDfLJsChdrZPfdPoarHnf9XLZ27dzJxFCf7vg5ePMrO5+MYa7vpyPwEO0k+SzxdomB9h56MG3XvKU5eHitmUIlsIEKbHQKdTdmazy/7QQo8ZNbU/eiQumDHX5LxLLVZeZrHyCrviQjWCmpmS1W+IsvNhA6fk0HXAoWmBiV8IcT1Vri8AIRQCQW5AMtAuaH1O0LJacum7BDPmqjMSdRXqIsadj0Pnbp2NKeXBAFCKwAvJFV1mLRKsuqyOV34dMNDtEK0O8dORcR0LLDConS1Y9frX5iERQmBYEss28IsGECDl9BOw6gbJZe+y2Xq/PgIJVYDvKbY/4rL2mkhlaMsYTHtBt2xI1Bjk+kApHZkH3gRf1CRm9iLJ+z6f4G1/GOeBfyrw1N0O+XSg53nnBYX+CLf+eYwH/y3H7i2DOH6J33zn2Pmxe759ABVI2vYUeObnPWx6R/NRfz9/RYzG+ZK+gwEhPqkuyTM/yzNrTjVRqUjlQnxcSgWPvjYfP5c4qpgtEPlyTzjEayQL1xmsuMxm/bU29c3T71jlZPBdeOF+SaHPJqREECgO7XSZt8ZgMO0y2OsRBAGeExCJ6fPcRHWEquoIgSfZ87RJ5y7J5e8WrLry1L9/ugd2PKKLGTO9WsiF0pa6plJk8j7FYonOfS5mWEMhl2PT+6IcfAkifYKqmgjFTMiOJ9PjNBZYIgyPuefFiVW9tqJaCSt0jUSkNkcwaBIS4Dqw+zmHQqYi6GMx7QU9VgN27OgX6qi+9AqjqJ4heNefJ3jL78V56m6He75SxBQmg20mT98dYEqLZK2F2xPQvHRsk4/dz2UR5Udw//Ysm94x+mMWro3Sd8jBTvhU10coZEP278hzeI9Hrqsaf7iYTaDIYdoQiYIVFcycZ7L+OpsVl9pTZnreRJLthyf+C155XBGLCWYuDFi00Wb5JSaP31ng0HYLZZe48XeriFUNpYn1GNADL+d5+RHFzMYkKrB45N8MPAfWXiNe1crWK0Hr87DjUeg7pFPqXknHyFIpCsWQYqlEdtAl15XER/vhu2RwS4K9W0rMWmLw3IN5BvscfFWivz0YlylmAoP62QYX3TgNelknIfXNBmuujPLcTyShyiGFTa4/ZOCwoqFl+mUtXo1pv8oJceQMXQEoRbZf4Tm68KfCiYlXC67+QBQvF+HJO0t6kpUPmUGXVE+IFxZobGka9XnFnE9uUJVduxT9HWOnReYsi7LFLrHqijgti6vobTUpeiWynUk8lRouZjMsSNZJVr9BG7tMt2K28eDZH8PORxWhH5Ia9PBdgVQRtj/i4zmQmNvHH3xnDovXjx7A89Q98MSdWQa7+2lsrmL23CSPf9/AtGDVprE94Tt3w47HdIFbflA79g1Z6xqhIp33yGdL9B7QfeNKCUIymOW58LMWGlz2riizFkq+9qE0Ts4ExbhNMRMYGGbI8stirL92Am1Vxdj3bzoQqxKsvMLi+Z+U8xUqxHcV+17wWXZp5ZzsWKa9oCdqIVEz1PKiENgMdgd4pYqgnyylHPQeDmnbXyAMBbGqECV9IAAC4mO4dhVzAVKYZVtZRT4zdlokWSdRoaLvYIiXhqoozGyxeEmlqW+WzD3PZP21EZZfYjH3LFQhTxee+R946SGF7wX0dhQZaBMou0D7PjBMn5ZVik/+yQJqZ469ZChC/DCHFBH6O0KyqRSLVtTyzN0mdU0Mt70dr8BNKIWhFPlCiBs4dOwrERYTBAoULsJQWFFBzUzJumtsLr05wqIN+loCH9772STf+UQOiUko/HGaYmbSstLipk9MwASzEfl2Feo2velKw1xBaGUQroEqFy537h0f175zjWkv6NIU1DQaI+pZFWGg/bwrZzQnh2mj28NUHSXVRyEjCFWIrxwUikhs9Hm176nhlCYogrGLkonGJUEQkhn0qK4OyeUCRCrgd75RzYU3VorZxoOe/bDvWYVXDOjYnyfXa+OEA+C69HS4XHVbkrf+bgNW5ER1ByEhWkgDVcAtRGndmcYWNex4zCSf0mn1jl06Eh9Z4BZ6IXnHJTPokGmrwlchoZIoclhRQaJaMG+1ycVvi3LpzZFRKXzDhI03ROjc63HvV8Eg0IVvIuDLH2zlL+5edpJjgXeT6hIYwkIKm5ktkhs+lmT2IvM1bxGLxI9E5WGgjyCmKzMXCmY0m/QdlATKJfAVnXv8ShZ1DKa9oAuGXLCG8u4Kp6DYtyWg/hwd0jLemDYYttIjQoFQ+YQMpdBHW2uCLnICiUCUHbvG/tqGBWEYkk257EmnMNxGojNy3PbF+oqYjxM7H4eOPYq+bodcX4xS2KN/f8LjrZ9o4PoPvnrTr3ZQD3Q4KZR29yrYtLVnuXFdDW3bJS8/fGRmvKkUmZxPySnRsc9FBglCBSEppKnnxNfOMrjopgivuzlC0+ITvxZjScG1d8TpavV5/gGB8m2UCk5jilkUQ1g0tBjc+PsJLr5pYhRD1yiU/6DAnybulWORqJbUN1n0HxSAgyRCf6ceS2zNnOirm1xMe0E3LFhygclj32XYNS4MIN1TqTE9WbySItUTjGHBqXFLIYljsh3D1cdCVzFrB6/ROMUQFHhFCAUYIkXcEOQHQ6rqKxuuM6XvkD7Lzqc8eg8o3LAPRUBVg+L3vj2HVZedOLIdRmkPdSW0s7qe9h0w0Cn4+XfyXPq2KhQKpxCSLzpkB52jCtwCkceOC+LVgoUbLK67I8aKy05+xyaEoLbR4MP/WMMD3zK5++/SqNBGBJLAdYanmC1YFaFhro1himPGAtsYwsY0LOYujfKuP6tm/TUxPYFxAg6whaEFXaeYId0dUs5pTDusKDTMlewtB10KReAq8ilF9cxpWlxwHKa9oANUNYAXphhahsIADu/0qdyek8OKCpqXSV4YesdRVtii7Lx1NJGYTrXrPYAqO36Nxhn+3BDKGQDDpBKdjxOde6CrVZ+bB1CeAR7y6e81s3jD6OHTY7WCaYYGmRz5s5DaIKW/LaBjr8Ngv0PnLtA2wiMK3BIwa6HJJW+PcMUt0TNqD7NswQ2/k6B5qeS+b+bYv62E54LvmygVcPhln0MvO/r6kAhimEJiRyyS1TbnXxfnbZ+sor7J0kI+QXph2hCJS9ycJAwUmf7p23pjRQT1cwykkOXHTA/VSXWHNE1jE6ixqCgWeopX9UyTbK8gxCcIoO0Vn1JO21tWeHXmr5GjhHzon/5Oh6aFR4tDvNoEGUKo286OF20PdLnl3GP5TUiiScHMeZUX8njQ0wrpTo/8oCBQ+qBWEXLX/+nlD/997lHHJcW8z93/uIf3fnq0sfvIeWegf2XJWoML3xynYU6MXU95dOwKtRGQ4WJFjilwO//Ml6KhSNow4fzrY6y7xmbrQyUe+a88B7c7FLI+SoX4w053Aikl1TMsNl4f44Ib4izeEEFKiZRyQgefmJbAjsrhQTLTtcp9CCsCodLHeKrsBNl7OGDFNM1aHI+KoAPJOu2fnOsToDwIDfrbAlJdMHvJRF/d1GBGC7qNDAPFkBe2fuvYVxpVaWxagjlLIrTt1tHS7AWjo0GAw7tKugNhKEOvQmLVlcd2vEj1hGQG3bJwDO3GBFt+keO/P9fJez+jzX4Guh0+f8cWama8+r0f6k6PxW0KvTH2HgLTlTQvFwx2BSw63+Lit0a57B2jC9zOlJECbBgG66+Jse7qKGEYsu8Fl0y/T1drgB0TzJxr0DjfYNZCa1jERwr5RHulVw79jhCJSYx4jiBv6pS7D9m+yh06lsrKCETigjnLDFo3CwL0eMViLqT3kGL2kmm+NT5JkvWSpRdZ7N2sd9JDi7oQkl2bc1x326xRn3PBdfUc2nUIgLWvH+317ruKfS8WAXu4It5OhKy9spJvHw8KGcgPKjKDHoEaSrCI4Xt9z9f7aVkRoeW8KF+4fTvtB3K8/uaGV/26eviJSbrfJdMXYloCPMWC1TYf+3aS5mVnN6o6atBQ2RtdSsmyC4xRdR5DH3tsRD7RYl7haMqZ9qPeEU7fU4jjUhF0tFPc/LUmj6OfEEVIGCj2bvZZfaU15uzuCkeTrBVceGOE1s0hghKKsnWmkjxzX5oPfynEjh59I2/55EKsiKB5UYxlG0b3CL7ybIbcgMIU2lhEYFA9w2D1lRNo8nEOIQSU8iHSqwf6OHJMYuhebBXy7U91gXTJ5xSGsDHk2JupY+VPEeB7kq5DeQJPkU8ZNKZ8GheMNqU5Gxw7lWxIyI8n6JN+itkkvKQJZRqb7ZyIilSVWXaJRERyw6nHwFPs3uyS7Z/oK5sa2DHB2k0W0bqCFgQEui3NpJQRPPqj3lGfk6g2ue1PlnD1LXPG/Jq//H5v2eBDvykR0LTUGDYUqXD6OAU48ALEa9Tw2eRQjYJAIjGRwiYoWXgFXQEusZHi5KJrRUjgQ7onJDeoCxpVqLRnwWvIUNQ9FIGPTK2PfN9kSbMPM9JYRlXmSxyNXp+7WqdxL99xqKyMZWJJwaxFJh07y+YFgaKz1SfVBdWVXseTona25E0fifM/n9fDVIQykBiEwuLOv+vkwjfWUTvz5Fb0HU9nePxHaQwRQwpt5TlznskNH4tNnkV3iqBC6NqrDWT626DvIORTujWzriVAt0NJhAhByXIroT40UUKA0r2FeuzoqcQAatiPQGIR+ODkIXKSnXDjzVR6biIJkOVbPd2d4kC3Eh9bVGBU1GsUlVtSJlYlWHahTedO0OYFJoV0SOuWkHlrKomMkyGaEFz8tghP/ChN5x4TRVBO3Vqkuny+ePse/vQ/l1FVf+Iz8IM783z5g61IYSOxkFjYUdhwnc15r6uk21+NTC9074WeA1rIs31aELyS/m/ggSEgKnWkHhgZGmZLDNuguzUAJAiBVNr0BwFKhUh8Tjupp7RAea4ikpg6wjpRxGtAjlidj2e8NF3ID4z8k8CwFDPmVNblY6kIeploUrDhTRaPfVe/chSKMFDseMxjwxsj1Iyu6aowBjPnGXzsW9V86TdTpLptLQTCRBFhz2aHT129nff82RwuvL5+1Pzz/g6HR37Uy11/34VXsMoWnBZCCla9PsK7/6rqON91+lLKHxHv7n0w2KlNeNySFnC3qN3ZUNovHcBEkSuGFKSP6Ai58eN1+I4W84H2QXzH0BkWIUGp8pHHUAvV6YmxEIJYlSJZVxHzk0EYegOkUKhAkembvooe+nqM7khMS1DXVBH0Y6kI+gga5wti9Xn8fh1d+r5i7xaP9l0VQT8V5p5n8qH/U8U3P54mN2gANkOdZwNtLv/wO4cwIwdYuCZK/WwLBDglnyDw2LtZEBRjGMJAigimZbDmihgf+UYNUk6iM84JYGTqfKAdeg/o1LlX0gLuFrXrnl7mtHhbQkfFTuDj+y6lQsBgV4CXTSIwmLWiBGGCnp2Qz4FlmwSuRJTH0lIubBTlqP10b79Slcj8VLAjglhC16IEIeQGpm+LVqobill9bj50F6QB9gTMzJnsVAR9BFX1kvXXRnjyToGvCojQIp/y2PmYYs55gprGib7CqYGQsPZqmz//aR1fuyNF5z4IfHu44CrEJHR8Wp+DrjqHK95ZhWnG6dwrmNVSontXFCUCqmotLrwhzq2fqSY6DcVgOHV+8JjUefHo1DmgR44CAkW2GGDYPoWsT6rXo9hbTYinoz2lW9MUOuQRwqBmdsih7YLAVximLBc0iuFYXAs7+iz9NCJ0gcRO+qzZ9NpUuJ8LmDZEEqJiLIOu+8j2K4ywDp9+JCZ2FGY0VUxljqUi6COIJgVrr7F48k5dPTkUpW/5ucOaq6IVQT8FhBA0LzX54x/Wcd838zx5V5FcCnxfIJWNwkchMEVAttsm1xPFFpL6BpOePR5L1sd400eTXPCm6IS7dr0WOPly9H1Ap85TnUei7ldLnRuWT7Hgkxv06G8TSCJ62hghSkkgDUJh2mLYNjeWFCxYZzJ7scHeFwps/7WDcpP4KkQxvtXDAklNg2LV6yv1D6fCcUYjTDu69sFgV0Coyo3nQmDHoL5yhj6KiqCPQBqwcJ1Bw6ICPfssQjwCz2Cwq8SBbVHmra1YwZ4KQuiJWb/5mSquvyPOvd/Is/d5h679PoQmnqewDAhdm1gihp9VROIG7/i05I0fiWHZk7CdaBwYTp0fgIE26D0I+UEddbvFk0idB+XUeadOnYdl8UYJPZecAqalMC2BYYFpC2Y0Gyy72GLeapPlF5vMnH8kutn6S49n7jLwVXasy+WI99uJfgdijDf9/hCfpqV2pd2wwmnRd0jh5ANdoAmAoKoB6psrgn4slVfYMSTrJVe8K8KPvzDUn6soFUOe+GGJJRdGWbRxoq9wajEkxDPmmNz22WqUUgx2BfQc9Gnf7aOUFrWHv5unmAuJV1nc8md12JFzx7Ur06uj7t4DR6fOhwrXjkqdK4VZHliTKwbISDl13uNR7K0aM3UuTT2i1rR0K0+8RrL8Eov5q02WXWzSvMw84dzoeasMVl9b5KUHIwTq2P4ocdS/j9u2JtBFdMeIvkBS16y48raxrX0rVDgRfYdg4HBIPusRlsctC8Nl3qrK8zQWFUE/hmhCcOFNNvd+I0WQNlAEhL5BX1uJ/VuiNC+vROmnypBT11CkXd8kqG8yWX6xjj53PxPw82+XMEgQ+B6HX1a0rJJTUsiHUue95XPvVFc5bV48kkI3y0OjhFZlLKHI5ENM28cp+WQGPPoPH5s6F0AGhMKwBFZZvKNVggVrLFpWGsxfa7HsIuuUK8nrmiTX3RHj5UfThI4xPNf+aF6tyr1sGStGRvISRMCiDTYbrquk20+JY9Lt07VtrWMXDHQq8lkfoSQgiVUpFm2o2D+PRUXQx6CmUXLDR+P85AsKXxUAPdP76R+7LNpos/D8Cb7AKchYVpxHondF/SyLwXaJ8gUdu3X/+mTHc6C7VWcYuvdB32Fwckcib6dQTp0LLd4KnTovlhRK+riOi1PUVeduJkmIPyp1blgKyxQYtm7VqS+nzuev0dF34/zxKQxastHkbZ9KcNfnHASyPGBHc2RunjYKGosh//ch0Rdlv7klFxr89teqx+UapxOR5AjjFAXBNDVF69wDuf4Am1pcUkgsErUhiyvHN2NSuStjEE0ILrrJ5t6vpwiyOmLxXOjaX2THozYN8/QM9Qqnz0iBT9QYNC+xSbVLgkCxf6uPk49MmKPY8RhoP9Iy1rUXMj3lqvPy2bfytXgDOnVe/m+uEGDGfPIZn1S3T6E3OXbq3Dhy7i0NSNTq1Pm81SbLLjKZs8zEOkuZxkhCsOn9UQa7Qx761yJCyXKkLo60rgmDJ+7K89iPtoHpY1ohQgr8kgmhjYE1omdd0LJacNvfJohU2otOGdPiKJvc6TiIZKANuvaGZFMuwdBRj4DqmbIyB/04VAT9OFTNkGx6X5RffKPcwoZBMR/w3L0u89fZrL5qoq/w3CEShznnGbzyqMQPFP3tAfnUxFmEgk6dd++Djt1axLN92sRlqGXs2NS5AAylyBYUhu3hlHyyAz59hzkmdQ6KDEIeOfc2TYhVC+atsliw1mTpRRYtK02q6l/bI4dEjeDWz8Spny350efz6CBdIlCAgURnVUxLsmij5LzLTLyCZPdmn4NbrLI1rIllS5ZeYHHrXyaZv6ayxJwOojx8RAFhqMgOTL+c+97ntKBnUh5h2QtBmh4L1lTOz49H5dV2HOLVenrYz7+VQvhyOErvbS/ywn06Sq/MSh8fTFuw7CKTh74VIoVNdiAk2w/1Y89sGXc8B3padb9rdyv0H4ZSrlxxXihXnXN01bktoFAMCZRHEAYUcj49Bz2ENzJ1zuiqc1MPspm92NTn3mssVlxq0dAyOSp2rYjgTR+LMXOB5IefzZPqCnEdgRAGQoHAIJaU1NVH6NoWoZhVzJjl0iEsQlmkpsHg0nfEuOkTSeLVU68GYrJgRQXxam0sY4gI+cHpJejZfji8DUq5EOnVohhAYlLTKNh4wwkqPKc5FUE/AY3zDa68Lcqj/y7wVRGBQSHr88rTJWYviVI9U3suVzhz6poERjJHkLPwHMXeZ33mrz07j+eo1HnvEa/zMVPn5arzbCFAWB5uKWCwS6fOA3wYTp1LFHmkoQvXzHLqPF4jWXm5xZILTeatMJmz/OylzscDKeGiGyNsfGOEh/6tyIP/ViDTF+J7EHgBoWdRzBgYYYS4oTBNgZUsseG6ONd9KMGiDdY512o4EcSS5cLQEfUm04Udj8GBl0IG+xz8oWmAQlA3G5ZfUimIOx4VQT8ByTrBFbdGefT7KYQryxXvkv6uElvuj9DQItjw5om+ynODumZB4zyL9h0GKvRo3+UzHo+nk9dRd8euY1LnI7zOR6XOUWTzOnVeKnoMdPmke8A4Uep8yLClSjB/tcn8NbrivGXVa586Hy8MC6777RjX/laUg9sDdj/j0LbLJz8YopRB/4GQvpRHXSD50q8bqWrgnPQNmCj07Pbpdx97DkDrs1DMBAz2OsPWw9LyWLghiqwcnx+XiqC/Cs1LDd7+Rwnu/lxAoEooFKW8T/eBHJt/UkVtMyzcMNFXOfWJxAWNCww6dkh8X3HwZZ9CCuK1J/81hlLnA+3aXWoode6VtLCfXupclR27FD7F4dS5NPQ1z15s0LLSnHSp8/FECMH81QbzV+vqNqUUT/zA5/t/aOKrEo5bIvDk8LjPiphXOG0UbH0ADm8PGeh2MEngk0di0tAiuPydkzi1NQmoCPqrEIkLXndzhM0/y3Bom3aPQxmkB1zad5d47LtRTAtaVk/0lU5tInFBy0qTF+9TEEoGOnVh3IkEfSh1PlgW8HQP+OXUuXNM6lyMSJ1nCgHS8nFL/jGp8xCl1Nipc6lT5ysut1h6oUnLSp06t6fJ+nJs22GyVqIiA6hSFN8RHH45ZMbcSuhU4cx46SHY+wyUCj793aVy77kgJKB5icWCdRXJOhGVu3MS1M6S/MYfJfj6h9KoodS7Z9FxoEii2mbzjyXJGVDXNNFXOnWRBizaIPFVGiEsSrmQdK9i5gItJE6hXHU+lDrvP7rn+6jUOQqhjqTOrbhHMe/R3/FqqXMwTTHsdT5/tTls1tKy0qRqRiXyHKJqhsCKGvgl3SM92BXCcXrUK5w553TbWvlkYc8zsPknkO4N6OkoYRAjQNcuzWhRvOG902T3fAZUBP0kkAac9zqTN/5OjPu+GhIohxCP0IGDuzNIqwbjPwRX3g61syf6aqcuDfMEVQ2SfL/Ec3we+57P4e0W3ftGp861WQtQdniOSJ0695QHIiCf8ek+cPzUuWEprHLq3I4JmoZS52vNcuq8Ik4nonGRYMYck46USei79Bw8lxVnYhiZ/Ql9vXk9JzNCAtp2wDN3Q6pDke73cFMJAjUICKQZcN6lEdZfW3EbfDUqgn6SRJOCq26Psf3RDAdfNAnxAUE+7XPolSxCVQEVUT9d8oOw9QFBJGpRwCAMFK1bArI9FqF3TOocCHxF0Qu041rJZ7Dbp9BznNS5WW4ZM0AYkJjGqfPxwjAgEtO/lDBQ9LT6QKWdaDyJVh35f6X0UJ9zkb5D8PSPdP1LNuXRfThPGOpnS2LQvAxu+v2KO9HJUBH0U6C+SfKhr1TxpVtSZHq0g5xAkkt7dLcVEFI7oVRE/dQopOHx78HLjwgsSzuNBSHkMz71LhiE5AoK+6jUucIgqlPnKkRxdNW5VW4Zi1YJFq47kjaft6qSOh8PIglB02KTA89JlIJ8RuE5nHAITIVTQxrax0ABgadwCopI/Nx6dnMD8NSP4OA2KOY82vbmUL6JwkMgiVQFbLwhxqyFlYzZyVAR9FNk7nKDD/59NV//UBp/aJBFYNDXXiqngCuiflKUz80G2uGJ/4J9m3UEIqTQfxkK0v0OgR+Qy3hI/9jUOfiigGEynDqPxAWzFhosWGux7GKT+WtMZs6rLARnAysi9AhWIRDKprvVp5gGq3Gir+zcwbAEgUwjApvAV6R7Qqobzp3n2XfhqR/C7qfAKfi07csRejYhJXQlTMiKy2ze9slKdH6yVAT9FBESVlxq8ht/lOBHny0iEFrUQ4PejlK5bVSL+qYPQM2sCb3cyUlZzDt2aTFvexl8N6T7cJGBLo9Q6UkUgS/I9isUgqBcdW5aAmlqd7m6WQYL1lksvchkwVqT+asrj/NrSc0sgVIBCkXgQz6lqG48tyLIicSwBJYt8Yu6H/Bc6wZ8+m7Y8Sh4pYCOAwW8fJRA5Rma3Lf4Asntf5dEnHudoGeNygp4GkTiguvuiIKCuz7noZR3RNTbSwAImSA/qCP1OSsm9nonHUJPUXrsP6HjFfDckO5DRbLdNqEqjvhAbZwqJNTOlCzeeCR13rLKpLqSOp9Q6psEdnUBJ2PjOgEde0Kalp07EeRkQL36h0xJnvwBvHAvOHm9kXdSUXyVAfTkvrkrBe/7QpKaxoqanwoVQT9NrKjgit+MsO8Fjy33ifIZ7hFR185jCR76Z7jsVlh84URf8eRhx6Ow+cfaO90tBnTsz1McjOCp9KiPFUgSNQYf/acall86ARdb4bjEqnXq3UGf8fbsD6i0rlU4EYEPT94JL94PTk7R11ki3xvDVYOAfr03LoR3/mmc+asrz9KpUhH0M6C6QfLBLyeBHFvu848S9b72kh7OoRL88tt6VvaGN4Edm+irnjgKKXj2Hi3oxQw4eZ/De3O4ORtfZQGdVpSGTrfrljQD3wnZ+2zIovPlpPZAn240zBPUzjbI9xqoEDL952o8OQkQUzjlXj5i694HT98FB14Ev6To73HoawvK7WlazGtmwZs/HmPdNZUWtdOhks84Q5L1WtTPv8FEIKB8pq5CQW9bif07M+T6FU/fBQ//C6S6JvqKJ4YDW+F/vwIv3A+lDBRzWsydnIWvCoB+Qc+YK7nsnZHyvdQbJM8J2fyzIr0HJvAHqDAKyxZU1eooKvAVba94E3xF5xgj9kcq1NbGU5Jyn/nD/6aLX/2Soq/boXu/T6Dc8odIYtWKTe+L8ob3VHbtp0slQh8HkvWSDwxF6ve7oHSFJggyAy77d2SZszjBzscNuvfDxhth5Rum8I77FAh82HIvbP05pLuBUJEe8Gjbl0UF1vCZ+dDu/Mbfj3PJ2yIc3pnh0FZLm/gEBn2HfQ6+BLOWgFF5aicFVhTqm/XgDKUUxUrr2rgSiR9ZI8JAG8tMRbJ98PzPoPMV8P2Q/s4SvYeDspgrBAI7rrji1ghv+1Slov1MqETo40RVveQj/1jFjZ+IlTNMkqFcUy4V0PpymsEel/6D8PC/woPfhFT3BF/0WaZtJ/z0S9o0ItMDnhPScbDA4d1FQl8QDu/OBbVN8NZPxrjyPVGEgAvebCOxhv/edUKevceju3Uif6IKI7EignmrTYSQSCL0tQXkBib6qs4dolUjNv1Ku8VNRQ5s1R0tTjHgwCtZ+g8bBMphSMylpbjorTbv/uvkRF/qlKci6OOIHRPc9AdxbvnzOIiwnDZWKAL8kuTQrixdhwo4WcWOR+HHfwvP/kT3Y55LZPr0puWBr8L+58ErQi7tsf/lNKlOQai84QwGwKxFkvd9IclV74+B0l0E66+x8MkhyoMZPDfk4MsOB7fqqL/C5CBWBa7KwFDr2mDlHH28MHSbv15BAkj3TE2ruO69kOn2ObArg5Mx8cr1MtrWVbF2k817/qbqhF+jwslRSV6OM1ZEcMPHY8xZYfJPH85QzIGeFuQjQkH3YYf0oMvcRUmUb/LM3bBnM5x3Oay5emqnKwtpePHnsHczDLTpaWe+GzLQ49B1KI8ITUIK5Y8WGKZi2cUW7/9ikqYlxtC7AaiaIbngzRG23CsIVAkRWmQHPbbc57NgnUnTsgn5ESscQ90cQbxG4KQNPDege3/I3JWV6uTxwLAgEpe4OUkYKNJ9U1PQ8ylFX6eDn48PF7+CIF4Nl74jyns/W+k1Hy8qgn6WWHe1xWfur+VrH8zQuS+AUKBQoAKcrMW+l9I0zo3R0Byja5dgoA1eeUIL+9prwJxCRZ6DnfDyw7p6daAdAgeCUFHI+nQeyOPloiglUGX/e1AkauCit0Z53+eTyDHW/5pGyevfHeWFe3WhVYiP6ypaXyix77kkDfOn9ubnXCFeDbGkxEmD7ygObPPZ+OaKoI8Hpi2wo7J8fDd1a26K+YBUv4OvjhRNzpgjeMsn4lz1vkoB3HhSEfSzSPNSg///3lq+/+d5fn1XCUItZiEehIKewz4DPYM0LUhSqyy6dgkG22HHI9CyCpZfBrOXTPRPcXxan4ddT+p2lEyvFvJQgVMK6DlcIN07NJ40V/4MgRCKWYsMbvlMgvOvP/GupWWlwYori+x4JDocpWdSHpt/4tO03GTxxrP/M1Y4MXVNgmSdJN2uPd0LmUrKfdxQ54axjO8opFeHoh+JSaJecfuXkqy9yproSzvnqAj6WSZeLfjg3ydZepHJnX+Tp5gFNSTsysUrSQ7vKtAdV8xqSVCrLHrzgv42PR+4ugFaVuvIva55on8a3T++/wUt5D2tOs1OCGGocJ2Qvq4S/Z1FpIoQDu/I9c8bTcDqK23e+9kkdU2vnmOrmy25/rdi7HzkSJTuudC+p8Sux5M0LoCqGWfrJ61wMkTigoa5Ju3bdVq4u7VS4FDhCE4eSnnKNTMAAtNSzGiu5NjPBhVBfw0wTLjyvVFWXmHx73+U45WnPAIPhgYQKBXi5I2jhL263iLbDdkeQfd+2PmYFvS5K7WVbPPy1+balYKe/dpv/dBLkO6BUhbyaV1RGfiKUilgoLPEQG8JqSIoJQg40jQrpGJmi8FbPxnn8ltOLU8+d6XByquKvPyroSjdJD3g8ty9Hk3LLDbcMM4/cIVTwjAhmtD+C2Go6DkUsnczNMzTz07t7KmbKp50TMH76Dm65W4kwqBiEHWWqAj6a0jjfINP/7CGZ3/m8N9/lSfVHRJ4RwxUlAInb9C2y0FYOeobo9Q0RIgGEr8gSHVq7/NolXacq54JsxZDXRPUzIaGljM/ey9moPcgDHZAXxv07tezyks5cHJgSAhC8D1FLu3R31WgkAkRmMcIuU6vJ+oE66+1ufmPE9Sfxq68brbkujtivPwrB8oV76Gj6GkrsOW+Ghrm6QxGhYlh72ZBrt9ECIWBTbY/5Ff/wvB8eTOiRV+aUDsLIgntBFgzS/dZ23H9HJu2/nOsUuw8JkpRDgKmFmKoe3cEshKcnzUqgj4BXHhjhPXX2vzv14r88l+LFHPqKGEPVIBwBX3tPn3tHlYs1OI+I0IYCi2shqB3Pxzerne7VkT/147pxTJRp9P10STD40ZHIoROh2X69EKR6tYGEKEPbhG8EjhFXakOOqUeBFB0Q3Ipl8GeEn4hhq9UeWbzUO+dQEiFHYH5ay3e/VcJFq4/s8ds4XqD198Gj/1nREfpGBSyAftfLPHCA1GqG6GmMrbzNWfXk/Dr/4JiCnyRRqgIoa8Y7AiJRPWZugQQek3veEULuxBg2VrYpaFFX8jy/5c3pMl6/QZ6wxqv1c9pXTPEa7QoVDVM0A/+GhGJHxG/qeoUN/j/2DvzKLuu6k5/505vrFGlkmTNsuRBnmRZxjaeMB7wAJYNsTHBBOOQDgkZoCGr0wmknZAmU8Na3Z1hdTrdi6G7mRwINo4DxBDjEVmyBsuWLKtKVaqSah7e/N4dzuk/zn01CFlIRsOr0vn+UNWqevfVLb1X53f2Pnv/9mHF6KEQqWaoeGzvbDj5GEE/Q7hJwb2/l+amDyf557+p8Py3qlSKKu5JF/Hcby2SftliuDdksKdCusmiqd0j0+ySyjg6ci6BJUAIMTWW1Hb14ngsVzUZQVjTgh/UwLH0wislKKVQ6JR6uRBSyvnkJwJkNU1EEH9/utgNwLIVqSysuszlHR9K8rb3nJwy9GybxY0fTPLS4zlKE3oGvYpchvorvPpvHgtXWFx5z9zqDJjrDB/QDoDFUfB9qecYqAi/JhnoLdHSntACbQtaWx0iCSgQgS6cDHTCRW82hXZskCpOzwsY2Df9eroJ/X5WavpzIfT3LVtH/U0depMwFfG7elObXaAfm2mbe10RqVa9Aaqj5mDXWm549kZECEEyI+hYbhT9VGAE/QzT2mnxy3+c4d2/neLHX63yzNerTA5qkw4V1ae4ydhZCcoFQaUYYqGIVJFUVpBucnETFumsg5eysW1BFEBQrhtTvDn16F0pqAYKvyrxqxGlQkBQjSjmAyyZRsZzrxWFGVfrYjfHg1STYP31Lu/6tTTnXnHy31ZLz7fZ/KkMX/9sSKQipAoJaorBnhJbH2+ifanuCjCceqql2MrzdShMBhx8vQCRjSJERYLccER+JFZsQBCiiHBSNdoW28gQ3IRF0wKbWhls2yaVtijloCVr47iWFvY4OxQGEMbv45rSojBtSwSRmo786xG/JcD2tLDD9OdKQusSyLTqs9yWTkge5RigEVL/tq1/D4VCRYr8SPTzL2owyjkdNEwjsN05WAwwRzCC3iA0d1hs/mSa9/xOmi2P1XjuW1X2vhCCgsAn7mOvn7VHUzWjlaJFtRjGUU78B2/XSKVtbMcimbbj6Gn2zxPoKLxWjYgCRRQpokoGifZXVkrGqXQxwwymfqUudLNtRdsSm3d8KMHV9yTpWH7qDse8pGDTnR5bn6jxxoueto1VNoUJn4H9FV74ZoqWRY3d5jdf2PVDnW6vFEJ69+RRsZhr9Az7qbMatHWvAmRZxNa9+l01sL/+/Wl51rG6RajKLFhqY9n6eKl1kUNQBRkJsi0OlQIkHYt02tYjkWKLAxnMiAgVqHpFXjzxCwGDXbHQCx21W/bsz+upfyF09N+8UGcFsm3TxwD1TUEUnrrCPychSGZtBIJIQmF87jWxDR1QlHMhKu6lVyhck0k7ZRhBbzAsG66+N8HV9yYoTii2fLfGC9+p0bMrREm9gMhoevXQoitnh+GhoJRXgPy5i4BuJ1Hx5/mjPCJeBVHYTuxelRIsWWez8fYEt340NRUFnWraz7F44I8y/Oe7J1GBNZV6Hz5UIb3X4cVvudz0sI60DCeZWBD3vVCfZR1xuKcEMoGkPjVEMP1G1EWRjmthOQrbBRkpINK+5JFO0StV/3q86Yw3rgIYPzT93h3uiaZuQsxogRJYSGpk2iWZFgsZQSprk0hbBDVBMqUF0S8JWlptUAIHnfpXzE79V49M/TM7+ndcHemDrlepR/xucrrwr2VG4V9rp65paVoInatPPOXverqDYK4ayygJ+WFFtRLFoYGF5QasudyUuJ8qjKA3MNk2wTsfSvLOh5IMHZBs/36NvS8EHNgeUikpZKgXRhkRT3ibRsXR+vHv6evCPf0MtjMdsaRbLC55h8eG2zzWXenS3HFmVpdlF9o88EiWr30mIFI+kgDl2/R3lXATLaRbBdd+QEdPhpOIgMP79OyBwrBidLCKn08RKb0JFJYWuHp0LBBYNixcmmTxyjRvey+cc2GEkgq/ouh/PcKvKioFxYEdIY6nTWkO7AixHS0GMtLCLSWouPdJSqXPkhVIWY/qoThmURybIfhCxd+LmBn9CywiUWLRaken/pMW2TYbv6IHKqWbbEoT0NIUp/6BusFhFECkhwPiT/5s9K+AQ3tmFP7FxX62Azf/Gqx5C0ZIRytonSuM9ekOGb9WDzgEjqfoWGnK3E8VRtDnCItWW9z+sRS3fywFQM+uiH1bfPpeCzm4O2SwWyLEtMArqRfCKeIFsB5DWZaa0u/62aMQ00U46WaLC65xWXGxw/rrXFZe0hhvFS8puGqzx/6tAS/9k0ukfBSSaklxuLuI+6Mm0i1w1XtNr+vJZPwQvPhNPWijMBkwdkgRxb7cAoul5wmufyDJd/6qTK2k/RVk6DDUV8F2LH767SRXvddm0936dTnv6mOndcp5xWBXhIxguDciNyyJQsVIryQ3Igmqiv69elMAsfgr4ohfP4eSaupvQG8C4uhfCQa76oIvp/8OiCDeCNdT//XoP91kAYJsm41lC2QgSGUdvRGIBC0tswv/6oWmkQJbwEuPCVoXQ/vSk/aSNDz9r8HYIYnltyFjl7hkWrB0nSmIO1U0xiptOGFWXWqz6tLUrK9NDEgGuiK6t4cUxiSDXdHU+aBfUfTviaiVFYmMYNn5Dl5aoCSksoJVGxwSKcHaK1yy7Ratixo3v9fcYXHXb6Xo3p5ntMeJz2wt8hM+Q70ltj2WwbLhys1G1E8G5ZwegXtgO1SKIQf3FeI2JJ1GbVkM7/6dNNe8N0G6WfClTwXxRitEhS6DvWU8z2LLt3W++srNunDtWKSbBWsu18vT2k0/f5k69HpEEEf83TtDhIDckGSwOwIBuaGIwS6JsLW4Kzk7+ldKR//1TcHM1H9xTMTRP4z0RPEGYGbqHwR6gqCTjgv/Ah39q8hGhYJi0WPFxY7+3c+SM+TDr0NpIiJS00ckySbBknVGdk4V5n92HtG2xKJticX66+a/R/KKixw+8ldNfOGXc/F5uoTIZuRwFdez2fIdreRG1H8xypPwzP+Bvc+BX4k41F0E6aGoIRA4CcmmO5Nc816t0Btv9+jeEfL0V/RGSxKA79L7RpGVZNnyTx7VIlxznzZIOlksPX866rvw57z/xw5J8iOSKIij/xGJX1Uc2hsR1KaPAWyHGWf8albWa2b0rzMCegMsS4KhI6J/gUV+ssjWx1pZtOYEUu9HpNuPdFxrZMb6YLhXUioEUwVxCEHLQosFS03K/VRhBN0wZ1l3pcMDj2T5f5+pxX3xESp0GOgt4yUsXvonj9CHq96n25EMx0kcmlbyWsxffRqCii6C84sJIlWi7pVw3lUu7/v9zNSl2XaLez6dZmKgyK4fOkiCnxH1XT/wGD+sRf10WRjPZMHSaVFZe+Wxl0AZwYEdIcKCyWGd9QKYHJIMdc8+EhCiHuWrOOIHGYbI0KZSkPTtKbHt8cxxp969jG5dA0Dpgti5Qt+rMNIjyY36RMrS1QuOz7ILzO76VGIE3TBncZOC6+5PMDEQ8eTfCKQKdPo9cOndp8Vj+z97FEbh+gd1+5HhOIiNXV74JvS+AlFNMtRfpTKRJKwXwSE453yL+/4gQ7p59vFMa6fFhz6f5b8O5OnbrY2AZor6CpUl3O4xOQgX3wSX36mrwRsRy+aEfBXqqf9aRZ/xd28Pef4bEUiLyVGffS94LLvIPa7Uu+vNfsxcMZapFqFnJxTHIyzZQsgkFg7NnYpNd80xd585hv3II488cqZvwmB4q7gJwbILHAa6fIa69NcUEUiH/GSNRMKmMGoz0qsHhmTbzuz9zgW6tsJPvgL9e7SYDxysUBjyCKbE3KZzteDDf5Fl3duOnt5OtwjWXuGw+yc1ypO6FLN+LJKbqOK4FjYOh9+Awf16FsF8mJzX3GHRutiiY5nNmg0Oqy516N5RY/ywRRRCtRoQlpJ0rv750xOjCLY9ETLUZRGpGk3tFjd8oPEFcde/wvZ/kYz0V6mWJJIQgc0552l3TOPlfuow/7WGOU9Lp8XDX8xy2W02FroKUBIgA4vefQUmRmr07YZ//R9w4OUzfbeNzStPwdNf1tauoS8Z6NNi7qscoM+DmzsV7/r1JBdee+yz6hUXOfz2/2pm4SriXmqhz9VDwaGuIr2vF6gWJD3b4Ykvwg/+Tg8Gmk8sWGpx/2ezCEvbOFeKEQdfK7Htcd05cCy8pCDdrPvobaF9KRqd0gQc2Aa1vCQ35hMpH4GFlw3ZcJt7TCtqwy+OidAN84JEWnDhNS4HdvqM9deNciRIm8KEPmMn8ujdBX5ZT6k7XYY4c4HCKDz9Jdj+BJTGoVrW1ezlcZdgRntacyfc86kUNz90fDnylk6Li6732P9yQG6oXjeuP9bKMDlWwXEsXMthpBd6tsNwt+7fbl0cT+ua4zS1C9ItFnuetvSQFT8kqrg0L7RYsu7Yg0r2PCPp3Wkh8WlaADd/pLHPoHf+AHb/SOnoPJcgooaFTftSwZ2/kaZtyTx4QRsYI+iGeUMyK7jsFo/D+8Op9DtIUBalfIBfjchmPAb2C8b6YcEKPbnrbOeNF+Hpr0D3Noh8KOQCel8vEFZsIqVd4OpivvlTKW7+8IkdeDd3WGy83WNgf8Rgd93mVTsZytAiP16lWo5IZVyiqmCkT/cwd2+H3JD2Rmiew5PVbFfQusiia0eFiTj1Xqv6BKUknWv0NLk3Y9e/Snp36oxTtsEFfbALtn4XRg6EHNxfRKlpO+C1Vzrc+fEGLZSYRxhBN8wrEmnBRde5HO4Kp9qHdL+0oFIKKRcjUmmH3LDFwV16POWiNXPPVvNkMNanq9i3fQ8m+iGKFBMjPof2F5GBpQvZ0AVwLYsFmz95/JH5kSQzgstv8xAoDr4aTk0VJO7l9is2owNFwkiRTDjIGhSGtfd7705tOTvYBZUCoCCRnVsjONMtFkvWOjzzjRIoizCMCKsKoTyWrINU89GvmyuCXivB81+H/VskowM1/GICiY/Apn0p3P2JNEvWzqEXbI5iBN0w70hkBJfd7FHOS3p2SuolWQBBzWZ8uIzr2VjK4dBebWnavHD+z9euU87Bi4/CC49C326IalCtRAwcKDHR7xLIWuzxDyDoXGXx4J9mufaXfjExcTzB+us9Vl7s0rMjoDSpYke2+tAhQa1gMTJQpFaTWI6FbVn4JSiNC4YPaLOS7m2w5yew91kY6tL+6W8miI1EU7sgc0TqPay4tCy0WPwmqfe5IugvfRde+SEUJwMO95RQqt40r7jgGpd7f8/0jZ4OjKAb5iVuQrD+OhcvJdjzbAAzhANpkx+vEviSVMplYkDQu1PPbm5fpsdpzkfCAPY8A899TafZqzmIAkVuPODgvgLVgkOoSvGjBZYFaze5PPyFLOuvP3kFB4tW27z9viSlnKL3Fd3jrVR926W91/2SYGK4xuRYlcBX2hPdtgiqUCsKqpNQGIHBbi3qC5Y1/obsraTeZwp6ug1uebiBBD0uidj7LGz5NhTHIg73lIlqHpIAgUPnKsF9f5Bh4QoTnZ8OjKAb5i22Kzj/apcVlzjs+L4fG3PU07yCakkwMVohlXGwpM1QDxzcpSt1285p3N7ot8LB3boV7ZWnYLwPVKgolSIO16PysKZ7+GNsFy66weN3v9RM58qTvxi7CcGGWz02vivBxJBk+EA9opvR4oZCBoJKXjExHDI2WKJSCvF9qX3ThZ6IUpmAWlWweK2edNbIHC31HlUVgqOn3vc+K+nepgU91QzveDDZOJXiQndDPP8NGDuoGDpcoTyaiDeFAsuWbLjN413/bh79ITU4RtAN854la22uuCtB17aQyaHpoiwVF2WNj1SoVSJSWRe/qM9tu7bAaJ/2HG/pPNO/wVvn4Cv6nHz7k3qwivShVpMM9lU4vL+GX1aEVGZd07LQ4q6Pp/jIf8niJk5tcUFLp8XV9yRYu8nl8BsRxXGldVpOj+3VI4IjpNSV8aVJRW5YMnbYZ3SwSBQpKpMu7Uu1qDc6R6be/XrqvdNi8drZqfeurZJ9L8SC3gI3fTjZMN0ZtZLO9hzYBpNjPsM9IaHS7yWBzbILbR780yxN7aay/XRhBN1wVtC0QAtHOa84sGumh6Y+W/crNqODJRQCL+kQFAXDPfqMuWsrVAvQuuTEZ1qfKepCvuNJ7foWViHwJWNDNfq7CpQnbWQ8qU4jsF1Ys8HhV/48y3XvP72p3c5VNu94MMnG2xPUyjB+ONJe6fVhKVOV8bHFL6H+KC2K+YCgJlFBgiXrINt+Wm/9hJlKvW+vMDFw7NT7G1ske58DSUAirbj+gWTD2Bj/9Nuw+yko50N69xW07S0SgU3rYsU9n06fFXMlGgkj6Iazhnqad80Glz3PBfgVFZ/dThdllfOS8eEKCPASDmEV8sOCgf2w/6cwelD3RmfbaJzUZ8xYn15gf/qPsPtHuoAsrEIYKgqTIYe6i+SHHMLQn5VeF0JveG76UJKP/W0zi1afufPOloUWV9zhcetHU7R0WEilqORBKrDimeOoevQOuoPBxvdD/JLA9Vydem8Q0XszplLv3zx26r1rm+KVZycRysFNSa64w6Nl4ZmPeF98FF5+HMqTEYe6S4RVNz43FzhJybX3Jbjr4w3+IsxDhFKq8e2HDIaTTKWg+Maflvi3r+g+63pRFug2LUskUKJG++IErR1JMlk9Bxtbi3kiowvoVlwMSy88M3OuQx8G3tCp9P49MHEYSpMQlLVIB4GilA8Z7i/hF1KEqjQjItckM4ILr3W5/zMZzjmvMQuXZASvPRuw94WAvc8F9O7WhXRRQNz+prCEh5uMWHNRC7d9zOLyOxvflMavKJ76UpVH/0QiVYiblKy4oIlbPuqw6W7t4/6Dv4949M/zRBWP7EKf3/tGM8suPHOvU3kSnv8mvPZv4JcVQ/1lJg+5+CpPPYty2S0en/hy85xqK5wvNFiMYTCcHlJNgof+Isv170/y1f9Y5OCrITLSwq5Q2lBFCcYPR4wNFEmkFQvPSdGyIEF+GGwhGOnRqe1UVldY19OlHct1Ud3JLNBSEvLDuhJ/uEdH3/kRfY5ZLUKtqHvqo0gRRVAuzBRyiaIw6/nchGDp+TZ3fzLNFXc09oBuy4aLb3S5+Mbp9O1Ir+T5f6zx3b+KiFQVqQL8qmLkYInCWBOBD14DFYQfDS8luPLdHtv+uUDXVgu/Khg4UGLrYy0sWgOrN57pO5zNxGF4Nu6QQCrGR2qMHoqQU+ZDNsvWwwceyRgxP0MYQTec1Zy70eE/PdnKtid9nvjrMr2vTAu7No8NQEGtZHF4f8ihrhLtixI0tXukMy6VCajmBBOH4NBeLSKJtJ7B7mWgtRMWLIdMPBQm2wbZBVqkjpYbs2yYHNCjS0s5HRGNH9ZiHgUQVKFa0kJuCz2iUylFGGm71txojdyojwqTREcRcmFB22KLO34zxW0fnbvVxwtXWlx7v8crPy7QtdVDKh+UzcS4z8vfr7DxrlTDCzpAx3Kb9382w+fvzUHkUC6G9L1WYuvjGRau1t0GjUDXS7DlOzojpELF2HCNwe4AqQLqxx6tiyV3fjxjDGTOIEbQDWc9woJNd3lccYc3Ley7Q5TU6V7Q0j4VtQ+ETAyCJE9Tm0dTm0em2SUpLcIKVHJ6FIkScOg1LfC2CwidRnW8N3emE4BfjdPJQSziFT0XW0l9loxSRAr8UFHKBZTyAaVcQFhNIlWIRAHlWc9r2ZBts7jyPR53/maajuUNno8+DjqW2bz/j7J8fvMkQlm6DiLy2P9ylaGeJE0dc8P+b+UlDvd/JqNT75FgYtTn9ecTnLvJ0ccn9QeK0+9o6Jfhpcfg1R9BcVwXVg4drFAYShCp4tSNuSnJle9J8Pb3zZGq0XmKEXSDIaYu7Jvu8nj9xZAf/kOZPc8FVIqKKID6GaEkhNinujAeUZzwUaqCl1Zkmly8pE2mycVN2LieoJKPF2UBIl6Rj7UuK6WjbtAd80rp8/BqOSKoRpSLIcVcgKymiPBRSpeDK0oznkXf60whv+vjaRYsm/tCPpOVF9u848EMz3xVEKgiKEXow1ifZO2muREpeinBprtmpt5hoKfEy99rQThMvVm0u9zpu6/ubbpLou813e5YrUQM9JSojHsEajJ+lCCRgus/kOCDn8uevpszHBUj6AbDUTj/aofzr26mMKZ49ptVfvA/K+RHFTKqR+3TzmZ1m0u/bOGXIwQSISIUCmEHpJsckikHYYGwBKm0c8yCLRkpysUQVCziviSqpJAEuidb1du3ikdcOS3ilq0r19/+Swne+StJOpbPDXE7UbyU4KIbXJ796vSEPRkp9m+J2HinPWfaDBeusLn/sxn+7J4cKJ163/dSiY5lKVRcxygj8CvHfp6TwehB2Pl96H5ZH/UI9MCe/jcKRL47FZkLBG4Krn8gwYc+b8S8ETCCbjAcg6YFgjt+I8Xtv55i51M+z/9jle6XQyaHFEpBFNZNUOruZjJurYqfIBQUJySliSD+ggARHjtCB+qreL0q/WfFu44AobBjEU9mtDvejR9McunNjV3sdrJYeoEguaBAOOroo5FI0fVyyNhBj8XrzvTdHT8rL3G4/7PTqffcmI+XsqfT7Gr6COhkU5rQ0+16d8BIjxZyGUIUSEYGqoz2hzpzRC2+QpDIwHXvN2LeSBhBNxiOA2HBhls9NtyqRfLAzpBXf+Kz/fsBva+EgEBGShepyZlyXTdCmfWlt3oX+l+ho3BhCRwPFpxjc+F1Lhfd4HHxjd68sqw9HhIZwaJVDqUxgVRVZGgz3BtwcLfuPJgrFdeJOPW+9YkC3dusqRS37Yh4owKlSQmcnF9oYgAG9+tRtUNdUBjTRZiOBUGoKEwGDPaWCCsJXXQYIxC0LhHc/YkU7zzBUbqGU4vpQzcYfkGKE4rXngnYtyWgZ1dIz64Qy4qL2CJFbKClfc7k8VY1qSkhsuJUvbB0Ff2iNTYr1jusucJlwy0ezXOk+OtUUSsrnvzbKo9/AUJVwsLBTSkuvbGJ+//IoXPNmb7DE2PfloA/uyeHktbUlECBhZtUbLwtw8bbE7SfA8svOf5BQmFNtzsWx/QY2qFuLd7Vkv4olO6YiKSiVo4YOVQmNxaCEvHAnGmWr3f41S9mWb3BxIONhhF0g+EUMHZIMtgVse+lgPH+iNyIolpSdG8Ppx3m4kW0jmUBQm8E0s2C1RscbFew4iKbzpU2qy9zWLRmjoSbp5m+PSF/fEeOsBobBFmwYHGCd/9Wlmvug2TTmb7D46dWVvzoS1Ue/ZwiVLpbQWDjeIql52ZYuCyBl4Z0i26BbO7QngfNCyHVpCPt4jigtGAXx6Cc162OYU37Fsj4BKje9uj7iomhKvnxGmE5RagqRwi5INUEV77b44FHsmRazu5NZKNiBN1gOFMo6H89olZSJDKCZRcYsX6rTAxIvvwfSuz6oSBSVSxc3JRk3YZm7v60zfnXnuk7PDEOvhrx3x4qMNZvIZWPwMb2FEtWpmlflASpsCyBBCxH2xC7Cd0eGdTqDnq6xkPIeMagmu6giCKoliNK+YBirkZpMkLgxMdDs90EhdAjb+/7wwyb7jo76jLmKiZnYjCcKQRGxE8SbUssbvxggt0/lESAIsSvwVBPhW3fy7JgOXSsONN3eXyUc7DnaZvWBRlG+3MIdI996MNAb4mJkRpe0qap1SPb4mJJLeBBmXik7AxJVvqoR4aKUj6gWo6oVULyEz5CplAqjKfZKRTBrPuwLMi0Wbz9fQk2//s0mVYTlTc6RtANBsO8YMXFDuffWGDP0wkiVUNIh8kxn30v1mg7J8H1H2zgSWwKENoh8Jn/C6/9GDzPpn1RktyQmBpLGvpQ8iNKSHJDCqmKuCn9WMcVJFMOYSSplSKkUigJ1WqEFaVi/4S6eAvgZ3vghBULeavF2+7WJkTzzbtgPmNS7gaDYd6w66mALz6Yi4u5tCVpulmwen0L1z4geNu9esZ9IzLwBrz4LejdCUFFz6zPDboEKn/M6wT16XMCgWDakkij4rGzR7sSlC66tHWV/fL1NldtTvK2uxM0LTAR+VzDROgGg2HesOoym+s/kOS5r6GtepGUizDYW2LrY1lsFza+u/Hm2u97QY8kHekBGWoxzx9FzOudD7PNjaYF+9jRmX68sPTzCKGHFK253OGiGzw2vstj4UpzBDSXMRG6wWCYVwzsj/jL+3NMHraQhAhsLEeyeEWaxatSXPW+xhH1KIQd34eXvwfFEfB9yXAs5v4RYp5qEpx3lUvTAsHe5wNyw3EsLnVqXakjfN+tGZbDlo7jk1nByktsVl3msP5aj3OvcEikTSQ+XzCCbjAY5hUygi2P+fz9bwZxlK6wcLA9ycrzmmjpdLnqfbDp7jM7zWxyAF54FPb/VE/Rq5RC+vcX8YveVLtavV3s3I0OmTaL5RfavOd30wAM90p6Xwnp3xsy1h+RG9bRt1KQTAuWXmDjJgWJtGDFeofOVTati4x4z2eMoBsMhnlHtah48u8qPP7FeEoeYOFiexErz2uidbHLedfAVb8ErYtO771FAbz6NOx+Cob2AwryEwG9r+dRoaNH9gIgSDfDTb+S5P7PZOjZFfL8ozV++U+O003GcNZhBN1gMMxLxgck//tTBV79EVMiOVPUswtcOlfBNffDmitOzz317YYd/wIHd0OtCFGoGB+qMtBbAmlPmbkILJoXwuZPpbj5IW2vGvpQzquz3hnQ8OYYQTcYDPOWsX7J334sT/dW8TOivnxdE81tLul2OHcTbLgDOpafovvog50/gAPbYXIQbAGVsvZqL48nCFRhxqMFrYsF7/ndFLd8xHilG44fI+gGg2Fe07Mr5L//ap6xPjEjArYRtmTh0iRLlqcRrqBlIay4FC67/eQJe88O2PMTPfwkNwwqhMCXTIzUGOqrIENnxuATgWUp1lzu8MHPZVmz0TQhGU4MI+gGg2He0/NKyF8/nGekb7rFS8Q14elWhxVrm0ilLZQFLZ2wbD2s3AArL4VE+sR+Vt+rcOBlGD6go/HcMDgCgkhRzIUM95WoFRJx4Vt9+RW4CcVlt3o8/IUm45VueEsYQTcYDGcFk0OSf/hEgd0/VnGkrpc+CwfsiI5zknQsSZHwtLBn2iDTCm1LoLkTWheDl9Jfrw9BqZV0VX1hTEfhxTFt3VoYBxXoHxFGimolYqS/Qm7Uh9jKdSbNHRa3/mqSuz95grsHg2EGRtANBsNZQ35E8tU/LPHSY8ERQ0gElnDBCrSwL07hehaWBZEEN6nF3La105zt6lYzGeo2saCmxd2x4jGkShe8FXMBo4fL+IXkUSaY6aEqaze5PPSXWc45z5i6GH4xjKAbDIazChnCs9+q8pXfLxL4gIpHrgJTwi4CWjo8mhckyLa42FMmLQIh6p5rWsynnlcqpIRSPmBiuEph0kfIBFIduXnQLm1NHRa3PJxks4nKDScJI+gGg+Gs5NC+iC99usAbL4UAqFnCHhfOCRuFTyrj4CUtvJSNZekhKFEkqZYjhIDQl5SLIWEliVR+PIb06B7q2TbBVZsT3PnxFB3LTVRuOHkYQTcYDGctUQjbnqjxvb+ucPDVUI8bPULYQfeFTw9AgbrJqpo1BEX+zHV1LBu8pGDdlQ73fjrDuZtMBbvh5GME3WAwnPXMFPa+13TEPnMAyluhPgAl225x3X0JbvpwkoUrTERuOHUYQTcYDIYYJWHflpBnvl7l1Z/45EcVKIVU+ns6gp99jYgHoYCeJU4s4lfc4XHRDR4X3+CRMG6thtOAEXSDwWB4Ewa7Ivb9NOTgayGDXSGFMclIb92gRmAJRUunxZJ1Nk3tFqs3OJx3lcvic22EaSU3nGaMoBsMBoPBMA+wzvQNGAwGg8Fg+MUxgm4wGAwGwzzACLrBYDAYDPMAI+gGg8FgMMwDjKAbDAaDwTAPMIJuMBgMBsM8wAi6wWAwGAzzgP8PAAD//+3deXRcxZ0v8G/fXtXad8m2vK9gMDjGgFky44UAzrDkxcZMnBicmZOXl8xLeMk7ScaTZBKYwcmZ5DDAAOPhYDAQeAEGxomTwMTETiBsBhsj492WbMnad6nV+31/CNnqTaq6S7f69vdzTs6Jr+6tKrpa+t1bt+pXDOhEREQWwIBORERkAQzoREREFsCATkREZAEM6ERERBbAgE5ERGQBDOhEREQW4Mh0A8YTHO5Ay4lXNF9vs9lgdxbA6S6GK68SRRWXQLG7DWwh0N9xAD2t7xla5qjC8otQNuUaQ8ryDzah+9yf0dv2HoYHziIc7Ec40A9VjUBxuOF0l8DtrUZ+yTwUVy1F2ZRrDPmshgfO4tzR54XOzSuajinz70j584GuerSf/q1QWYUVi1E18yahcydbH549tB3RaFjoXMXuQt1FmxKOnzv+AkL+XqEyqmbeiLzCOtPaGM9mAxRHHpyuYjg9ZSgsuwhOT6mmskQFfO1oPflfhpVXOWMNvEUzdZXBfjZf0N+F3tZ30df+AQZ7jiEc7EM4OIBIyAe70wuHqxAOVzHyS+ahpHopSqqXw5VXkdY2GmlSB3T/UAvO1P+HYeXZFCcKyxahatbNqJlzG2w2/QMUve0fGNrGsWrnfk53QB/qPYGGg4+gu/mNlOdEQj5EQj74B8+hr30/zh37JewOL6pm3ojpi78MV16l9gaoUZw7/oLQqd7i2eMG9L72/cJlTXN4hM4DJl8fnjm0HdGIX/j8mtm3JPyhPHfslxjubxS6vqB0vvQfetk2js8Gb/EslE/7NKYt3AiHq9Cgci8Y7D5saB+78sp1B3T2s/H9PMrXdwpnDm1H55nfQ1UjSc8JBwcQDg4AOIfB7sNoO7UTNpsdFXUrUbd4M/KL55jWPrPk1JC7Gg2hv/MgTry3Fft+/Tn0tLyd6SaZ6kz949j/u43jBvNUImEfWk78J/btWofWkzs1t8FdUAsI3jgFhzsm+HmXeL35NcLnZruB7o8z3QSdVPj6TuHsoe14d+ctaDryjOE1BIc7DS0v5Bf/LhqF/SxWx+kPH8b7v/1rdDS+mjKYp7xajaDjzH/jg99+AacPPARANaGN5smpgD6Wf/AcDu29By0n/jPTTTGBiuPv/jMaP9oGVY3qKikS8uH4u/eh8aNtmq5XFBdcbrFhtnBwANFIIOXPgxJ/RD35U4TPzXaD3Ucy3QTDREJDOL3/QRx75z7d392xgn5jA7rMzaVR2M/ji0YCOLT3/6Dp4x2A3jLVKJoOP436PfcYOEJhvpwN6MDI3diJ936C7nNvZrophmo68ixaT2qfe5DMmfrH0Xbq15qudXurhc8NDLWm/JnMU5GnYKrwudluqPdYpptguLZTO9Hw4b8ZVp7RAVjm5tIo7OfxHX/vfsP/lve0/BnH373f0DLNlNMBfYSK4+/ch1CgJ9MNMYSv7xQaD/67KWWf/OBfEPR3S18nM/zt96UO6MJ12xR4CnLnCX2o90Smm2CK5iPPoq/9fUPKMjoAZyags59TaTv1a7Sf/o1BLYrV3vBbXa8d04kBHSO/nM1Hnst0MwzRcPDRcYet9YiEfDijYehdJqAHfW0pfxYSDOgudykUxSVcZ7YbHmxGJOTLdDMMp6pRNBx8zJCyRL874uWl/wGA/Zzi+mjY0NGcZBoPPgI1GjK1DiMwoH+i7dROqBqXZ0wWweFO018ftDf8DpHQkNQ1nvxa4XMDvvakx1U1ilCwX6gMmSF+S1CjGOw5nOlWmKK/40MM9R7XXY6WkaXxZCKgs5+Ta2/4rekjJkF/N9pMGgEwEgP6J4L+7qyf9d6ahpuSSNiHzrOvS10jM0EtkGKme3C4Q3iiSy7NcB81YKEJU/HaTu/SXYbRT+iRsA+R8LChZYpgPydqOfmywS1Jzuh5SWZgQB+jv/NgppugS3/HgbTUIzsK4JZ4nx1M8YQe9I2/pC2mPm/uBfShHutNmBo10HVI1/UTrZ7QaqJllmZgP8eKRoJpm/0/2H1k0s94n9SJZWQVVy1FXtEMRMPD8A82Y6DrY6l1iHr/cGTaYM9R4XNtNjtKapbD6S5Bf+eH8A+eE75W9nPKK5gGwAaRNZ2p1gunenJPxlMgPsRvFUYMS5slr7AOJdVXIBLxIzTchf6uj6TeBQ/1HIOqRjUnggoMJ79JTKZ69l+h7dSvxMr1dSCvcLqmNmnFfo410PWR9Khkful8FJTOh3+gCX0SD0GqGkF/Zz1KqpdJ1ZdOlgrolTNuQO3cz53/d2/b+/joD18THqr1D7WY1bTziqsuh9NdJnRuQdki4XIDvjbx93o2BYv/8mGUVH8KABCNBnFw9//EQGe9cF3hYD8criKh8xX7SGpZkZUEqQK6zDpit8Q7ey3M6kM9fP0NUKMh2BRnWuqTUVC2CHOv+O75fweHO3DgtbtTzpeIFwkPI+Tv0pyxUGZ0p3zap4UDeiae0NnPsQa65JLt1My5FfOWbzn/7xPvbZXKRTLQdYgBPVNKqj+F4opLhe/CwoKTrvSou+hulNZeZXi5Mn9cisoXnw/mwEjyl5rZtwgHdADw9Z1GUeUS4fPd3mqhgB4K9CS9S5fJ9GX2GnSz+lAPNRrGYM8xFJZfnOmmTMiVV4mqWWtx9tB24WtC/h7tAV3wd8Pu8MIj8brG6GQ1ItjP8eeLz42w2eyYddnfxRyrmXu7VEDPyGRICZZ/h55XPEv43EhoENmW6m9UODgofG6yDRJcnnKp+gLjLC9Lxp0vNvNcVaNJl67JJJXJy6GkMmNlUyYx2TzZoWCf5rpEZ0A7XIVw5on/HoQykC0OYD+PFQ4NCJ/rLZqZMKpYULoANkX8uTYcMv+hTw/LB3SHI1/4XFWNIhoJmtga88h8sf2DzYkHJd9PhgJiOzyNkpmo5k8S0EUzfTndpVDs4huzWInMHIpMszvFfy8B6Fp/LTq643AVwuUuFX6Hm4nkMgD7eaxwUHwJrdNTkvS4zCYxMg9OmWD5gG6zy75rys4ndJncxUO9JzHUdzLmmMxdKjCybEeGzES15E/oYkNdObcGfYxsyiRm9DbG4xF/Qi8CbAocrmLBco1dCieK/XxBNCq+esFmS/43TpGYj2BW0i6jWD6gy1LV7AzodmeBxNkqGuMyMymKEzabIvw/2ZmlUmvRk0yiEf3jKTq0b0W+vlPI2hvSCWn/7xIdGh8djnW6xQK60WvbRbGfKRVLT4rTJEsDuuw+x11Ne9F68r9QM+dWACNL/q7dYF5iHZmJasnez4cCggE9B9egj4qEffD1NcArMW8kW+i50Ra9GXS6RwN68qHZxHIzM+TOfqZU+ISeIDu/UHmFdbA7vVLXnNj3E3Q3/8mkFsXy5IsH9Ph3niOJQcTmNsikmbWiwW5rpgbV9YQuuPHS6FC70yO2JDEc6NO/TadG7GdKhgE9jpF7MKeXDcWVl0tdoUbDOPzm99Dd/IZJbbrA7vQKr1uPTwQikxgkl3ZZS2awJ3tmQEvR+OQWjQQRDopNGHWOBnTBJ3RVjWZwYhz7mRIxoFtI5fQ10tdEI0F8/MZ30Hl2twktiuX2VgmdF//OUyYxiMy7eisa7Jm8mcT0UDU+uQUlbgYdbrkn9JHy078WHWA/U3IM6Amy9wtVOWNN0jXmE1GjIRx58x/Q3mDubkKim6bEL1GTSyozTapNVuPry54Z0HK0/V4GJG4GR5/MXRIBXTQLmtHYz5QMJ8XFMXtSxvDAGeF1j7JJD2yKE9MWfQmn9/+rdLtUNYJjb/8Y0XAANXNvl75ehOiEtWg0iKC/+/wfVtGMXA5XofQ8Ai3M7EO9QoE+BNKQwjjtNP5eymRzc2p5Qs/QkDv7mZJhQE9g7jv0k+//i/C5V962Szrd5dT569F2aid8fadlmwZVjeL4e1sRiQQwdcEG6esnIjNhLehruxDQBZ/Q07UG3ew+1GvAkhOmtA65iz+hOzQ8oYsmPDID+5niccg9TrYvm7ApTsxf/n0dT4UqTn3wc5z9+EkjmwVAbsKaf6j1/P8XXe+bi/ugJ5NNmcREaZ2sKhNwne6R11VOiTTImcjnPor9TPEY0BNkd0AHgMKKxZh9+Td1ldHw4SNo/GibQS0aIbd07cK7SdFhzVxegz7WYLf1/tBrf0IX++7YbMr5dehurzmbgxiN/UzxGNDjZfkT+qgp89dj6oI7dZVxpv5xqZ2SJiKXXOZCQBdN+5rra9BHWXLClMZfS9FNfUYyLdoAAIrdA7sjT+i6TL1DB9jPlIgBPYF1vlGzl96Dmjm36Sqj4eCjaD76nCHtGZm0JrZZQ9An/4Se60vWRgV87WnZCjidNC9bk9hpLebfgmvRM/mEzn6meAzoFjdv+d+jZs4tuso4vf9f0dW015D2iE5cC3wyEU6NhoR3ODJ7H/RsMtn3bZamceRMNODGJz0STS6T6c850/UbziIjpJnCgB4n2yfFJTNv+T/oCuqqGsXRt3+YsEObFqIBfXR28sg6YrE+ycWAno5lepODht9LNYpQQGx/bafGgB4JD+va2lUU+5lEMKDHUyOZboEp9Ab1SMiHY2/9o+7c1aLvuUdnD4suO7I786X2NbaK/OK5mW5CWmi50Q76u6AK/j474nZYk0nQJLM0Tiv2M4lgQI9j5a+T3qA+2HMUTUee1dUG0aVlkZAPkdDQpFuDPtkUlC7IdBPSRENAl8gwGH8z6HJLZItLQ0BnP5MIBvR4Fr9DHAnqt2q+/uyh7YhG/Jqvl5m45h9qEV7nm7MBvWxhppuQJvK/lzJpWUc3Zjn/70n2hM5+JhHMFJfA3C9UcdXlcAre/St2jyltmLd8CwAbWk++In1tODSI1pM7MWX+ek11yySXCfjahJ+y0rlkbTL04SiHqwhubw0CvtaJT85mWobcZZ7QE4bcJ9cGLexnEsGAnsDcL1TdRXejtPYqU+sQMW/530NVo2g7tVP62tYTL+sI6DJr0dvEk8qkMUvcZOnDUfml8yz/h17LciYtedxHSaV/TdNadPYzTYRD7nFyaVLG/Cu3oKJulfR1Q30n4R9s0lSn010Ku0Nsxm5wuEM401cur0EvzIXhWLOf0OOG3F15FcLXxm/3axb2M02ET+gJsvMLNdR7HB1nfi90rs3mwIxL/haADQtX/BgHXmvGYM8Rqfp62/ahRuNWpW5vFXz9DROeF/C1S2SJy92AXlB2UaabkAZantDFk77EL1OTy+eenuQy7GeaCAN6vCy9QxzsPiqcptWmOD8J6CP/f8HV/4gPfrcRajQsXN9Qz3FN7QRGJrCJBPTgcId4lrjC3FuDPqqwfHGmm2A6LUOxMlncRjdmGeXylMJmswste0tXtjj2M02EQ+5xcvEL5S2ejUrJoXe/T/tezO58weQyvg6EAr0Tnmd3eBP+IOcSp7vY+hvTaFqHLhHQE2a12+BwFyU9N6GeQHoCOvuZJsIn9Hg5+oWqnb8O7Y2vCp8f8k8caFNxCw6PDw+ehRoNTVyet0pzW6wiFyZMyRJ/crah6fAziYcF/xaEA31Q1ShsNvOfj9jPNB4G9DgqcnM/3qLyxbA78xEJDQmdr28tuthTRjQSFDovV9egj1VQuhDdzX/KdDNMI7tPdjg4gGgkIFo6ztT/h3yjRq9Wowj5u+DKE992VSv2M42HQ+5xbLn6kdgUqWxUoik1k5HZF12E6BC+lRWWW3vClOzTb2BYPKmMEWSS2OjBfqbx8NOLY1Oyc9DCpujvyvi1uOPWZ7NrrsdTqG12fCqiQ/hWZvUJU7Lft6DP/OxtMfWlIbkMwH7We75eNiW99cliQI9jd5ib2cssNsWpuwy7U3xzEz0Z0Fyecih2t+br44kO4VuZ1SdMKZK/l+lIxxpbX3oCOvs5lt2ZL3yuqiZfxSOzusfhLBA+NxMY0OPEp4DMFnZ7nvC5ajScdNc0RWJ0Qu/OZkZOZDN6CD9b5ZfOy3QTJMhNPo3f3nQi6Qqw5+tLU7Y4gP08lkyADQeTzw8KC84bAgA7A3pmBXxtwuc6XIVQFJeJrTGPzGYSgIrhgbMJR/Ut85Fj5ES2XNwHPZmC0uzJJBYYkpup7fLKTThLZ4AF0nsDwX6+QObBwj/UnHAsMNQiMXlS/4OM2bLzhbGgSMiH3tb3hM9Px2xp/2AzBnuOCp/vKZgqdBcqmymt48x/Y/rivzn/b1WNYqCrXvj6PI1Z4kYZlXtdsbuk0nQawaw+1KuwbJHpdRil8+zrUud7JL9v6Q7o6UouA7CftZ4fDg6gt20fSqqXnT/W1fxHufom+WigpQJ60NeOwZ6jUCMh+AYa0XzkWal3ad7i2Sa2bsSJfT+ROn/RtVtRUbdywvOcnlI4XIUIBweEyj378Q6482tRPvU6BIZa0Vj/uNRTht7Pyu01Zne0TCxZM6sP9SqsuNj0OrQIBwdGboBUFf6hFrQ3/Abd594Uvt7trZK+IUpXfvVR6Ur/CrCfxyqquFTq/OPv/jPmX7kF+SXzMdBVjzOHnpCs7xKp89PNUgH9zKEnpDtorIIsuvNNJr94Dvo6DgidG434ceztH2muS+8X26jtTrkG/QKnu3RSbrHZ0/IWelre0nx9vsRyylEyAba4aimUFJNKe9v2CaZ/Td8NBPv5grzCOjjdJUIZJQHAP9iEg7u/Kl0PMPK+3ls8U9O16WKpgK7XZNoSU4uiqsuFA7oeeUUzdCfRkNkXfTwM6LGsmEmspPoK6WtCAbFNfQBg8V88kHLVxjuvrBUa5QsKbiJkFPbz2OuWCW9MpUdx1VIANtPr0cPyk+JE5RXNQH7xnEw3Q5eKaX+ZlnrKplyjuwzZd2WpcA16rGyaMCXCZlNQOV1un4FoJCj86kmxu8ZdgimamyEa8QtnWTQC+/mCmrn/w+DWpKrn9rTUowcD+idqZv1VppugW0HZwjTclNhQM/sW3aW4vZWGrJ03aujeKrJpwpSIkpqrpEeDghJZ4hwT5F6Q2fQnkMa17+znMddWfwreopnGNiiOp2AKyqasMLUOIzCgY+SXtnb+ukw3wxDTFn3R1PLLpqwwaPKgDW7JJSrJGDV0bxWTdcKUNjZMX7xZ+qqARJa4iXZUc3rKhMtKZzIb9nOsWZf9b4PaktzMJV/DZB9uBxjQAQCzLvs72B3iiVkms6pZN6OocokpZdsUp6G/OEZkvDJq6N4qRidMWUH1rJulZzEDcoF14if0ElPq1Yv9HKts6rWonv1Zg1oUq2L6KlROX2NK2UbL+YBeM+c2074ImbJwxT+ZsjZ71pKvwVs8y7Dy9P5BsilOQ57yrSa7MoklV1C6AHOv+I6ma4N+8eWXEz2hu6Se0NO7VC7X+znenKXfRn6JsZ9JXtEMzLvie4aWaaYcDug2TJl/B+Ytz57OEuX2VuHSVY8hr7DOsDKnLdyIqQv/2rDyAP052EeC+eQfBku3bJ8wVVy1FJesfETzfgEygdUxQapRuSH39Ab0XO/neHanF5esfBiFFcZsYFNQugCXrnxkwu/IZJKTy9YKShdi5pL/lfXL1MaTVzgdl3/maTR8+G9oOfmy1AYEYzlcRZi99B5Uz1prcAsBt84JbVyylly2Tphy5VWi7qJNmDJ/HfTcqMkEVqdr/FnsUk/oac5Ol+v9nIzTXYolq/4djfWPo/nIs4hGgtJl2BQHps6/AzMu/SoUe3alArd2QLcpsNvdcLpL4CmYisLyxSif9mkUlltpQklqdqcXc5b9X0y7aBNaT76Mrqa9GOo9CZENE7xFM1E580ZMmb/etLSlenOwG5Vtzmom/4QpGxS7Ew5nIdwFtSgoXYCy2hUonXKNIfthyyR5mejpS+bVVTqTywDs55S1Kk7MvPSrmDJvHc4d+3/oOLMb/sGmCa/z5Neiom4lpizYkLUPCzZVVeW2w6GsNpKe8Rj8g2cRHO5EJDwMVY1AUVxwuIuR98mNT7rzoxMRmSXga8NA18fwDzUjHOhHNBqEojjhcBXBUzAFBWUXWWIJLAM6ERGRBeTwpDgiIiLrYEAnIiKyAAZ0IiIiC2BAJyIisgAGdCIiIgtgQCciIrIABnQiIiILYEAnIiKyAAZ0IiIiC2BAJyIisgAGdCIiIgtgQCciIrIAa2+fSpRGJ0+exLZt25L+bNWqVbjhhhvS3CIiyiUM6EQGGBgYwLp167B///6Y44qi4Pvf/z5Wr16doZYRUa5gQCfSSVVVbN68OSGYV1ZW4sknn8TNN9+coZYRUS5hQCfS6Uc/+hFefPHFmGPLly/Hc889h9mzZ2eoVUSUa2yqqqqZbgRRtnrppZewfv16RKPR88e+/OUv46GHHkJeXl4GW0ZEuYYBnUiH/fv3Y2ho6Py/PR4Pli1blsEWEVGuYkDPYY1btsDf0BBzbMa998Jj8DBxuuohIsplDOg5yn/6NPbNmQOM6X53XR2uaGgAFOPSExhdTzAYxHPPPYfXXnsNDQ0NGBwcRLKvsMfjQW1tLa699lps3rwZ5eXlev4zEhw+fBhPPfUU3n//fXR3dyMUCiWcY7PZkJ+fj7q6OqxevRobN240bBj+6NGjePvtt4XPVxQFRUVFWLBgARYuXGhIG0bt3bsXDXE3bMBIH9xxxx2G1SPymSuKgpKSEixatAif//znsWrVKsPqB4Curi488cQTeOONN9DS0gK/35/0PLfbjerqaqxYsQJ33303amtrDW0HUTIM6DnqzA9/iDM//nHMsbotWzDjvvsmbT3Nzc249dZb8f7770tdV1VVhRdeeAHXX3+9dJ3JPPjgg/jWt76FcDgsdd2iRYuwc+dOzJ07V3cbtm3bhq985Suarr3sssvws5/9DCtXrtTdDgD44he/iGeeeSbheE1NDVpaWgypQ+tnvnHjRmzfvh0Oh/75v3v37sX69evR3t4udV1xcTGeffZZrF27VncbiMbDTHG5SFXRvmNHwuHqu+6a1PXcdddd0sEcANrb27FhwwZ0dXVpqnes119/Hffcc490YAFGnjDvvPPOmAl0mXDgwAHceOON2L17d0bbIUrPZ/7MM89g69atutvQ2dmJDRs2SAdzAOjr68PGjRvR2Nioux1E42FAz0G9r7+e8E67+Prr4THgydGset555x38/ve/19yWlpYWbN++XfP1ox544AFdAXnfvn149dVXdbdDr1AohG9+85tJX1dMNno/84ceegiBQEBXG7Zv347W1lbN1/f29uKxxx7T1QaiiXAdeg5qSxLYqjZtmtT1/OEPf0j5s9WrV2PGjBkARpK8vPbaa2hqako4b+/evfj2t7+tqX4ACIfD2LNnT9KfVVdX4+abb4byybyA1tZW7Nq1K+m5e/bswU033aS5HUapr6/H/v37sXTp0kw3JSUjPvP29nbs378fV111leZ2pGqDw+HAunXr4PV6AQCBQAAvvvhi0nfre/fu1Vw/kQgG9BwT6e9H18svxxyzFxSgYv36SV1PquHKoqIi7Nq1Cy6X6/yx7du3Y/PmzQnnJpu4JaOtrQ0DAwNJf/aNb3wD3/ve92KOzZs3DydOnEg41+yh1z179mDBggXn//3qq6/irhSvOQ4cODCpA7pRn3lDQ4OugJ7qu7NmzRr84he/iDnmdDqTjgadOnVKc/1EIhjQc0zH888j6vPFHKv4/OdhLyiY1PUMDg4mPe71emOC+eixZFIFBr1tAEYmPsVLNaNdbzsmUl5ejpqamvP//sxnPpPy3O7ublPbopdRn/l45YhI1WfJ2pDq+9fX16erDUQT4Tv0HJN0GPzuu7O2HhmRSETX9Ua9b870pLixki39mkwmy2duRDv0fv+IJsKAnkN8hw9jIG7tsmfuXBQbtJwr3fUQEdEFHHLPIe1JnpoNX6qWxnpSWb16Nd56662E4/FD82Q9Tz/9NIaHhxOOc5McygUM6DlCjUTQHp/8Q1FQ9aUvZWU94ykvLzc8MxxlhyVLlmS6CUQZwyH3HNHzm98gGJe1q3TNGrjr6rKyHiIiisWAniPan3oq4ZgZa8/TVQ8REcViQM8Boc5OdP3qVzHHHKWlKP/c57KyHiIiSsR36Dmg49lnoQaDMccqN2yA4nZnZT1EY+3ZsydpIqGx7r33XnzhC19IU4uIMoMBPQe0PflkwrFqM9aep6keorECgQBOnz497jlDQ0Npag1R5nDI3eIG9+/H0IEDMce8ixej4IorsrIeIiJKjgHd4nJl7TkRUa7jkLuFqcEg2uM2jrA5najauDEr6yFKxul0oqKiAsDINqVa9k0nsgI+oVtY1yuvINzVFXOsbO1aOKurs7IeomRWrlyJjo4OdHR0YNGiRZluDlHGMKBbWFua1oSnqx4iIkqNQ+4WFTx3Dr2vvhpzzFlVhbLPfjYr65Hx5ptv4uGHH044XlJSgkcffTQDLSIiMh8DukW179gBNW67xqqNG2FzGNvl6apHRlNTE55//vmE49OmTWNAJyLL4pC7RSUbBjdl7Xma6iEiovExoFtQ/5//jOEjR2KOFVxxBbyLF2dlPURENDEGdAuy4tpzu92uuwy9+6E7DHqN4HQ6DSlHVCgUSvmz/Pz8NLZEnlGfud5yjOgzN1Mgk8n4Dt1iosPD6PjlL2OOKR4PKu+8MyvrGVVaWpr0eGdnJw4ePIj58+cDAFRVxb59+6TK0NsGAHjnnXdw1113QVFG7pFbWlrQ1NSU9NySkhJd7ZjItm3bUFlZGdO2VKZOnWpqW/Qy6jM3ou+TpZf96KOP0NXVdf7GKBAIoL6+PmkZ5eXlutpANBEGdIvpfOEFRPr7Y46V3XorHDr/oGWqnlEXX3xx0uPhcBhLlizRVYao8vJyzJgxA42NjQk/27FjB3bs2JGWdkzkoYceEjrP4XDg6quvNrUtehn1mS/W+Rro4osvxgcffJBw/NChQ+eT2pjdBqKJcMjdYpJukGLCMHi66hm1du1aeDweXWXcfvvtutuhtwxFUXDbbbfpbocR1q1bhylTpmS6GRPS+5kvW7YM8+bN01WGEX1mxPePaDwM6BbiP30afXv2xBxz19Wh9IYbsrKesWpra/Hd735X8/Vr1qzBLbfcorsd3/nOd3QNU3/961/HggULdLdDr8svvxwPPPBAppshRM9n7nA4sHXrVt1tuO2227BmzRrN11955ZXYyFTIZDIGdAtpf/JJQFVjjlV96UuAYmw3p6ueeD/4wQ9w//33S72Ddjgc2LRpE1566aXz71r1qKmpwe7du3HddddJXVdQUIAtW7bg5z//ue42aKEoCsrLy3Httdfipz/9Kf74xz+iqqoqI22RpfUznzt3Ll555RWsWrVKdxsURcFLL72ETZs2SU+wW7duHXbt2sVJcWQ6m6rG/WWm7KSq2Dd7NvwNDTGHlx0/Ds/cudlXzzj6+/vxpz/9CY2NjRgaGkKyr7DH40FNTQ2uueYa0yZ+1dfXY9++feju7k66IYjNZkNeXh6mT5+O6667TvfELJr4M1cUBcXFxVi4cCGuvvpqw2bJj9Xc3Iw33ngDbW1t8Pv9Sc9xuVyoqqrCihUrMHPmTMPbQJQMA7pF9O7ejfrVq2OOFV9/PS7Zuzcr6yEiIjkccreItiRrwk3ZiCVN9RARkRw+oVtEx/PPI+rzxRyruOMO2A1OHJKueoiISA4DOhERkQUwsQwRUZZ45+WbDCknv3QeFv/Fg4aURZMHAzoRUZYI+rsMKcflr5z4JMo6nBRHRERkAXxCJyLKEsWVlxlSTl7RTEPKocmFk+KIiIgsgEPuREREFsCATkREZAEM6ERERBbAgE5ERGQBDOhEREQWwIBORERkAQzoREREFsCATkREZAEM6ERERBbAgE5ERGQBDOhEREQWwIBORERkAQzoREREFsCATkREZAEM6ERERBbAgE5ERGQBDOhEREQWwIBORERkAQzoREREFsCATkREZAEM6ERERBbAgE5ERGQBDOhEREQWwIBORERkAQzoREREFsCATkREZAEM6ERERBbAgE5ERGQBDOhEREQWwIBORERkAQzoREREFsCATkREZAEM6ERERBbAgE5ERGQBDOhEREQWwIBORERkAQzoREREFsCATkREZAEM6ERERBbAgE5ERGQB/x8RREYSiJoCSQAAAABJRU5ErkJggg==;" vertex="1" parent="1">
          <mxGeometry x="979" y="636" width="130" height="130" as="geometry" />
        </mxCell>
      </root>
    </mxGraphModel>
  </diagram>
</mxfile>
